<?xml version="1.0" standalone="no"?>
<!DOCTYPE svg PUBLIC "-//W3C//DTD SVG 20010904//EN"
 "http://www.w3.org/TR/2001/REC-SVG-20010904/DTD/svg10.dtd">
<svg version="1.0" xmlns="http://www.w3.org/2000/svg"
 width="625.000000pt" height="790.000000pt" viewBox="0 0 625.000000 790.000000"
 preserveAspectRatio="xMidYMid meet">
<metadata>
Created by potrace 1.16, written by Peter Selinger 2001-2019
</metadata>
<g transform="translate(0.000000,790.000000) scale(0.100000,-0.100000)"
fill="#000000" stroke="none">
<path d="M5210 6685 c-7 -8 -18 -15 -26 -15 -20 0 -54 -41 -53 -64 0 -18 2
-18 10 4 10 26 57 62 98 75 22 7 23 5 17 -19 -8 -34 21 -77 75 -112 21 -13 39
-29 39 -35 0 -15 61 -109 70 -109 4 0 13 7 20 15 14 17 29 19 49 6 11 -7 11
-15 2 -44 -10 -29 -9 -42 4 -74 9 -21 24 -47 34 -58 28 -30 39 -157 17 -191
-16 -24 -16 -26 9 -56 22 -26 25 -37 20 -62 -9 -35 -16 -111 -18 -171 0 -25
-7 -44 -17 -52 -9 -6 -22 -30 -29 -52 -9 -32 -19 -44 -45 -55 -18 -8 -43 -28
-55 -45 -12 -17 -28 -31 -36 -31 -7 0 -23 -9 -36 -19 -24 -20 -24 -20 -4 -36
20 -15 20 -16 -2 -31 -13 -9 -23 -27 -23 -39 0 -16 -9 -26 -31 -36 -33 -13
-68 -73 -69 -117 0 -13 -13 -37 -29 -53 -40 -40 -82 -39 -111 1 -30 42 -58
109 -71 169 -12 58 -30 74 -99 90 -52 11 -68 4 -131 -60 -44 -45 -52 -47 -76
-18 -50 59 -97 100 -176 153 -80 55 -86 61 -72 77 28 30 30 84 6 130 l-22 41
23 -5 c13 -3 59 2 103 12 75 16 81 20 110 61 21 29 43 48 64 54 22 6 41 23 57
47 13 21 48 54 76 73 61 40 107 97 143 176 14 30 53 94 87 143 78 115 86 145
47 193 -16 20 -29 30 -29 22 0 -8 9 -23 20 -33 33 -30 24 -62 -54 -184 -41
-64 -81 -133 -90 -154 -13 -33 -39 -71 -75 -112 -5 -5 -36 -30 -70 -54 -34
-24 -64 -54 -67 -66 -4 -16 -20 -28 -50 -40 -28 -11 -50 -27 -59 -44 -7 -15
-21 -34 -31 -42 -25 -21 -165 -49 -187 -37 -31 16 -39 -1 -17 -36 12 -21 20
-51 20 -79 0 -39 -5 -49 -35 -76 -54 -47 -107 -70 -187 -81 -48 -7 -76 -16
-83 -26 -5 -9 -34 -42 -62 -72 -33 -35 -53 -64 -53 -79 0 -34 43 -73 79 -73
24 0 34 -7 46 -30 20 -39 19 -42 -12 -38 -21 2 -29 9 -31 26 -3 20 -8 23 -28
18 -17 -5 -24 -2 -24 9 0 10 -10 15 -32 15 -29 0 -30 -1 -15 -18 15 -16 11
-21 -56 -71 -53 -40 -89 -59 -137 -71 -36 -10 -82 -25 -104 -34 -46 -19 -68
-20 -113 -4 -30 11 -35 10 -63 -17 -28 -26 -32 -28 -67 -17 -21 6 -55 14 -75
17 -31 5 -39 11 -43 33 -10 49 -30 77 -67 94 -46 22 -60 41 -24 32 20 -5 26
-2 26 11 0 19 26 105 44 144 6 13 30 36 53 53 24 16 41 34 37 39 -13 21 -180
93 -217 93 -38 1 -38 1 -32 32 5 31 3 33 -40 50 -25 9 -48 15 -50 12 -3 -3 15
-13 40 -22 40 -16 44 -20 34 -38 -14 -27 1 -42 44 -44 17 0 72 -19 121 -42
l88 -42 -49 -47 c-42 -41 -52 -58 -68 -119 -17 -65 -20 -70 -42 -66 -26 5 -28
0 -13 -29 20 -36 -2 -53 -67 -55 -92 -2 -93 -1 -86 120 4 72 2 105 -6 110 -6
4 -39 10 -73 14 -61 7 -63 8 -107 65 -39 51 -45 65 -49 117 l-4 60 78 1 c44 1
90 5 104 9 14 4 -45 5 -130 2 -169 -5 -208 1 -259 44 -33 28 -32 28 -79 -64
-39 -77 -40 -97 -5 -114 32 -15 68 -77 76 -130 6 -36 5 -38 -23 -38 -39 0 -60
-32 -60 -91 0 -56 24 -158 51 -215 10 -22 19 -52 19 -67 0 -21 7 -30 28 -38
15 -6 42 -18 61 -26 32 -13 35 -13 60 11 36 34 71 33 106 -4 16 -16 43 -32 60
-36 18 -3 53 -23 79 -44 25 -21 68 -46 94 -56 56 -21 72 -38 72 -79 0 -39 -26
-90 -82 -161 -87 -112 -75 -102 -91 -80 -14 19 -15 19 -60 -7 -54 -32 -73 -34
-87 -7 -14 25 -30 26 -30 1 0 -23 -52 -81 -73 -81 -8 0 -22 -18 -31 -40 -16
-41 -25 -46 -55 -31 -23 13 -117 -25 -153 -62 -15 -15 -31 -27 -36 -27 -5 0
-30 18 -55 40 l-46 41 -20 -22 c-17 -18 -23 -20 -35 -9 -13 10 -17 8 -26 -15
-10 -25 -12 -26 -23 -11 -31 43 -122 -38 -96 -85 19 -36 7 -72 -27 -81 -21 -5
-35 -18 -45 -40 -11 -25 -24 -35 -56 -44 -23 -7 -69 -32 -102 -55 -59 -41 -61
-45 -61 -86 0 -37 -4 -45 -26 -53 -51 -20 -82 -12 -129 31 l-45 41 -40 -36
c-22 -20 -46 -36 -54 -36 -8 0 -37 -16 -65 -35 -28 -19 -57 -35 -65 -35 -16 0
-43 35 -75 98 -19 36 -26 42 -54 42 l-32 0 -4 -73 c-11 -188 -10 -198 63 -390
95 -253 99 -277 54 -338 -18 -25 19 -93 54 -97 32 -4 40 -30 32 -99 -9 -76
-22 -100 -62 -116 -21 -8 -46 -24 -56 -36 -11 -12 -31 -21 -48 -21 -24 0 -30
-5 -35 -30 -7 -37 -42 -49 -74 -26 -35 24 -78 10 -130 -44 -31 -33 -59 -52
-88 -60 l-42 -11 7 -46 c6 -44 6 -45 -15 -34 -11 7 -28 23 -37 36 -15 23 -54
35 -54 17 0 -28 24 -122 31 -122 5 0 9 5 9 12 0 24 19 -7 25 -42 l6 -35 -60
-18 c-68 -19 -76 -35 -38 -75 18 -20 10 -18 -50 15 l-72 38 -30 -29 c-17 -17
-31 -36 -31 -45 0 -8 -9 -24 -20 -36 -19 -20 -19 -24 -5 -58 8 -20 15 -46 15
-57 0 -11 9 -29 21 -41 15 -15 19 -28 14 -46 -4 -16 -1 -31 8 -42 8 -9 18 -26
21 -38 4 -12 16 -25 27 -28 23 -8 55 -52 45 -63 -4 -3 -30 -16 -58 -27 -62
-25 -76 -44 -60 -79 10 -22 16 -25 37 -20 18 4 27 2 31 -10 3 -9 13 -16 22
-16 12 0 13 -3 4 -12 -15 -15 -16 -48 -2 -48 17 0 12 -14 -32 -90 -38 -66 -42
-78 -42 -143 l-1 -72 53 -28 c28 -16 52 -32 52 -38 0 -17 26 -9 66 20 61 45
134 65 191 53 50 -11 73 -5 95 26 7 10 26 27 41 37 16 10 47 46 69 79 23 34
46 64 52 68 8 5 7 8 -1 8 -6 0 -32 -29 -57 -65 -26 -35 -51 -67 -56 -70 -15
-10 -58 43 -93 115 -33 68 -38 112 -22 196 l7 41 -36 7 c-40 8 -45 24 -21 66
8 14 14 35 15 47 0 21 74 123 88 123 4 -1 24 -22 45 -48 32 -40 37 -52 32 -82
-8 -45 8 -86 35 -95 12 -4 33 -31 49 -63 16 -31 43 -75 60 -96 33 -42 30 -61
-12 -69 -19 -4 -18 -4 4 -6 15 0 32 6 39 14 8 10 30 15 61 15 51 0 68 12 49
35 -16 20 -1 19 50 -1 l40 -16 73 69 c40 37 97 82 127 100 30 17 65 41 77 52
29 27 30 71 3 102 l-21 24 16 -32 c8 -18 15 -41 15 -51 0 -21 -42 -57 -100
-87 -19 -10 -62 -43 -95 -74 -103 -97 -98 -94 -131 -76 -16 8 -39 15 -51 15
-24 0 -39 -15 -23 -25 23 -14 7 -25 -34 -25 -41 0 -47 3 -79 48 -19 26 -46 70
-60 98 -15 29 -36 55 -51 62 -23 10 -26 18 -26 60 0 26 4 52 8 58 5 5 14 35
21 66 9 44 20 64 47 87 43 38 68 39 118 1 22 -17 51 -30 65 -30 42 0 51 -12
57 -78 7 -61 8 -62 42 -72 41 -11 52 -2 52 43 0 39 62 66 148 67 l62 0 -5 -28
-6 -27 15 25 c8 14 15 28 16 33 0 4 -33 7 -73 7 -100 0 -156 -28 -172 -85 -7
-26 -13 -36 -18 -28 -5 7 -17 13 -28 13 -16 0 -19 7 -19 40 0 57 -24 107 -60
128 -49 26 -57 35 -64 63 -5 23 0 29 47 54 114 62 207 164 207 226 0 76 80
192 147 213 30 10 61 90 45 117 -18 28 -15 37 17 44 33 7 46 20 76 74 20 34
23 36 75 36 47 0 55 3 55 19 0 12 -14 27 -39 39 l-39 20 27 24 c15 13 36 23
46 23 10 0 23 6 27 14 4 7 27 25 51 40 51 32 64 26 93 -42 26 -60 137 -220
167 -240 13 -9 43 -34 67 -54 23 -21 52 -38 65 -38 22 0 23 2 18 83 -6 87 -24
138 -58 160 -27 16 -25 27 6 27 38 0 20 16 -25 24 -59 9 -97 48 -151 156 -43
86 -48 101 -40 134 4 20 13 43 20 51 23 28 0 64 -106 162 -58 54 -112 111
-120 126 -8 15 -24 37 -35 48 -23 23 -25 49 -3 49 9 0 12 5 8 12 -5 8 2 9 25
5 48 -10 72 6 64 43 -3 19 -1 30 6 30 6 0 22 17 35 38 20 32 34 41 83 56 51
16 68 17 113 7 30 -6 68 -20 85 -31 17 -11 58 -28 91 -38 33 -10 83 -35 113
-55 45 -31 61 -37 107 -37 50 0 68 10 44 25 -18 11 -10 51 16 75 17 17 23 31
20 46 -4 13 2 36 12 53 20 35 49 40 88 14 22 -14 33 -15 72 -5 26 6 59 13 74
16 15 4 32 15 38 26 6 11 21 20 33 20 13 0 28 5 35 12 19 19 14 72 -8 101 -11
14 -20 37 -20 52 0 23 4 27 23 22 12 -2 29 -8 38 -11 12 -5 18 0 23 19 6 23
11 26 29 19 12 -4 48 -8 81 -8 49 -1 61 2 70 19 17 31 27 35 85 35 47 0 52 2
46 18 -13 30 -24 66 -29 93 -3 14 -17 42 -31 63 -30 44 -31 52 -6 59 14 3 21
-2 25 -19 5 -19 13 -24 41 -24 18 0 37 5 40 10 3 6 20 10 37 10 34 0 69 -24
161 -108 57 -52 88 -62 66 -20 -9 17 -8 19 9 14 16 -5 24 0 34 21 18 39 51 51
158 63 98 10 110 16 110 63 0 24 4 27 35 27 42 0 42 3 11 41 -14 16 -32 53
-40 83 -9 31 -22 59 -30 63 -15 9 -50 62 -45 67 2 3 38 -4 79 -14 67 -16 77
-16 92 -2 29 25 30 49 7 121 -37 114 -18 123 138 65 96 -36 98 -37 207 -31
223 13 229 14 291 69 30 27 58 62 61 76 9 38 23 52 50 52 18 0 25 7 32 33 6
24 18 37 48 51 54 25 74 45 74 72 0 45 31 103 66 123 23 14 34 28 34 43 0 13
9 29 20 36 21 13 28 42 10 42 -22 0 -8 22 21 32 17 6 39 24 49 41 11 17 33 35
52 41 26 9 36 20 49 55 8 24 26 51 39 61 20 15 22 20 11 34 -9 11 -11 27 -5
53 5 21 9 54 11 73 1 19 5 49 8 67 6 24 2 39 -15 63 -17 23 -20 34 -11 43 27
27 3 217 -27 217 -20 0 -34 60 -27 115 6 53 6 54 -21 61 -16 4 -35 2 -46 -5
-11 -7 -21 -11 -22 -9 -1 2 -13 19 -27 38 -15 19 -29 45 -33 58 -4 12 -19 29
-34 36 -15 8 -40 28 -57 45 -26 28 -28 34 -16 53 11 17 11 22 -1 29 -20 13
-44 11 -58 -6z m-2494 -1036 c16 -7 54 -13 84 -13 l55 -1 -3 -33 c-4 -40 33
-124 79 -175 31 -35 40 -39 97 -44 l63 -6 -3 -106 -3 -105 -40 -23 c-31 -18
-49 -22 -80 -18 -22 3 -67 8 -101 11 l-60 6 -73 -77 c-54 -57 -71 -82 -68 -97
3 -11 3 -17 -1 -14 -3 4 -12 26 -18 49 -6 23 -16 56 -22 72 -35 103 -44 147
-40 194 6 60 7 61 50 70 32 7 33 9 30 50 -3 55 -22 90 -67 130 l-36 31 36 76
36 75 28 -20 c16 -11 41 -26 57 -32z m1820 -120 c107 -74 131 -95 150 -132 14
-26 13 -30 -17 -67 -18 -22 -90 -92 -160 -155 l-128 -115 -46 20 c-26 11 -53
20 -61 20 -8 0 -44 -22 -80 -50 -36 -27 -70 -50 -75 -50 -6 0 -34 -23 -63 -50
l-53 -50 -25 32 c-39 52 -59 95 -65 146 l-5 48 53 41 c30 22 65 46 77 53 16 8
22 18 19 31 -7 25 5 24 21 -2 11 -17 16 -18 28 -8 12 10 14 8 12 -11 -2 -19 4
-25 31 -32 18 -5 41 -8 52 -6 17 3 16 7 -11 51 -24 38 -35 47 -58 47 -36 0
-59 18 -67 51 -5 21 2 34 42 75 26 27 53 58 58 69 8 15 29 23 90 33 54 9 94
23 125 42 25 16 50 29 56 29 6 1 51 -27 100 -60z m424 -87 c30 -15 36 -25 50
-82 17 -69 39 -116 76 -166 37 -47 32 -76 -16 -96 -31 -13 -40 -22 -40 -41 0
-16 -18 -42 -58 -79 l-57 -55 -90 -9 c-50 -5 -133 -8 -185 -7 -80 1 -107 6
-175 32 -148 58 -180 36 -135 -91 15 -43 17 -63 10 -83 -11 -30 -34 -32 -106
-10 -76 23 -88 21 -80 -15 4 -22 1 -32 -9 -36 -17 -7 -92 52 -130 101 -22 29
-24 38 -14 56 21 40 93 110 132 131 21 10 59 37 83 60 l43 40 56 -21 c31 -12
60 -21 65 -21 13 0 180 150 265 238 47 48 78 72 93 72 15 0 42 19 72 50 55 56
88 64 150 32z m-1634 -270 c16 -10 34 -48 34 -70 0 -28 24 -44 78 -54 26 -5
59 -11 73 -14 18 -4 34 2 56 20 26 22 35 25 58 16 40 -15 71 -12 147 15 92 33
116 33 124 -2 15 -69 29 -101 64 -149 29 -38 36 -54 28 -67 -14 -27 -3 -48 63
-115 53 -54 66 -62 99 -62 45 0 62 -18 80 -82 7 -26 21 -55 31 -64 27 -24 24
-34 -10 -34 -26 0 -30 -4 -36 -38 l-6 -38 -96 -12 c-109 -14 -144 -27 -158
-60 -6 -14 -17 -21 -30 -20 -16 2 -19 -2 -17 -21 2 -24 2 -24 -20 -5 -13 10
-46 40 -75 66 -28 26 -68 55 -87 65 -34 16 -38 16 -65 0 -42 -25 -69 -22 -77
8 -5 21 -10 24 -33 19 -37 -9 -42 -16 -28 -40 43 -75 57 -106 57 -126 0 -13 7
-34 16 -46 15 -22 15 -22 -40 -22 -56 0 -86 -16 -86 -46 0 -20 -86 -19 -125 2
-27 14 -30 14 -42 -2 -7 -10 -13 -21 -13 -26 0 -20 -22 -5 -45 32 -14 22 -43
51 -65 65 -25 16 -40 33 -40 45 0 25 -7 25 -45 0 -16 -11 -38 -20 -47 -20 -9
0 -31 -12 -48 -26 -19 -16 -47 -28 -73 -31 l-42 -5 -29 83 c-26 75 -27 83 -12
94 9 7 16 21 16 31 1 18 1 18 11 2 14 -26 59 -22 99 7 l35 25 15 -20 c16 -21
17 -20 66 37 90 104 124 162 124 213 0 25 -4 50 -8 56 -4 7 -36 25 -72 41 -36
17 -83 45 -105 62 -22 18 -52 35 -67 38 -15 3 -45 21 -67 39 -21 19 -44 34
-50 34 -6 0 -26 -14 -46 -31 l-35 -31 -40 26 c-22 14 -40 33 -40 42 0 9 30 47
67 85 59 62 70 69 104 69 21 0 59 -7 84 -16 44 -14 48 -14 98 9 45 20 66 24
134 21 70 -2 83 0 99 17 18 20 41 24 60 11z m-476 -880 c22 -61 23 -63 4 -77
-10 -8 -46 -23 -79 -33 -58 -18 -60 -19 -79 -69 l-18 -52 -38 25 c-47 31 -71
26 -98 -21 -29 -48 -49 -56 -101 -38 l-44 15 -111 -58 c-120 -61 -144 -79
-155 -108 -5 -12 -19 -20 -37 -21 -39 -3 -206 -108 -265 -166 -43 -42 -49 -45
-70 -33 -50 27 -126 38 -169 24 -36 -12 -43 -12 -58 3 -25 25 -7 46 68 84 36
18 73 42 82 53 22 27 50 20 78 -21 19 -25 28 -29 69 -29 69 0 101 27 94 79 -5
33 -2 40 16 46 12 3 35 18 51 32 17 14 52 33 78 42 31 11 54 28 67 48 11 17
34 35 50 40 29 9 30 11 30 68 1 33 6 70 13 83 14 24 50 30 69 11 14 -14 33 -4
33 17 0 10 7 13 25 8 18 -4 27 -1 31 10 9 23 19 20 63 -19 21 -19 46 -35 54
-35 9 0 31 15 49 33 42 42 108 65 143 49 21 -10 27 -8 45 15 11 14 20 29 20
34 0 12 54 39 61 31 4 -4 17 -35 29 -70z m357 -70 c33 -30 35 -34 19 -51 -22
-24 -20 -60 4 -96 34 -51 21 -95 -26 -95 -12 0 -29 -11 -38 -25 -11 -17 -26
-25 -46 -25 -16 0 -41 -5 -56 -10 -22 -9 -37 -7 -75 10 -55 23 -71 20 -89 -18
-11 -26 -14 -22 -66 108 -30 74 -54 137 -54 140 0 10 99 50 150 60 28 5 66 21
84 35 18 14 39 25 48 25 8 0 23 6 33 14 20 15 18 16 112 -72z m-432 -93 c31
-59 105 -264 105 -290 0 -15 -7 -29 -15 -33 -22 -8 -37 -53 -25 -75 8 -16 5
-18 -41 -13 -36 3 -66 15 -101 38 -27 19 -68 39 -91 45 -23 6 -69 24 -102 40
-81 38 -128 45 -195 25 -66 -19 -67 -21 -103 -68 -15 -21 -32 -38 -36 -38 -5
0 -16 18 -25 39 -28 72 -13 91 127 162 l121 62 48 -12 c62 -16 84 -8 108 40
23 45 50 50 90 19 14 -11 30 -20 36 -20 7 0 22 25 34 55 12 30 28 55 36 55 7
0 21 -14 29 -31z m-1360 -342 c17 -32 43 -66 60 -76 17 -10 41 -30 54 -45 23
-25 26 -25 49 -10 52 34 203 -3 210 -52 1 -11 -16 -40 -44 -72 -31 -35 -56
-78 -73 -125 -22 -61 -32 -75 -61 -89 -41 -20 -157 -45 -166 -36 -13 13 -105
270 -115 320 -7 37 -7 77 2 136 6 45 8 89 5 98 -5 12 0 15 21 12 22 -2 34 -15
58 -61z m719 6 c13 -27 27 -59 31 -72 7 -23 6 -24 -39 -19 -28 4 -46 2 -46 -5
0 -5 -8 -16 -17 -23 -17 -12 -17 -14 5 -41 12 -15 30 -41 40 -58 9 -16 68 -79
130 -140 61 -61 112 -115 112 -120 0 -6 -7 -18 -15 -28 -7 -11 -16 -36 -20
-57 -5 -32 1 -51 45 -136 50 -97 98 -153 132 -154 11 0 15 -5 12 -14 -3 -7 9
-25 25 -39 39 -33 48 -57 57 -151 8 -88 1 -93 -56 -43 -20 17 -53 45 -73 60
-41 31 -118 140 -166 235 -17 35 -38 65 -45 68 -15 6 -70 -19 -99 -44 -16 -14
-21 -12 -61 27 -66 65 -103 150 -76 177 15 15 80 125 80 136 0 6 -8 23 -17 39
-12 21 -25 29 -45 29 -19 0 -34 9 -50 30 -25 34 -34 36 -59 14 -16 -14 -19
-11 -44 43 -15 32 -35 79 -45 104 l-19 46 27 25 c64 58 225 158 254 158 11 0
26 -17 42 -47z m-283 -263 c23 -49 47 -90 52 -90 6 0 18 7 27 15 16 14 19 13
34 -9 9 -14 30 -29 48 -34 17 -4 40 -20 51 -34 l20 -26 -29 -47 c-16 -25 -39
-59 -51 -75 -13 -15 -23 -33 -23 -39 0 -24 53 -115 91 -156 43 -46 47 -55 24
-55 -17 0 -65 -43 -65 -59 0 -5 16 -18 37 -28 48 -24 40 -38 -22 -38 -47 0
-51 -2 -67 -33 -32 -66 -71 -91 -82 -54 -2 9 -7 51 -11 92 -9 111 -9 110 -105
77 -45 -16 -83 -27 -85 -25 -5 5 -35 125 -35 142 0 9 16 33 35 55 35 38 35 40
35 128 0 73 5 105 30 179 17 49 33 115 37 147 3 31 7 57 9 57 2 0 22 -40 45
-90z m-106 -117 c-28 -89 -35 -125 -35 -191 0 -109 -7 -117 -115 -109 -44 3
-87 8 -95 12 -13 4 -54 124 -46 132 2 2 38 12 81 23 93 24 118 39 132 77 6 15
18 48 27 73 16 46 77 121 83 103 2 -6 -12 -60 -32 -120z m-152 -313 l63 0 -4
-37 c-2 -21 3 -65 11 -98 11 -48 11 -70 2 -112 -19 -81 -35 -92 -112 -77 -29
6 -30 7 -22 42 20 88 7 147 -36 154 -11 2 -27 18 -36 36 -16 31 -16 35 4 71
19 34 24 38 45 30 13 -5 51 -9 85 -9z m273 -185 c4 -14 7 -68 8 -120 1 -124
-7 -135 -96 -116 -69 14 -90 28 -108 71 -10 23 -9 39 4 83 16 54 17 56 79 80
83 33 105 34 113 2z m-197 -195 l22 -40 -20 -34 c-12 -19 -28 -40 -37 -47 -9
-7 -31 -37 -49 -65 -19 -29 -43 -58 -54 -63 -35 -19 -83 -13 -112 15 -27 26
-27 26 -58 8 -30 -18 -31 -18 -46 1 -19 26 -20 109 -1 125 8 6 16 21 18 33 2
16 11 23 33 25 17 2 35 10 41 18 26 33 107 63 175 63 l65 1 23 -40z m132 -57
c20 -3 46 0 58 7 32 16 34 9 15 -39 -11 -29 -26 -46 -48 -55 -17 -8 -41 -23
-52 -34 -39 -37 -81 -125 -87 -181 -9 -75 -19 -85 -67 -61 -39 20 -75 58 -85
89 -7 23 59 142 119 216 25 31 46 61 46 67 0 7 12 8 33 3 17 -3 48 -9 68 -12z
m-561 -43 c0 -6 12 -15 26 -20 23 -9 26 -15 21 -45 -5 -30 0 -41 39 -88 24
-30 44 -61 44 -70 0 -32 -40 -47 -130 -47 -78 0 -90 3 -145 33 -57 32 -74 52
-89 104 -6 19 -2 24 21 29 36 9 74 33 92 58 32 43 52 56 86 56 19 0 35 -5 35
-10z m185 -155 c28 -22 39 -25 76 -19 36 5 42 4 32 -7 -31 -32 -3 -95 64 -140
l47 -33 -50 -43 c-75 -68 -98 -77 -152 -63 -38 9 -122 46 -122 53 1 46 25 127
45 153 l26 34 -21 30 c-18 25 -19 34 -10 45 17 20 26 19 65 -10z m-384 -66
c73 -48 108 -59 189 -59 92 0 96 -4 83 -72 -7 -33 -15 -46 -36 -56 -15 -8 -38
-33 -51 -60 -45 -87 -102 -123 -147 -90 -14 11 -44 22 -66 25 -33 4 -48 0 -97
-32 -62 -39 -158 -85 -179 -85 -20 1 -47 47 -63 107 -13 48 -13 58 0 72 8 9
16 27 18 40 1 13 14 32 28 43 25 19 26 18 75 -7 28 -15 54 -31 59 -36 12 -11
46 -12 46 -1 0 5 -11 19 -25 32 -14 13 -25 27 -25 31 0 9 60 29 97 32 25 2 28
6 25 32 -6 44 -30 97 -42 90 -6 -4 -10 4 -10 19 l0 25 48 -18 c27 -9 60 -24
73 -32z m282 -203 c9 -7 17 -24 17 -38 0 -13 11 -35 24 -47 l25 -23 -54 -45
c-62 -50 -70 -62 -80 -120 -4 -24 -12 -43 -19 -43 -12 0 -84 87 -106 130 -9
17 -10 25 -2 28 34 11 80 54 107 100 28 48 50 72 65 72 3 -1 13 -7 23 -14z
m-232 -162 c47 -45 47 -65 -2 -129 -40 -50 -47 -55 -83 -55 -25 0 -47 -7 -60
-19 -12 -10 -42 -23 -69 -29 -45 -9 -48 -9 -67 19 -11 15 -29 31 -40 34 -17 5
-50 61 -50 85 0 4 32 20 70 35 39 16 97 45 130 65 54 33 65 36 101 30 23 -4
53 -20 70 -36z m-41 -203 c0 -5 -9 -28 -19 -52 -11 -24 -17 -47 -14 -52 3 -5
21 -16 40 -24 26 -10 33 -18 28 -31 -30 -77 -7 -183 62 -283 l35 -51 -29 -30
c-26 -28 -31 -29 -88 -23 -66 7 -133 -12 -201 -59 l-35 -24 -51 34 c-27 19
-54 34 -59 34 -13 0 -11 91 3 131 6 19 25 57 43 84 43 69 47 83 27 94 -16 9
-15 11 1 28 22 25 22 33 -3 33 -11 0 -23 7 -27 16 -4 11 -14 14 -33 10 -23 -4
-29 -1 -32 19 -3 13 -2 28 1 34 9 13 170 72 203 73 15 1 37 12 49 25 16 16 34
23 61 23 21 0 38 -4 38 -9z"/>
<path d="M1808 5998 c-16 -13 -25 -43 -35 -111 -11 -78 45 -107 203 -107 44 0
89 -6 111 -15 21 -9 67 -15 113 -15 89 0 100 7 107 73 4 38 1 47 -36 93 -38
48 -92 85 -123 84 -7 -1 -31 -7 -52 -15 -35 -12 -50 -12 -134 6 -110 22 -133
23 -154 7z m150 -19 c93 -20 99 -21 145 -4 61 22 89 12 152 -56 49 -53 59 -95
29 -137 -13 -19 -24 -22 -85 -22 -39 0 -85 7 -106 15 -19 8 -59 15 -87 15
-172 1 -233 29 -222 100 14 97 19 105 64 109 7 0 56 -8 110 -20z"/>
<path d="M3477 5652 c-25 -28 -21 -68 11 -103 48 -54 96 -24 104 65 2 23 -3
33 -22 43 -36 18 -74 16 -93 -5z"/>
<path d="M3417 5389 c-60 -31 -81 -60 -75 -107 2 -14 12 -30 23 -36 11 -5 32
-18 48 -29 28 -18 29 -18 39 20 2 8 18 2 48 -17 25 -16 57 -31 70 -32 23 -3
25 0 22 31 -1 20 -14 47 -32 68 -29 32 -36 51 -42 103 -4 35 -32 35 -101 -1z
m95 -28 c4 -25 19 -56 38 -77 19 -22 30 -45 30 -65 l0 -31 -65 37 c-64 35 -85
38 -85 10 0 -10 -12 -6 -41 13 -36 23 -40 30 -35 56 3 16 11 35 17 42 14 17
111 64 124 60 5 -1 13 -22 17 -45z"/>
<path d="M2425 5310 c-15 -17 -16 -26 -7 -62 6 -24 8 -55 5 -70 -8 -42 13 -35
69 22 49 51 62 92 36 118 -19 19 -82 15 -103 -8z"/>
<path d="M3035 3241 c-48 -22 -65 -41 -75 -84 -4 -18 -12 -31 -20 -29 -7 1
-23 -4 -36 -13 -13 -8 -43 -15 -67 -15 -49 0 -72 -17 -57 -40 6 -8 10 -27 10
-42 0 -21 -10 -32 -46 -53 -25 -15 -67 -30 -92 -34 l-47 -7 47 -7 c38 -5 57
-2 102 19 44 20 64 24 99 19 42 -7 45 -5 100 48 54 52 72 62 142 83 25 8 30
15 33 46 2 26 -3 43 -16 56 -13 13 -16 24 -11 29 12 12 1 43 -15 42 -6 0 -29
-8 -51 -18z m55 -2 c0 -6 -4 -18 -10 -28 -7 -15 -4 -20 15 -29 19 -9 25 -19
25 -45 0 -32 -2 -34 -62 -52 -49 -15 -71 -28 -109 -69 l-48 -51 -65 0 c-55 0
-63 2 -50 12 16 12 20 38 12 88 -3 17 3 20 37 20 23 0 52 8 67 17 19 13 28 14
37 5 14 -14 31 6 31 35 0 36 26 71 65 89 48 21 55 22 55 8z"/>
</g>
</svg>
