<svg width="24" height="24" viewBox="0 0 24 24" fill="none" xmlns="http://www.w3.org/2000/svg">
<g id="Iconly/Light-Outline/Activity">
<g id="Activity">
<path id="Fill 1" fill-rule="evenodd" clip-rule="evenodd" d="M7.21653 16.0031C7.05653 16.0031 6.89553 15.9521 6.75953 15.8481C6.43153 15.5951 6.36953 15.1241 6.62253 14.7961L9.61553 10.9061C9.73753 10.7471 9.91853 10.6441 10.1165 10.6191C10.3185 10.5931 10.5165 10.6491 10.6735 10.7741L13.4935 12.9891L15.9605 9.80611C16.2145 9.47711 16.6845 9.41611 17.0125 9.67211C17.3405 9.92611 17.4005 10.3971 17.1465 10.7241L14.2165 14.5041C14.0945 14.6621 13.9145 14.7651 13.7165 14.7891C13.5165 14.8161 13.3185 14.7581 13.1605 14.6351L10.3425 12.4211L7.81153 15.7101C7.66353 15.9021 7.44153 16.0031 7.21653 16.0031Z" fill="#111111"/>
<g id="Group 5">
<mask id="mask0_29843_4407" style="mask-type:luminance" maskUnits="userSpaceOnUse" x="17" y="2" width="6" height="6">
<path id="Clip 4" fill-rule="evenodd" clip-rule="evenodd" d="M17.2949 2H22.6389V7.3449H17.2949V2Z" fill="white"/>
</mask>
<g mask="url(#mask0_29843_4407)">
<path id="Fill 3" fill-rule="evenodd" clip-rule="evenodd" d="M19.9669 3.5C19.3209 3.5 18.7949 4.025 18.7949 4.672C18.7949 5.318 19.3209 5.845 19.9669 5.845C20.6129 5.845 21.1389 5.318 21.1389 4.672C21.1389 4.025 20.6129 3.5 19.9669 3.5ZM19.9669 7.345C18.4939 7.345 17.2949 6.146 17.2949 4.672C17.2949 3.198 18.4939 2 19.9669 2C21.4409 2 22.6389 3.198 22.6389 4.672C22.6389 6.146 21.4409 7.345 19.9669 7.345Z" fill="#111111"/>
</g>
</g>
<g id="Group 8">
<mask id="mask1_29843_4407" style="mask-type:luminance" maskUnits="userSpaceOnUse" x="2" y="2" width="20" height="21">
<path id="Clip 7" fill-rule="evenodd" clip-rule="evenodd" d="M2 2.8418H21.8619V22.7028H2V2.8418Z" fill="white"/>
</mask>
<g mask="url(#mask1_29843_4407)">
<path id="Fill 6" fill-rule="evenodd" clip-rule="evenodd" d="M16.233 22.7028H7.629C4.262 22.7028 2 20.3378 2 16.8178V8.7358C2 5.2108 4.262 2.8418 7.629 2.8418H14.897C15.311 2.8418 15.647 3.1778 15.647 3.5918C15.647 4.0058 15.311 4.3418 14.897 4.3418H7.629C5.121 4.3418 3.5 6.0658 3.5 8.7358V16.8178C3.5 19.5228 5.082 21.2028 7.629 21.2028H16.233C18.741 21.2028 20.362 19.4818 20.362 16.8178V9.7788C20.362 9.3648 20.698 9.0288 21.112 9.0288C21.526 9.0288 21.862 9.3648 21.862 9.7788V16.8178C21.862 20.3378 19.6 22.7028 16.233 22.7028Z" fill="#111111"/>
</g>
</g>
</g>
</g>
</svg>
