<svg width="24" height="24" viewBox="0 0 24 24" fill="none" xmlns="http://www.w3.org/2000/svg">
<path d="M11.9993 16C11.7656 16.0004 11.5392 15.9191 11.3593 15.77L5.3593 10.77C5.15508 10.6002 5.02666 10.3563 5.00228 10.0919C4.9779 9.82747 5.05956 9.56419 5.2293 9.35997C5.39904 9.15575 5.64295 9.02733 5.90738 9.00295C6.1718 8.97857 6.43508 9.06023 6.6393 9.22997L11.9993 13.71L17.3593 9.38997C17.4616 9.3069 17.5793 9.24487 17.7056 9.20744C17.832 9.17001 17.9645 9.15792 18.0955 9.17186C18.2265 9.18579 18.3535 9.22549 18.4691 9.28866C18.5848 9.35184 18.6868 9.43724 18.7693 9.53997C18.8609 9.64279 18.9302 9.76342 18.973 9.89429C19.0158 10.0252 19.0311 10.1635 19.018 10.3005C19.0048 10.4376 18.9635 10.5705 18.8967 10.6908C18.8298 10.8112 18.7387 10.9164 18.6293 11L12.6293 15.83C12.4442 15.9555 12.2224 16.0153 11.9993 16Z" fill="#9CA4AB"/>
</svg>
