<svg width="24" height="24" viewBox="0 0 24 24" fill="none" xmlns="http://www.w3.org/2000/svg">
<path d="M18.9993 10.1703C18.9998 10.3197 18.9668 10.4673 18.9028 10.6023C18.8388 10.7373 18.7453 10.8562 18.6293 10.9503L12.6293 15.7803C12.4504 15.9274 12.2259 16.0078 11.9943 16.0078C11.7627 16.0078 11.5382 15.9274 11.3593 15.7803L5.3593 10.7803C5.15508 10.6106 5.02666 10.3667 5.00228 10.1022C4.9779 9.83782 5.05956 9.57454 5.2293 9.37032C5.39904 9.16611 5.64295 9.03768 5.90738 9.0133C6.1718 8.98892 6.43508 9.07059 6.6393 9.24032L11.9993 13.7103L17.3593 9.39033C17.5061 9.26804 17.6848 9.19036 17.8744 9.16649C18.0639 9.14261 18.2563 9.17352 18.4289 9.25558C18.6014 9.33763 18.7468 9.46739 18.8479 9.6295C18.949 9.79162 19.0015 9.97929 18.9993 10.1703Z" fill="#111111"/>
</svg>
