<svg width="24" height="24" viewBox="0 0 24 24" fill="none" xmlns="http://www.w3.org/2000/svg">
<path d="M12.5007 22.7499H4.0807C2.5107 22.7499 1.2207 21.4899 1.2207 19.9299V5.08994C1.2207 3.55994 1.7907 2.36994 2.8307 1.71994C3.8807 1.05994 5.2407 1.07994 6.6507 1.77994L11.0907 3.95994C12.3007 4.55994 13.2507 6.06994 13.2507 7.40994V21.9999C13.2507 22.4099 12.9107 22.7499 12.5007 22.7499ZM4.5607 2.74994C4.2107 2.74994 3.8907 2.82994 3.6207 2.99994C3.0407 3.35994 2.7207 4.10994 2.7207 5.08994V19.9299C2.7207 20.6599 3.3307 21.2499 4.0807 21.2499H11.7507V7.40994C11.7507 6.63994 11.1307 5.64994 10.4207 5.30994L5.9807 3.12994C5.4707 2.87994 4.9907 2.74994 4.5607 2.74994Z" fill="#111111"/>
<path d="M18.81 22.75H12.5C12.09 22.75 11.75 22.41 11.75 22V10.42C11.75 10.19 11.85 9.98002 12.03 9.84002C12.21 9.70002 12.43 9.64002 12.66 9.69002L13.13 9.79002L19.67 11.25C21.66 11.69 22.66 12.86 22.72 14.85C22.73 14.85 22.73 14.95 22.73 15.06V18.84C22.72 21.4 21.37 22.75 18.81 22.75ZM13.25 21.25H18.81C20.57 21.25 21.22 20.6 21.22 18.84V14.98C21.17 13.61 20.65 13 19.34 12.71L13.25 11.35V21.25Z" fill="#111111"/>
<path d="M8.97 9.75H5.5C5.09 9.75 4.75 9.41 4.75 9C4.75 8.59 5.09 8.25 5.5 8.25H8.97C9.38 8.25 9.72 8.59 9.72 9C9.72 9.41 9.39 9.75 8.97 9.75Z" fill="#111111"/>
<path d="M8.97 13.75H5.5C5.09 13.75 4.75 13.41 4.75 13C4.75 12.59 5.09 12.25 5.5 12.25H8.97C9.38 12.25 9.72 12.59 9.72 13C9.72 13.41 9.39 13.75 8.97 13.75Z" fill="#111111"/>
<path d="M15.2207 17.75C13.5707 17.75 12.2207 16.4 12.2207 14.75V10.52C12.2207 10.29 12.3207 10.08 12.5007 9.92998C12.6807 9.77998 12.9107 9.72998 13.1307 9.77998L17.6307 10.79C17.9707 10.87 18.2207 11.17 18.2207 11.52V14.74C18.2207 16.4 16.8807 17.75 15.2207 17.75ZM13.7207 11.46V14.75C13.7207 15.58 14.3907 16.25 15.2207 16.25C16.0507 16.25 16.7207 15.58 16.7207 14.75V12.13L13.7207 11.46Z" fill="#111111"/>
<path d="M19.7207 17.7499C18.0707 17.7499 16.7207 16.3999 16.7207 14.7499V11.5299C16.7207 11.2999 16.8207 11.0899 17.0007 10.9499C17.1807 10.8099 17.4107 10.7499 17.6307 10.7999L19.6607 11.2499C21.6507 11.6899 22.6507 12.8599 22.7107 14.8499C22.7107 14.8699 22.7107 14.8899 22.7107 14.9099C22.6307 16.4999 21.3207 17.7499 19.7207 17.7499ZM18.2207 12.4599V14.7499C18.2207 15.5799 18.8907 16.2499 19.7207 16.2499C20.5107 16.2499 21.1607 15.6399 21.2107 14.8599C21.1607 13.5999 20.6407 12.9999 19.3407 12.7099L18.2207 12.4599Z" fill="#111111"/>
</svg>
