<svg width="34" height="34" viewBox="0 0 34 34" fill="none" xmlns="http://www.w3.org/2000/svg">
<g clip-path="url(#clip0_29843_3745)">
<path fill-rule="evenodd" clip-rule="evenodd" d="M27.3097 16.504C27.3083 16.5054 27.3069 16.4333 27.3076 16.3449C27.3126 16.0076 27.321 15.3076 26.6012 14.5806C25.595 13.5631 23.0508 12.3498 16.6437 12.3505C10.267 12.3519 7.71792 13.5547 6.70393 14.5687L6.68908 14.5835C5.96924 15.3104 5.97914 16.0104 5.98268 16.3477C5.98409 16.451 5.98126 16.5302 5.97631 16.5832C5.98056 17.996 6.14744 18.8841 6.48894 19.2186C6.83898 19.5587 7.6762 19.5375 8.83373 19.5085C9.20214 19.4993 9.60236 19.4894 10.0351 19.4894C11.1552 19.488 11.3376 19.1146 11.7336 18.2887C12.2823 17.1475 13.0389 15.5848 16.643 15.5855C20.2507 15.5841 21.0052 17.1461 21.5546 18.2866C21.952 19.1111 22.133 19.4873 23.2559 19.4873C23.695 19.4866 24.1002 19.4972 24.4728 19.5064C25.6233 19.5354 26.4541 19.5573 26.802 19.2193L26.8077 19.2136C27.1464 18.8749 27.3104 17.9868 27.3104 16.4976C27.3104 16.5019 27.3104 16.5033 27.3097 16.504ZM5.64256 13.5087C7.40467 11.7466 11.105 10.8521 16.643 10.8507C22.203 10.85 25.9125 11.7494 27.6676 13.5256C28.8279 14.6988 28.8137 15.9079 28.8081 16.3619C28.8109 16.3887 28.8102 16.4701 28.8102 16.4983C28.8109 18.527 28.5373 19.6209 27.8494 20.2935C27.0488 21.0726 25.8955 21.0436 24.4353 21.0062C24.074 20.997 23.6816 20.9864 23.2566 20.9871C21.1918 20.9871 20.6438 19.8507 20.204 18.9386C19.7239 17.9437 19.3102 17.0845 16.643 17.0845C13.9744 17.086 13.5607 17.9451 13.0856 18.9393C12.645 19.8522 12.1006 20.9878 10.0344 20.9892C9.61579 20.9892 9.2283 20.9991 8.8705 21.0076C7.40326 21.045 6.24431 21.074 5.44232 20.2921C4.75868 19.6252 4.48079 18.527 4.48008 16.5012L5.23244 16.3569L4.48291 16.3654C4.47725 15.9114 4.46169 14.7023 5.62276 13.5285L5.64256 13.5087Z" fill="#FEFEFE"/>
</g>
<defs>
<clipPath id="clip0_29843_3745">
<rect width="24" height="24" fill="white" transform="translate(33.9707 17) rotate(135)"/>
</clipPath>
</defs>
</svg>
