<svg width="50" height="50" viewBox="0 0 50 50" fill="none" xmlns="http://www.w3.org/2000/svg">
<g clip-path="url(#clip0_29843_3819)">
<path fill-rule="evenodd" clip-rule="evenodd" d="M40.0354 24.2769C40.0334 24.279 40.0313 24.1738 40.0323 24.0449C40.0395 23.553 40.0519 22.5322 39.0022 21.472C37.5348 19.9882 33.8245 18.2187 24.4808 18.2197C15.1815 18.2217 11.464 19.9758 9.9853 21.4545L9.96364 21.4762C8.91389 22.5363 8.92832 23.5572 8.93348 24.049C8.93554 24.1996 8.93142 24.3151 8.9242 24.3924C8.93039 26.4528 9.17375 27.7479 9.67178 28.2357C10.1823 28.7317 11.4032 28.7008 13.0913 28.6585C13.6285 28.6451 14.2122 28.6307 14.8433 28.6307C16.4767 28.6286 16.7427 28.0841 17.3202 26.8797C18.1204 25.2153 19.2238 22.9364 24.4798 22.9374C29.741 22.9353 30.8413 25.2133 31.6425 26.8766C32.222 28.079 32.486 28.6276 34.1236 28.6276C34.7639 28.6265 35.3548 28.642 35.8983 28.6554C37.576 28.6977 38.7877 28.7296 39.295 28.2367L39.3033 28.2285C39.7972 27.7345 40.0365 26.4394 40.0365 24.2677C40.0365 24.2738 40.0365 24.2759 40.0354 24.2769ZM8.43747 19.9088C11.0072 17.339 16.4035 16.0346 24.4798 16.0325C32.5881 16.0315 37.9978 17.3432 40.5573 19.9334C42.2494 21.6443 42.2288 23.4076 42.2205 24.0697C42.2247 24.1089 42.2236 24.2274 42.2236 24.2687C42.2247 27.2272 41.8256 28.8225 40.8224 29.8033C39.6549 30.9395 37.973 30.8972 35.8436 30.8426C35.3167 30.8292 34.7444 30.8137 34.1246 30.8147C31.1135 30.8147 30.3143 29.1576 29.6729 27.8274C28.9727 26.3765 28.3695 25.1235 24.4798 25.1235C20.5881 25.1256 19.9848 26.3785 19.2919 27.8284C18.6494 29.1597 17.8554 30.8158 14.8422 30.8178C14.2318 30.8178 13.6667 30.8323 13.1449 30.8446C11.0052 30.8993 9.31502 30.9416 8.14546 29.8013C7.14848 28.8286 6.74322 27.2272 6.74219 24.2728L7.83938 24.0624L6.74631 24.0748C6.73806 23.4128 6.71537 21.6494 8.4086 19.9377L8.43747 19.9088Z" fill="#FEFEFE"/>
</g>
<defs>
<clipPath id="clip0_29843_3819">
<rect width="35" height="35" fill="white" transform="translate(49.75 25) rotate(135)"/>
</clipPath>
</defs>
</svg>
