<svg width="23" height="24" viewBox="0 0 23 24" fill="none" xmlns="http://www.w3.org/2000/svg">
<path d="M11.5864 9C10.1454 9 8.92773 10.374 8.92773 12C8.92773 13.626 10.1454 15 11.5864 15C13.0274 15 14.2451 13.626 14.2451 12C14.2451 10.374 13.0274 9 11.5864 9Z" fill="#111111"/>
<path d="M18.6748 5H16.383L13.9839 2.293C13.9018 2.19996 13.8041 2.12617 13.6966 2.07589C13.5891 2.0256 13.4738 1.99981 13.3574 2H9.81248C9.69608 1.99981 9.58079 2.0256 9.47326 2.07589C9.36573 2.12617 9.26807 2.19996 9.18591 2.293L6.7869 5H4.49511C3.5176 5 2.72266 5.897 2.72266 7V18C2.72266 19.103 3.5176 20 4.49511 20H18.6748C19.6523 20 20.4472 19.103 20.4472 18V7C20.4472 5.897 19.6523 5 18.6748 5ZM11.5849 17C9.18325 17 7.15379 14.71 7.15379 12C7.15379 9.29 9.18325 7 11.5849 7C13.9866 7 16.0161 9.29 16.0161 12C16.0161 14.71 13.9866 17 11.5849 17Z" fill="#111111"/>
</svg>
