<svg width="18" height="18" viewBox="0 0 18 18" fill="none" xmlns="http://www.w3.org/2000/svg">
<g clip-path="url(#clip0_29843_4639)">
<path d="M14.5492 5.50514L12.4942 3.45014C12.226 3.19821 11.8746 3.05366 11.5067 3.04398C11.1389 3.0343 10.7803 3.16016 10.4992 3.39764L3.74925 10.1476C3.50682 10.3921 3.35587 10.7125 3.32175 11.0551L2.99925 14.1826C2.98914 14.2925 3.0034 14.4032 3.04099 14.5069C3.07859 14.6106 3.1386 14.7048 3.21675 14.7826C3.28683 14.8521 3.36994 14.9071 3.46132 14.9445C3.55269 14.9818 3.65054 15.0007 3.74925 15.0001H3.81675L6.94425 14.7151C7.28684 14.681 7.60727 14.5301 7.85175 14.2876L14.6017 7.53764C14.8637 7.26086 15.0053 6.89152 14.9955 6.51054C14.9856 6.12956 14.8252 5.76802 14.5492 5.50514ZM11.9992 8.01014L9.98925 6.00014L11.4517 4.50014L13.4992 6.54764L11.9992 8.01014Z" fill="white"/>
</g>
<defs>
<clipPath id="clip0_29843_4639">
<rect width="18" height="18" fill="white"/>
</clipPath>
</defs>
</svg>
