<svg width="24" height="24" viewBox="0 0 24 24" fill="none" xmlns="http://www.w3.org/2000/svg">
<path d="M11.963 4C14.0059 4 16.1859 4.87833 18.1468 6.75853C19.5958 8.148 20.8498 9.93413 21.9097 12.1101C22.0197 12.3345 22.0297 12.6077 21.9367 12.8411C20.9488 15.3345 19.6418 17.2407 18.0158 18.5441C15.9399 20.2067 13.7489 21 11.999 21C10.026 21 8.26503 20.405 6.25907 18.6268C4.68211 17.2305 3.29514 15.339 2.09516 12.9601C2.03656 12.8437 2.00401 12.7128 2.00035 12.5789C1.99669 12.4449 2.02203 12.312 2.07416 12.1917C2.80815 10.4997 3.92512 8.8484 5.42109 7.23113C7.43805 5.05173 9.833 4 11.963 4ZM11.999 7.86013C9.851 7.86013 8.10903 9.89107 8.10903 12.3969C8.10903 14.9015 9.851 16.9325 11.999 16.9325C14.1479 16.9325 15.8889 14.9015 15.8889 12.3969C15.8889 9.8922 14.1479 7.86013 12 7.86013H11.999ZM11.999 9.46153C13.3889 9.46153 14.5159 10.7762 14.5159 12.3969C14.5159 14.0175 13.3889 15.3322 11.999 15.3322C10.609 15.3322 9.48201 14.0175 9.48201 12.3969C9.48201 10.7762 10.609 9.46153 11.999 9.46153Z" fill="#9CA4AB"/>
</svg>
