<svg width="23" height="24" viewBox="0 0 23 24" fill="none" xmlns="http://www.w3.org/2000/svg">
<path d="M2.86888 19.551C3.03372 19.831 3.31111 20 3.60888 20H16.9023C17.2568 20 17.5776 19.762 17.7167 19.394L20.3754 12.394C20.4337 12.2419 20.4575 12.0759 20.4447 11.9109C20.4318 11.7458 20.3828 11.587 20.302 11.4487C20.2212 11.3104 20.1111 11.1969 19.9818 11.1186C19.8524 11.0403 19.7078 10.9995 19.561 11H18.6748V8C18.6748 6.897 17.8798 6 16.9023 6H11.0045L8.73925 4H4.49511C3.5176 4 2.72266 4.897 2.72266 6V19H2.72886C2.72688 19.1951 2.77556 19.3867 2.86888 19.551ZM16.9023 8V11H6.26757C5.91308 11 5.59226 11.238 5.45312 11.606L4.49511 14.129V8H16.9023Z" fill="#111111"/>
</svg>
