<svg width="24" height="24" viewBox="0 0 24 24" fill="none" xmlns="http://www.w3.org/2000/svg">
<path d="M8.28002 2.50052C8.91002 2.51968 9.52002 2.62968 10.111 2.83068H10.17C10.21 2.84968 10.24 2.87068 10.26 2.88968C10.481 2.96068 10.69 3.04068 10.89 3.15068L11.27 3.32068C11.42 3.40068 11.6 3.54968 11.7 3.61068C11.8 3.66968 11.91 3.73068 12 3.79968C13.111 2.95068 14.46 2.49068 15.85 2.50052C16.481 2.50052 17.111 2.58968 17.71 2.79068C21.401 3.99068 22.731 8.04068 21.62 11.5807C20.99 13.3897 19.96 15.0407 18.611 16.3897C16.68 18.2597 14.561 19.9197 12.28 21.3497L12.03 21.5007L11.77 21.3397C9.48102 19.9197 7.35002 18.2597 5.40102 16.3797C4.06102 15.0307 3.03002 13.3897 2.39002 11.5807C1.26002 8.04068 2.59002 3.99068 6.32102 2.76968C6.61102 2.66968 6.91002 2.59968 7.21002 2.56068H7.33002C7.61102 2.51968 7.89002 2.50052 8.17002 2.50052H8.28002ZM17.19 5.66068C16.78 5.51968 16.33 5.74068 16.18 6.16068C16.04 6.58068 16.26 7.04068 16.68 7.18968C17.321 7.42968 17.75 8.06068 17.75 8.75968V8.79068C17.731 9.01968 17.8 9.24068 17.94 9.41068C18.08 9.58068 18.29 9.67968 18.51 9.70068C18.92 9.68968 19.27 9.36068 19.3 8.93968V8.82068C19.33 7.41968 18.481 6.15068 17.19 5.66068Z" fill="#E53935"/>
</svg>
