<svg width="16" height="16" viewBox="0 0 16 16" fill="none" xmlns="http://www.w3.org/2000/svg">
<path d="M7.87494 3.01548C7.15989 2.35799 6.22395 1.99307 5.25257 1.99304C4.73842 1.99358 4.22946 2.09578 3.75496 2.29378C3.28047 2.49178 2.84982 2.78165 2.48779 3.14673C0.943629 4.69745 0.944285 7.12295 2.4891 8.6671L7.30072 13.4787C7.41229 13.6749 7.62754 13.8016 7.87494 13.8016C7.97653 13.8006 8.07647 13.7758 8.16673 13.7292C8.257 13.6826 8.33508 13.6155 8.39469 13.5332L13.2608 8.6671C14.8056 7.12229 14.8056 4.69745 13.2595 3.1441C12.8976 2.7797 12.4673 2.49041 11.9933 2.29287C11.5193 2.09533 11.0109 1.99344 10.4973 1.99304C9.52595 1.9932 8.59006 2.3581 7.87494 3.01548ZM12.3315 4.07204C13.3573 5.10301 13.3579 6.71345 12.3328 7.73917L7.87494 12.1971L3.41704 7.73917C2.39197 6.71345 2.39263 5.10301 3.41572 4.07467C3.91447 3.57854 4.56679 3.30554 5.25257 3.30554C5.93835 3.30554 6.58804 3.57854 7.08285 4.07335L7.41097 4.40148C7.47187 4.46247 7.54419 4.51087 7.6238 4.54388C7.70341 4.5769 7.78875 4.59389 7.87494 4.59389C7.96113 4.59389 8.04647 4.5769 8.12608 4.54388C8.2057 4.51087 8.27802 4.46247 8.33891 4.40148L8.66704 4.07335C9.65929 3.08307 11.3406 3.0857 12.3315 4.07204Z" fill="#111111"/>
</svg>
