<svg width="25" height="24" viewBox="0 0 25 24" fill="none" xmlns="http://www.w3.org/2000/svg">
<g clip-path="url(#clip0_29522_1860)">
<g clip-path="url(#clip1_29522_1860)">
<path d="M24.3068 10.141C24.4135 10.141 24.5 10.2275 24.5 10.3342V12.3623C24.5 13.1214 24.4295 13.8636 24.2942 14.5836C23.2481 20.1762 18.3211 24.4027 12.4154 24.362C5.7887 24.3163 0.485358 18.962 0.50003 12.3353C0.514608 5.7204 5.8817 0.362305 12.5 0.362305C15.7425 0.362305 18.6844 1.64865 20.8444 3.73815C20.9224 3.81357 20.9244 3.93788 20.8477 4.01457L17.9784 6.88384C17.9045 6.95771 17.7852 6.95963 17.7095 6.88759C16.3538 5.59716 14.5196 4.80493 12.5 4.80493C8.32947 4.80493 4.97111 8.13943 4.9428 12.3099C4.91434 16.5076 8.30884 19.9196 12.5 19.9196C15.9005 19.9196 18.7767 17.6732 19.7251 14.5836H12.6932C12.5865 14.5836 12.5 14.4971 12.5 14.3904V10.3341C12.5 10.2274 12.5865 10.1409 12.6932 10.1409H24.3068V10.141Z" fill="#2196F3"/>
<path d="M24.3073 10.141H22.8587C22.9653 10.141 23.0518 10.2275 23.0518 10.3342V12.3623C23.0518 13.1214 22.9813 13.8636 22.8461 14.5836C21.8481 19.919 17.3178 24.011 11.7754 24.3406C11.9875 24.3532 12.2009 24.3605 12.4159 24.362C18.3217 24.4027 23.2487 20.1762 24.2948 14.5836C24.43 13.8636 24.5005 13.1214 24.5005 12.3623V10.3341C24.5005 10.2275 24.414 10.141 24.3073 10.141Z" fill="#1E88E5"/>
<path d="M5.63663 9.1974L1.99219 6.56415C4.03678 2.86613 7.97672 0.362305 12.501 0.362305C15.7435 0.362305 18.6855 1.64865 20.8454 3.73815C20.9234 3.81357 20.9254 3.93788 20.8487 4.01457L17.9794 6.88384C17.9057 6.95757 17.7863 6.95987 17.7108 6.88796C16.3552 5.5973 14.5208 4.80498 12.501 4.80498C9.45731 4.80498 6.83372 6.60423 5.63663 9.1974Z" fill="#F44336"/>
<path d="M4.58398 8.43725L5.63609 9.19742C6.72875 6.83051 9.01006 5.12585 11.7143 4.84624C11.7346 4.84404 11.7542 4.84137 11.7749 4.8394C11.5369 4.81681 11.2957 4.80499 11.0518 4.80499C8.30225 4.80499 5.906 6.25451 4.58398 8.43725Z" fill="#E53935"/>
<path d="M19.3956 3.73815C19.4736 3.81357 19.4756 3.93788 19.3989 4.01462L17.07 6.34351C17.2931 6.5132 17.5067 6.6947 17.7093 6.88763C17.785 6.95968 17.9044 6.95776 17.9783 6.88388L20.8475 4.01462C20.9243 3.93788 20.9222 3.81362 20.8442 3.73815C18.6843 1.64865 15.7423 0.362305 12.4998 0.362305C12.2565 0.362305 12.0151 0.370414 11.7754 0.384711C14.7304 0.560727 17.3976 1.8054 19.3956 3.73815Z" fill="#E53935"/>
<path d="M21.3017 20.5175C19.1103 22.8822 15.9773 24.3623 12.499 24.3623C7.80089 24.3623 3.73345 21.6625 1.76367 17.7292L5.48438 15.1795C6.60089 17.9576 9.32105 19.9196 12.499 19.9196C14.4933 19.9196 16.3071 19.147 17.6573 17.8847L21.3017 20.5175Z" fill="#4CAF50"/>
<path d="M5.48583 15.1796L4.38867 15.9314C5.66297 18.3053 8.16886 19.9197 11.0517 19.9197C11.2955 19.9197 11.5365 19.9077 11.7744 19.8852C8.91272 19.6123 6.51623 17.7436 5.48583 15.1796Z" fill="#43A047"/>
<path d="M12.4999 24.3623C15.9782 24.3623 19.1112 22.8822 21.3026 20.5175L20.41 19.8726C18.3524 22.4334 15.2656 24.1322 11.7773 24.3405C12.0164 24.3547 12.2573 24.3623 12.4999 24.3623Z" fill="#43A047"/>
<path d="M4.94267 12.3623C4.94267 13.358 5.13533 14.3089 5.48544 15.1795L1.76469 17.7292C0.955391 16.1144 0.5 14.2915 0.5 12.3623C0.5 10.2593 1.04084 8.28277 1.99119 6.56415L5.63562 9.1974C5.19088 10.1598 4.94267 11.2323 4.94267 12.3623Z" fill="#FFC107"/>
<path d="M4.38846 15.9314L5.48562 15.1795C5.13551 14.3089 4.94285 13.358 4.94285 12.3623C4.94285 11.2323 5.19105 10.1598 5.6358 9.19737L4.58369 8.43719C3.90049 9.56524 3.50398 10.8889 3.49432 12.3099C3.48541 13.6202 3.81012 14.854 4.38846 15.9314Z" fill="#FFB300"/>
</g>
</g>
<defs>
<clipPath id="clip0_29522_1860">
<rect width="24" height="24" fill="white" transform="translate(0.5)"/>
</clipPath>
<clipPath id="clip1_29522_1860">
<rect width="24" height="24" fill="white" transform="translate(0.5 0.362305)"/>
</clipPath>
</defs>
</svg>
