<svg width="25" height="24" viewBox="0 0 25 24" fill="none" xmlns="http://www.w3.org/2000/svg">
<g clip-path="url(#clip0_29522_1877)">
<path d="M19.0759 13.453C18.4157 10.1305 21.5693 8.18184 21.5693 8.18184C21.5693 8.18184 20.3406 6.4042 18.2756 5.94688C16.2117 5.48857 15.1787 6.06119 14.1477 6.49067C13.1157 6.92119 12.6008 6.92119 12.6008 6.92119C11.1115 6.92119 10.0228 5.34437 7.18542 6.06224C5.23064 6.55555 3.17282 8.81214 2.80102 11.5054C2.42922 14.1997 3.23155 17.6376 4.77848 20.302C6.32541 22.9685 7.90123 23.9706 9.01969 23.9994C10.1382 24.0272 11.2546 23.1981 12.6008 22.9963C13.9479 22.7964 14.777 23.4845 16.0984 23.8563C17.4146 24.2271 17.876 23.8831 19.392 22.5936C20.9122 21.3041 22.2882 17.6057 22.2882 17.6057C22.2882 17.6057 19.736 16.7776 19.0759 13.453Z" fill="#111111"/>
<path d="M16.1533 3.79731C17.6157 2.30705 17.1204 0 17.1204 0C17.1204 0 15.0667 0.360484 13.6907 1.79206C12.3158 3.22469 12.5434 5.48743 12.5434 5.48743C12.5434 5.48743 14.6908 5.28661 16.1533 3.79731Z" fill="#111111"/>
</g>
<defs>
<clipPath id="clip0_29522_1877">
<rect width="24" height="24" fill="white" transform="translate(0.5)"/>
</clipPath>
</defs>
</svg>
