<svg width="24" height="24" viewBox="0 0 24 24" fill="none" xmlns="http://www.w3.org/2000/svg">
<path fill-rule="evenodd" clip-rule="evenodd" d="M12.25 2C16.799 2 20.5 5.729 20.5 10.313C20.5 15.948 14.044 21.5 12.25 21.5C10.456 21.5 4 15.948 4 10.313C4 5.729 7.701 2 12.25 2ZM12.25 3.5C8.528 3.5 5.5 6.557 5.5 10.313C5.5 15.092 11.124 19.748 12.25 19.996C13.376 19.747 19 15.091 19 10.313C19 6.557 15.972 3.5 12.25 3.5ZM12.251 7C14.043 7 15.501 8.458 15.501 10.251C15.501 12.043 14.043 13.5 12.251 13.5C10.459 13.5 9.001 12.043 9.001 10.251C9.001 8.458 10.459 7 12.251 7ZM12.251 8.5C11.286 8.5 10.501 9.285 10.501 10.251C10.501 11.216 11.286 12 12.251 12C13.216 12 14.001 11.216 14.001 10.251C14.001 9.285 13.216 8.5 12.251 8.5Z" fill="#111111"/>
</svg>
