<svg width="24" height="24" viewBox="0 0 24 24" fill="none" xmlns="http://www.w3.org/2000/svg">
<path fill-rule="evenodd" clip-rule="evenodd" d="M12.3747 2C14.6307 2 16.6447 3.433 17.3837 5.567C17.5197 5.958 17.3117 6.385 16.9197 6.521C16.5287 6.658 16.1017 6.449 15.9657 6.057C15.4367 4.528 13.9917 3.5 12.3717 3.5H12.3577C10.2657 3.5 8.5617 5.194 8.5527 7.284L8.552 8.626L16.184 8.6267C18.688 8.6267 20.726 10.6647 20.726 13.1697V17.4577C20.726 19.9627 18.688 22.0007 16.184 22.0007H8.542C6.037 22.0007 4 19.9627 4 17.4577V13.1697C4 11.1863 5.277 9.49568 7.05221 8.87761L7.0527 7.301C7.0657 4.363 9.4417 2 12.3547 2H12.3747ZM16.184 10.1267H8.542C6.864 10.1267 5.5 11.4917 5.5 13.1697V17.4577C5.5 19.1357 6.864 20.5007 8.542 20.5007H16.184C17.861 20.5007 19.226 19.1357 19.226 17.4577V13.1697C19.226 11.4917 17.861 10.1267 16.184 10.1267ZM12.3633 13.4525C12.7773 13.4525 13.1133 13.7885 13.1133 14.2025V16.4245C13.1133 16.8385 12.7773 17.1745 12.3633 17.1745C11.9493 17.1745 11.6133 16.8385 11.6133 16.4245V14.2025C11.6133 13.7885 11.9493 13.4525 12.3633 13.4525Z" fill="#111111"/>
</svg>
