<svg width="24" height="24" viewBox="0 0 24 24" fill="none" xmlns="http://www.w3.org/2000/svg">
<path d="M17.7064 12.293C17.6136 12.2 17.5034 12.1263 17.382 12.076C17.2607 12.0257 17.1307 11.9998 16.9994 11.9998C16.868 11.9998 16.738 12.0257 16.6167 12.076C16.4953 12.1263 16.3851 12.2 16.2924 12.293L14.6984 13.887C13.9594 13.667 12.5804 13.167 11.7064 12.293C10.8324 11.419 10.3324 10.04 10.1124 9.30096L11.7064 7.70696C11.7993 7.61417 11.873 7.50397 11.9234 7.38265C11.9737 7.26134 11.9996 7.13129 11.9996 6.99996C11.9996 6.86862 11.9737 6.73858 11.9234 6.61726C11.873 6.49595 11.7993 6.38575 11.7064 6.29296L7.70636 2.29296C7.61357 2.20001 7.50337 2.12627 7.38205 2.07596C7.26074 2.02565 7.13069 1.99976 6.99936 1.99976C6.86802 1.99976 6.73798 2.02565 6.61666 2.07596C6.49535 2.12627 6.38515 2.20001 6.29236 2.29296L3.58036 5.00496C3.20036 5.38496 2.98636 5.90696 2.99436 6.43996C3.01736 7.86396 3.39436 12.81 7.29236 16.708C11.1904 20.606 16.1364 20.982 17.5614 21.006H17.5894C18.1174 21.006 18.6164 20.798 18.9944 20.42L21.7064 17.708C21.7993 17.6152 21.873 17.505 21.9234 17.3837C21.9737 17.2623 21.9996 17.1323 21.9996 17.001C21.9996 16.8696 21.9737 16.7396 21.9234 16.6183C21.873 16.4969 21.7993 16.3867 21.7064 16.294L17.7064 12.293ZM17.5794 19.005C16.3314 18.984 12.0614 18.649 8.70636 15.293C5.34036 11.927 5.01436 7.64196 4.99436 6.41896L6.99936 4.41396L9.58536 6.99996L8.29236 8.29296C8.17482 8.41041 8.0884 8.55529 8.04091 8.71453C7.99342 8.87376 7.98636 9.04231 8.02036 9.20496C8.04436 9.31996 8.63136 12.047 10.2914 13.707C11.9514 15.367 14.6784 15.954 14.7934 15.978C14.9559 16.0129 15.1246 16.0064 15.284 15.9591C15.4434 15.9117 15.5883 15.825 15.7054 15.707L16.9994 14.414L19.5854 17L17.5794 19.005Z" fill="#111111"/>
</svg>
