<svg width="32" height="32" viewBox="0 0 32 32" fill="none" xmlns="http://www.w3.org/2000/svg">
<path fill-rule="evenodd" clip-rule="evenodd" d="M21.9153 1.3335C26.7513 1.3335 30.0006 4.72816 30.0006 9.78016V21.5535C30.0006 26.6055 26.7513 30.0002 21.9153 30.0002H9.41932C4.58332 30.0002 1.33398 26.6055 1.33398 21.5535V9.78016C1.33398 4.72816 4.58332 1.3335 9.41932 1.3335H21.9153ZM21.9153 3.3335H9.41932C5.72332 3.3335 3.33398 5.86283 3.33398 9.78016V21.5535C3.33398 25.4708 5.72332 28.0002 9.41932 28.0002H21.9153C25.6126 28.0002 28.0006 25.4708 28.0006 21.5535V9.78016C28.0006 5.86283 25.6126 3.3335 21.9153 3.3335ZM15.6673 9.7699C16.2193 9.7699 16.6673 10.2179 16.6673 10.7699V14.6535L20.556 14.6538C21.108 14.6538 21.556 15.1018 21.556 15.6538C21.556 16.2058 21.108 16.6538 20.556 16.6538L16.6673 16.6535V20.5392C16.6673 21.0912 16.2193 21.5392 15.6673 21.5392C15.1153 21.5392 14.6673 21.0912 14.6673 20.5392V16.6535L10.7787 16.6538C10.2253 16.6538 9.77865 16.2058 9.77865 15.6538C9.77865 15.1018 10.2253 14.6538 10.7787 14.6538L14.6673 14.6535V10.7699C14.6673 10.2179 15.1153 9.7699 15.6673 9.7699Z" fill="#78828A"/>
</svg>
