<svg width="24" height="25" viewBox="0 0 24 25" fill="none" xmlns="http://www.w3.org/2000/svg">
<g clip-path="url(#clip0_29843_4393)">
<path d="M12 2.07617C10.0222 2.07617 8.08879 2.66266 6.4443 3.76148C4.79981 4.86029 3.51809 6.42208 2.76121 8.24934C2.00433 10.0766 1.8063 12.0873 2.19215 14.0271C2.578 15.9669 3.53041 17.7487 4.92894 19.1472C6.32746 20.5458 8.10929 21.4982 10.0491 21.884C11.9889 22.2699 13.9996 22.0718 15.8268 21.315C17.6541 20.5581 19.2159 19.2764 20.3147 17.6319C21.4135 15.9874 22 14.054 22 12.0762C22 10.763 21.7413 9.46259 21.2388 8.24934C20.7363 7.03608 19.9997 5.93369 19.0711 5.0051C18.1425 4.07652 17.0401 3.33992 15.8268 2.83738C14.6136 2.33483 13.3132 2.07617 12 2.07617ZM12 20.0762C10.4178 20.0762 8.87104 19.607 7.55544 18.7279C6.23985 17.8489 5.21447 16.5994 4.60897 15.1376C4.00347 13.6758 3.84504 12.0673 4.15372 10.5154C4.4624 8.9636 5.22433 7.53814 6.34315 6.41932C7.46197 5.3005 8.88743 4.53857 10.4393 4.22989C11.9911 3.92121 13.5997 4.07963 15.0615 4.68514C16.5233 5.29064 17.7727 6.31602 18.6518 7.63161C19.5308 8.9472 20 10.4939 20 12.0762C20 14.1979 19.1572 16.2327 17.6569 17.733C16.1566 19.2333 14.1217 20.0762 12 20.0762Z" fill="#111111"/>
<path d="M12 6.07624C11.0717 6.07624 10.1815 6.44499 9.52513 7.10137C8.86875 7.75774 8.5 8.64798 8.5 9.57624C8.5 9.84146 8.60536 10.0958 8.79289 10.2833C8.98043 10.4709 9.23478 10.5762 9.5 10.5762C9.76522 10.5762 10.0196 10.4709 10.2071 10.2833C10.3946 10.0958 10.5 9.84146 10.5 9.57624C10.5 9.27957 10.588 8.98956 10.7528 8.74288C10.9176 8.49621 11.1519 8.30395 11.426 8.19042C11.7001 8.07689 12.0017 8.04718 12.2926 8.10506C12.5836 8.16294 12.8509 8.3058 13.0607 8.51558C13.2704 8.72536 13.4133 8.99263 13.4712 9.2836C13.5291 9.57457 13.4994 9.87618 13.3858 10.1503C13.2723 10.4244 13.08 10.6586 12.8334 10.8234C12.5867 10.9883 12.2967 11.0762 12 11.0762C11.7348 11.0762 11.4804 11.1816 11.2929 11.3691C11.1054 11.5567 11 11.811 11 12.0762V14.0762C11 14.3415 11.1054 14.5958 11.2929 14.7833C11.4804 14.9709 11.7348 15.0762 12 15.0762C12.2652 15.0762 12.5196 14.9709 12.7071 14.7833C12.8946 14.5958 13 14.3415 13 14.0762V12.9162C13.8081 12.6802 14.5037 12.1601 14.9585 11.4517C15.4133 10.7433 15.5967 9.89431 15.4749 9.0613C15.3532 8.2283 14.9344 7.46739 14.2958 6.91883C13.6572 6.37026 12.8418 6.07101 12 6.07624Z" fill="#111111"/>
<path d="M12 18.0762C12.5523 18.0762 13 17.6285 13 17.0762C13 16.5239 12.5523 16.0762 12 16.0762C11.4477 16.0762 11 16.5239 11 17.0762C11 17.6285 11.4477 18.0762 12 18.0762Z" fill="#111111"/>
</g>
<defs>
<clipPath id="clip0_29843_4393">
<rect width="24" height="24" fill="white" transform="translate(0 0.0761719)"/>
</clipPath>
</defs>
</svg>
