<svg width="24" height="24" viewBox="0 0 24 24" fill="none" xmlns="http://www.w3.org/2000/svg">
<path fill-rule="evenodd" clip-rule="evenodd" d="M12.4829 2C13.6159 2 19.5609 4.041 20.3479 4.828C21.0039 5.484 20.9939 6.014 20.9479 8.554C20.9299 9.572 20.9049 10.959 20.9049 12.879C20.9049 19.761 13.0349 22.223 12.6999 22.324C12.6289 22.346 12.5559 22.356 12.4829 22.356C12.4099 22.356 12.3369 22.346 12.2659 22.324C11.9309 22.223 4.06089 19.761 4.06089 12.879C4.06089 10.962 4.03589 9.575 4.01789 8.557C4.00968 8.10289 4.00261 7.71298 4.00028 7.37507L4 6.99377C4.00858 5.74113 4.12614 5.32 4.61889 4.828C5.40389 4.041 11.3489 2 12.4829 2ZM12.4829 3.5C11.6349 3.5 6.28489 5.384 5.66789 5.899C5.48589 6.082 5.47889 6.4 5.51789 8.529C5.53589 9.555 5.56089 10.949 5.56089 12.879C5.56089 18.08 11.2829 20.389 12.4819 20.814C13.6799 20.387 19.4049 18.065 19.4049 12.879C19.4049 10.947 19.4299 9.552 19.4489 8.526C19.4869 6.399 19.4799 6.081 19.2869 5.889C18.6819 5.384 13.3309 3.5 12.4829 3.5ZM16.2044 9.3395C16.4974 9.6325 16.4974 10.1075 16.2044 10.4005L12.3064 14.2995C12.1944 14.4123 12.0498 14.4854 11.8945 14.5102L11.7764 14.5195C11.5774 14.5195 11.3864 14.4405 11.2454 14.2995L9.35339 12.4055C9.06139 12.1125 9.06139 11.6365 9.35439 11.3445C9.64639 11.0515 10.1224 11.0515 10.4154 11.3445L11.7764 12.7075L15.1444 9.3395C15.4374 9.0465 15.9114 9.0465 16.2044 9.3395Z" fill="#111111"/>
</svg>
