<svg width="24" height="25" viewBox="0 0 24 25" fill="none" xmlns="http://www.w3.org/2000/svg">
<g clip-path="url(#clip0_29843_4386)">
<path d="M12.0001 21.926C11.6506 21.9314 11.3058 21.8452 11.0001 21.676L10.7001 21.506C8.36335 20.1839 6.41934 18.2654 5.06655 15.9463C3.71377 13.6273 3.00067 10.9907 3.00008 8.30596V8.16596C2.99691 7.81185 3.08782 7.46324 3.26351 7.15578C3.43921 6.84831 3.69339 6.59301 4.00008 6.41596L11.0001 2.47596C11.3041 2.30042 11.649 2.20801 12.0001 2.20801C12.3512 2.20801 12.696 2.30042 13.0001 2.47596L20.0001 6.41596C20.3068 6.59301 20.561 6.84831 20.7366 7.15578C20.9123 7.46324 21.0033 7.81185 21.0001 8.16596V8.30596C20.9975 10.9927 20.2814 13.6306 18.925 15.9498C17.5686 18.2691 15.6205 20.1865 13.2801 21.506L12.9801 21.676C12.6802 21.8419 12.3428 21.928 12.0001 21.926ZM12.0001 4.22596L5.00008 8.16596V8.30596C5.00176 10.6371 5.62308 12.9258 6.80038 14.9378C7.97769 16.9497 9.66866 18.6126 11.7001 19.756L12.0001 19.926L12.3001 19.756C14.3315 18.6126 16.0225 16.9497 17.1998 14.9378C18.3771 12.9258 18.9984 10.6371 19.0001 8.30596V8.16596L12.0001 4.22596Z" fill="#111111"/>
</g>
<defs>
<clipPath id="clip0_29843_4386">
<rect width="24" height="24" fill="white" transform="translate(0 0.0761719)"/>
</clipPath>
</defs>
</svg>
