<svg width="41" height="40" viewBox="0 0 41 40" fill="none" xmlns="http://www.w3.org/2000/svg">
<path d="M23.5482 5.8499L26.4816 11.7166C26.8816 12.5332 27.9482 13.3166 28.8482 13.4666L34.1649 14.3499C37.5649 14.9166 38.3649 17.3832 35.9149 19.8166L31.7816 23.9499C31.0816 24.6499 30.6982 25.9999 30.9149 26.9666L32.0982 32.0832C33.0316 36.1332 30.8816 37.6999 27.2982 35.5832L22.3149 32.6332C21.4149 32.0999 19.9316 32.0999 19.0149 32.6332L14.0316 35.5832C10.4649 37.6999 8.29822 36.1166 9.23155 32.0832L10.4149 26.9666C10.6316 25.9999 10.2482 24.6499 9.54822 23.9499L5.41489 19.8166C2.98155 17.3832 3.76489 14.9166 7.16489 14.3499L12.4816 13.4666C13.3649 13.3166 14.4316 12.5332 14.8316 11.7166L17.7649 5.8499C19.3649 2.66657 21.9649 2.66657 23.5482 5.8499Z" fill="#F0BB52"/>
</svg>
