<svg width="14" height="14" viewBox="0 0 14 14" fill="none" xmlns="http://www.w3.org/2000/svg">
<path d="M8.00985 2.04742L9.03651 4.10075C9.17651 4.38658 9.54985 4.66075 9.86485 4.71325L11.7257 5.02242C12.9157 5.22075 13.1957 6.08408 12.3382 6.93575L10.8915 8.38242C10.6465 8.62742 10.5123 9.09992 10.5882 9.43825L11.0023 11.2291C11.329 12.6466 10.5765 13.1949 9.32235 12.4541L7.57818 11.4216C7.26318 11.2349 6.74401 11.2349 6.42318 11.4216L4.67901 12.4541C3.43068 13.1949 2.67235 12.6408 2.99901 11.2291L3.41318 9.43825C3.48901 9.09992 3.35485 8.62742 3.10985 8.38242L1.66318 6.93575C0.811513 6.08408 1.08568 5.22075 2.27568 5.02242L4.13651 4.71325C4.44568 4.66075 4.81901 4.38658 4.95901 4.10075L5.98568 2.04742C6.54568 0.93325 7.45568 0.93325 8.00985 2.04742Z" fill="#FFCD1A"/>
</svg>
