<svg width="41" height="40" viewBox="0 0 41 40" fill="none" xmlns="http://www.w3.org/2000/svg">
<path d="M23.4388 5.8499L26.3722 11.7166C26.7722 12.5332 27.8388 13.3166 28.7388 13.4666L34.0555 14.3499C37.4555 14.9166 38.2555 17.3832 35.8055 19.8166L31.6722 23.9499C30.9722 24.6499 30.5888 25.9999 30.8055 26.9666L31.9888 32.0832C32.9222 36.1332 30.7722 37.6999 27.1888 35.5832L22.2055 32.6332C21.3055 32.0999 19.8222 32.0999 18.9055 32.6332L13.9222 35.5832C10.3555 37.6999 8.18885 36.1166 9.12218 32.0832L10.3055 26.9666C10.5222 25.9999 10.1388 24.6499 9.43885 23.9499L5.30551 19.8166C2.87218 17.3832 3.65551 14.9166 7.05551 14.3499L12.3722 13.4666C13.2555 13.3166 14.3222 12.5332 14.7222 11.7166L17.6555 5.8499C19.2555 2.66657 21.8555 2.66657 23.4388 5.8499Z" fill="#E3E9ED"/>
</svg>
