<svg width="24" height="25" viewBox="0 0 24 25" fill="none" xmlns="http://www.w3.org/2000/svg">
<g clip-path="url(#clip0_29843_4343)">
<path d="M21 6.88614H16V5.21614C15.9765 4.57596 15.7002 3.9712 15.2316 3.53444C14.7629 3.09767 14.1402 2.86454 13.5 2.88614H10.5C9.85975 2.86454 9.23706 3.09767 8.76843 3.53444C8.2998 3.9712 8.02346 4.57596 8 5.21614V6.88614H3C2.73478 6.88614 2.48043 6.9915 2.29289 7.17904C2.10536 7.36657 2 7.62093 2 7.88614C2 8.15136 2.10536 8.40571 2.29289 8.59325C2.48043 8.78079 2.73478 8.88614 3 8.88614H4V19.8861C4 20.6818 4.31607 21.4449 4.87868 22.0075C5.44129 22.5701 6.20435 22.8861 7 22.8861H17C17.7956 22.8861 18.5587 22.5701 19.1213 22.0075C19.6839 21.4449 20 20.6818 20 19.8861V8.88614H21C21.2652 8.88614 21.5196 8.78079 21.7071 8.59325C21.8946 8.40571 22 8.15136 22 7.88614C22 7.62093 21.8946 7.36657 21.7071 7.17904C21.5196 6.9915 21.2652 6.88614 21 6.88614ZM10 5.21614C10 5.05614 10.21 4.88614 10.5 4.88614H13.5C13.79 4.88614 14 5.05614 14 5.21614V6.88614H10V5.21614ZM18 19.8861C18 20.1514 17.8946 20.4057 17.7071 20.5933C17.5196 20.7808 17.2652 20.8861 17 20.8861H7C6.73478 20.8861 6.48043 20.7808 6.29289 20.5933C6.10536 20.4057 6 20.1514 6 19.8861V8.88614H18V19.8861Z" fill="#111111"/>
<path d="M9 17.8857C9.26522 17.8857 9.51957 17.7804 9.70711 17.5928C9.89464 17.4053 10 17.151 10 16.8857V12.8857C10 12.6205 9.89464 12.3662 9.70711 12.1786C9.51957 11.9911 9.26522 11.8857 9 11.8857C8.73478 11.8857 8.48043 11.9911 8.29289 12.1786C8.10536 12.3662 8 12.6205 8 12.8857V16.8857C8 17.151 8.10536 17.4053 8.29289 17.5928C8.48043 17.7804 8.73478 17.8857 9 17.8857Z" fill="#111111"/>
<path d="M15 17.8857C15.2652 17.8857 15.5196 17.7804 15.7071 17.5928C15.8946 17.4053 16 17.151 16 16.8857V12.8857C16 12.6205 15.8946 12.3662 15.7071 12.1786C15.5196 11.9911 15.2652 11.8857 15 11.8857C14.7348 11.8857 14.4804 11.9911 14.2929 12.1786C14.1054 12.3662 14 12.6205 14 12.8857V16.8857C14 17.151 14.1054 17.4053 14.2929 17.5928C14.4804 17.7804 14.7348 17.8857 15 17.8857Z" fill="#111111"/>
</g>
<defs>
<clipPath id="clip0_29843_4343">
<rect width="24" height="24" fill="white" transform="translate(0 0.885742)"/>
</clipPath>
</defs>
</svg>
