<svg width="30" height="30" viewBox="0 0 30 30" fill="none" xmlns="http://www.w3.org/2000/svg">
<path fill-rule="evenodd" clip-rule="evenodd" d="M10.1113 6.25191L10.6992 6.25266C10.7997 6.2528 10.9013 6.25295 11.0039 6.25311L11.6287 6.25412C12.9997 6.25646 14.46 6.25967 15.573 6.26198L16.0604 6.26298C16.137 6.26314 16.2111 6.26328 16.2826 6.26342C19.0951 6.06592 21.6339 8.15342 21.8601 10.9547C21.8622 10.9834 21.8641 11.1465 21.8656 11.443L24.4604 9.31805C25.2154 8.6993 26.2316 8.57805 27.1129 8.9943C27.9941 9.41305 28.5416 10.278 28.5404 11.253L28.5254 20.4393C28.5241 21.4143 27.9754 22.2793 27.0954 22.6943C26.7504 22.858 26.3854 22.9368 26.0229 22.9368C25.4591 22.9368 24.9029 22.743 24.4441 22.3668L21.8714 20.2321C21.8714 20.2682 21.8714 20.3045 21.8714 20.3409C21.9239 21.6609 21.4539 22.9322 20.5464 23.9197C19.5926 24.9584 18.2776 25.5622 16.8451 25.6209C16.8208 25.6227 16.6839 25.6238 16.4592 25.6246L15.9654 25.6254C15.7728 25.6256 15.5539 25.6256 15.3142 25.6255L14.2568 25.6245C14.1615 25.6243 14.0647 25.6242 13.9666 25.6241L13.3636 25.6231C11.9269 25.6207 10.3085 25.6169 9.0538 25.6142L8.53993 25.6131C8.37712 25.6128 8.22333 25.6124 8.08013 25.6122C7.94763 25.6222 7.81513 25.6272 7.68263 25.6272C5.04013 25.6284 2.73513 23.6034 2.51763 20.9472L2.51744 20.9445L2.51627 20.9197C2.51618 20.917 2.51609 20.914 2.516 20.9107L2.51515 20.8714C2.51505 20.8658 2.51494 20.8598 2.51484 20.8532L2.5139 20.7804C2.51379 20.7707 2.51368 20.7603 2.51357 20.7492L2.51257 20.631C2.51246 20.6157 2.51235 20.5996 2.51223 20.5827L2.51155 20.471C2.51144 20.4507 2.51133 20.4294 2.51121 20.4072L2.5102 20.181C2.51009 20.1528 2.50997 20.1235 2.50986 20.0931L2.50889 19.7887C2.50878 19.7513 2.50868 19.7127 2.50857 19.6728L2.50767 19.2783C2.50757 19.2304 2.50747 19.1811 2.50738 19.1303L2.50633 18.4498C2.50625 18.3869 2.50617 18.3224 2.5061 18.2563L2.50513 17.1354C2.50507 17.0518 2.50502 16.9663 2.50498 16.8789L2.50496 11.9815C2.50501 11.8329 2.50507 11.6819 2.50513 11.5284C2.44513 10.2397 2.91263 8.95967 3.82513 7.96342C4.77763 6.92342 6.09138 6.31717 7.52513 6.25592C7.54444 6.25453 7.6358 6.25348 7.78649 6.25272L8.05543 6.25179C8.10715 6.25167 8.16217 6.25156 8.2203 6.25147L9.83042 6.25161C9.92239 6.2517 10.0161 6.2518 10.1113 6.25191ZM16.3501 8.13592C14.7719 8.13363 12.8422 8.13087 11.1955 8.12907L10.3291 8.12819C10.1907 8.12807 10.0555 8.12795 9.92412 8.12784L7.75027 8.12791C7.66847 8.12828 7.61555 8.12884 7.59513 8.12967C6.67263 8.16842 5.82138 8.55967 5.20763 9.22967C4.63513 9.85592 4.34013 10.6559 4.37888 11.4859L4.37992 16.3146C4.37997 16.4212 4.38003 16.5271 4.38009 16.6321L4.38123 18.1246C4.38133 18.2175 4.38142 18.3088 4.38152 18.3984L4.38217 18.9148C4.38228 18.9971 4.3824 19.0774 4.38252 19.1557L4.38374 19.7994C4.38507 20.3789 4.38676 20.7548 4.38888 20.8272C4.53138 22.5584 6.15388 23.8822 8.01138 23.7397C8.20781 23.74 8.40965 23.7403 8.61567 23.7406L9.24509 23.7416C9.77806 23.7425 10.3296 23.7434 10.8808 23.7443L11.5408 23.7454C11.8695 23.746 12.1954 23.7465 12.5142 23.747L13.1414 23.7479C13.244 23.7481 13.3455 23.7482 13.4458 23.7484L14.0315 23.7491C14.1263 23.7493 14.2195 23.7494 14.311 23.7495L16.5178 23.7494C16.6622 23.7489 16.7528 23.7482 16.7801 23.7472C17.6989 23.7097 18.5514 23.3197 19.1651 22.6509C19.7389 22.0272 20.0339 21.2272 19.9976 20.4009L19.9965 20.3803L19.9963 14.3351C19.9963 14.2369 19.9962 14.14 19.9961 14.0444L19.9952 12.9746C19.9951 12.8926 19.995 12.8125 19.9949 12.7345L19.9938 12.0928C19.9934 11.9002 19.993 11.7302 19.9925 11.5865L19.9914 11.3353C19.9907 11.1926 19.9898 11.1012 19.9889 11.0697C19.8476 9.32967 18.2176 7.98967 16.3501 8.13592ZM25.6479 10.7693L21.8709 13.8509C21.8711 14.0045 21.8712 14.1641 21.8713 14.3299L21.8721 17.4644L25.6329 20.918C25.9091 21.143 26.1866 21.0505 26.2941 20.998C26.4016 20.948 26.6504 20.7918 26.6504 20.4368L26.6654 11.2505C26.6666 10.8955 26.4166 10.7393 26.3091 10.688C26.2029 10.638 25.9216 10.5443 25.6479 10.7693Z" fill="#111111"/>
</svg>
