<svg width="18" height="18" viewBox="0 0 18 18" fill="none" xmlns="http://www.w3.org/2000/svg">
<path fill-rule="evenodd" clip-rule="evenodd" d="M6.06677 3.75085L6.41952 3.7513C6.47982 3.75139 6.5408 3.75148 6.60233 3.75157L6.97723 3.75218C7.79982 3.75358 8.676 3.75551 9.34378 3.7569L9.63624 3.7575C9.6822 3.75759 9.72668 3.75768 9.76958 3.75776C11.4571 3.63926 12.9803 4.89176 13.1161 6.57251C13.1173 6.58975 13.1184 6.68758 13.1194 6.86553L14.6762 5.59053C15.1292 5.21928 15.739 5.14653 16.2677 5.39628C16.7965 5.64753 17.125 6.16653 17.1242 6.75153L17.1152 12.2633C17.1145 12.8483 16.7852 13.3673 16.2572 13.6163C16.0502 13.7145 15.8312 13.7618 15.6137 13.7618C15.2755 13.7618 14.9417 13.6455 14.6665 13.4198L13.1229 12.1389C13.1228 12.1607 13.1228 12.1824 13.1228 12.2043C13.1543 12.9963 12.8723 13.759 12.3278 14.3515C11.7556 14.9748 10.9666 15.337 10.1071 15.3723C10.0925 15.3733 10.0104 15.374 9.87555 15.3745L9.57924 15.375C9.46367 15.3751 9.33235 15.3751 9.18852 15.375L8.55406 15.3744C8.4969 15.3743 8.43882 15.3742 8.37995 15.3741L8.01814 15.3736C7.15612 15.3721 6.1851 15.3699 5.43228 15.3682L5.12396 15.3676C5.02627 15.3674 4.934 15.3672 4.84808 15.367C4.76858 15.373 4.68908 15.376 4.60958 15.376C3.02408 15.3768 1.64108 14.1618 1.51058 12.568L1.51046 12.5664L1.50976 12.5515C1.50971 12.5499 1.50966 12.5481 1.5096 12.5461L1.50909 12.5225C1.50903 12.5192 1.50897 12.5156 1.50891 12.5117L1.50834 12.468C1.50827 12.4621 1.50821 12.4559 1.50814 12.4492L1.50754 12.3783C1.50748 12.3691 1.50741 12.3595 1.50734 12.3493L1.50693 12.2823C1.50686 12.2701 1.5068 12.2574 1.50673 12.2441L1.50612 12.1083C1.50605 12.0914 1.50598 12.0738 1.50592 12.0556L1.50533 11.8729C1.50527 11.8505 1.50521 11.8273 1.50514 11.8034L1.5046 11.5667C1.50454 11.5379 1.50448 11.5083 1.50443 11.4779L1.5038 11.0696C1.50375 11.0319 1.5037 10.9931 1.50366 10.9535L1.50308 10.281C1.50304 10.2308 1.50301 10.1795 1.50299 10.127L1.50298 7.18859C1.50301 7.09948 1.50304 7.00887 1.50308 6.91676C1.46708 6.14351 1.74758 5.37551 2.29508 4.77776C2.86658 4.15376 3.65483 3.79001 4.51508 3.75326C4.52666 3.75243 4.58148 3.7518 4.67189 3.75134L4.83326 3.75078C4.86429 3.75071 4.8973 3.75064 4.93218 3.75059L5.89825 3.75067C5.95343 3.75073 6.00964 3.75079 6.06677 3.75085ZM9.81008 4.88126C8.86316 4.87988 7.70534 4.87823 6.71728 4.87715L6.19746 4.87662C6.11439 4.87655 6.0333 4.87648 5.95447 4.87641L4.65016 4.87645C4.60108 4.87668 4.56933 4.87701 4.55708 4.87751C4.00358 4.90076 3.49283 5.13551 3.12458 5.53751C2.78108 5.91326 2.60408 6.39326 2.62733 6.89126L2.62795 9.78848C2.62798 9.85244 2.62802 9.91596 2.62805 9.97895L2.62874 10.8745C2.6288 10.9302 2.62885 10.985 2.62891 11.0388L2.6293 11.3486C2.62937 11.398 2.62944 11.4462 2.62951 11.4931L2.63024 11.8793C2.63104 12.2271 2.63205 12.4526 2.63333 12.496C2.71883 13.5348 3.69233 14.329 4.80683 14.2435C4.92469 14.2437 5.04579 14.2439 5.1694 14.2441L5.54705 14.2447C5.86683 14.2452 6.19777 14.2457 6.52848 14.2463L6.92449 14.247C7.12171 14.2473 7.31721 14.2476 7.50853 14.2479L7.88487 14.2485C7.94642 14.2486 8.00732 14.2486 8.06749 14.2487L8.4189 14.2492C8.47575 14.2493 8.53168 14.2493 8.5866 14.2494L9.91068 14.2494C9.9973 14.2491 10.0517 14.2486 10.0681 14.248C10.6193 14.2255 11.1308 13.9915 11.4991 13.5903C11.8433 13.216 12.0203 12.736 11.9986 12.2403L11.9979 12.2279L11.9978 8.60074C11.9978 8.54183 11.9977 8.48368 11.9977 8.42638L11.9971 7.7845C11.9971 7.73526 11.997 7.68721 11.9969 7.6404L11.9963 7.25536C11.9961 7.13982 11.9958 7.03782 11.9955 6.9516L11.9949 6.80087C11.9944 6.71528 11.9939 6.6604 11.9933 6.64151C11.9086 5.59751 10.9306 4.79351 9.81008 4.88126ZM15.3887 6.46128L13.1225 8.31025C13.1226 8.4024 13.1227 8.49819 13.1228 8.59762L13.1233 10.4783L15.3797 12.5505C15.5455 12.6855 15.712 12.63 15.7765 12.5985C15.841 12.5685 15.9902 12.4748 15.9902 12.2618L15.9992 6.75003C16 6.53703 15.85 6.44328 15.7855 6.41253C15.7217 6.38253 15.553 6.32628 15.3887 6.46128Z" fill="#2196F3"/>
</svg>
