<svg width="24" height="24" viewBox="0 0 24 24" fill="none" xmlns="http://www.w3.org/2000/svg">
<path fill-rule="evenodd" clip-rule="evenodd" d="M8.08902 5.00162L8.55936 5.00223C8.63976 5.00234 8.72107 5.00246 8.80311 5.00258L9.30297 5.00339C10.3998 5.00527 11.568 5.00783 12.4584 5.00969L12.8483 5.01048C12.9096 5.01061 12.9689 5.01072 13.0261 5.01083C15.2761 4.85283 17.3071 6.52283 17.4881 8.76383C17.4898 8.78682 17.4913 8.91726 17.4925 9.15453L19.5683 7.45453C20.1723 6.95953 20.9853 6.86253 21.6903 7.19553C22.3953 7.53053 22.8333 8.22253 22.8323 9.00253L22.8203 16.3515C22.8193 17.1315 22.3803 17.8235 21.6763 18.1555C21.4003 18.2865 21.1083 18.3495 20.8183 18.3495C20.3673 18.3495 19.9223 18.1945 19.5553 17.8935L17.4971 16.1858C17.4971 16.2147 17.4971 16.2437 17.4971 16.2728C17.5391 17.3288 17.1631 18.3458 16.4371 19.1358C15.6741 19.9668 14.6221 20.4498 13.4761 20.4968C13.4567 20.4982 13.3471 20.4992 13.1674 20.4998L12.7723 20.5004C12.6182 20.5006 12.4431 20.5006 12.2514 20.5005L11.4054 20.4997C11.3292 20.4996 11.2518 20.4995 11.1733 20.4993L10.6909 20.4986C9.5415 20.4966 8.2468 20.4936 7.24304 20.4915L6.83195 20.4906C6.7017 20.4903 6.57866 20.4901 6.46411 20.4898C6.35811 20.4978 6.25211 20.5018 6.14611 20.5018C4.03211 20.5028 2.18811 18.8828 2.01411 16.7578L2.01395 16.7557L2.01302 16.7359C2.01295 16.7337 2.01288 16.7313 2.0128 16.7287L2.01212 16.6972C2.01204 16.6927 2.01196 16.6879 2.01187 16.6827L2.01112 16.6245C2.01103 16.6166 2.01094 16.6083 2.01086 16.5995L2.01006 16.5049C2.00997 16.4927 2.00988 16.4798 2.00979 16.4663L2.00924 16.3769C2.00915 16.3606 2.00906 16.3436 2.00897 16.3259L2.00816 16.1449C2.00807 16.1223 2.00798 16.0989 2.00789 16.0746L2.00711 15.8311C2.00702 15.8012 2.00694 15.7703 2.00686 15.7383L2.00613 15.4227C2.00605 15.3844 2.00598 15.3449 2.0059 15.3044L2.00506 14.7599C2.005 14.7096 2.00494 14.658 2.00488 14.6051L2.0041 13.7084C2.00406 13.6415 2.00402 13.5731 2.00398 13.5032L2.00397 9.58528C2.00401 9.46646 2.00406 9.34565 2.00411 9.22283C1.95611 8.19183 2.33011 7.16783 3.06011 6.37083C3.82211 5.53883 4.87311 5.05383 6.02011 5.00483C6.03555 5.00372 6.10864 5.00288 6.22919 5.00227L6.44435 5.00153C6.48572 5.00143 6.52973 5.00135 6.57624 5.00128L7.86434 5.00138C7.93791 5.00146 8.01286 5.00154 8.08902 5.00162ZM13.0801 6.50883C11.8176 6.507 10.2738 6.50479 8.95637 6.50336L8.26328 6.50265C8.15252 6.50255 8.0444 6.50246 7.93929 6.50237L6.20022 6.50243C6.13477 6.50272 6.09244 6.50317 6.07611 6.50383C5.33811 6.53483 4.65711 6.84783 4.16611 7.38383C3.70811 7.88483 3.47211 8.52483 3.50311 9.18883L3.50393 13.0518C3.50398 13.1371 3.50402 13.2218 3.50407 13.3058L3.50499 14.4998C3.50506 14.5741 3.50514 14.6472 3.50522 14.7189L3.50573 15.1319C3.50583 15.1978 3.50592 15.2621 3.50602 15.3247L3.50699 15.8396C3.50806 16.3032 3.5094 16.6039 3.51111 16.6618C3.62511 18.0468 4.92311 19.1058 6.40911 18.9918C6.56625 18.9921 6.72772 18.9923 6.89253 18.9926L7.39607 18.9934C7.82244 18.9941 8.26369 18.9948 8.70464 18.9956L9.23266 18.9964C9.49562 18.9969 9.75629 18.9973 10.0114 18.9977L10.5132 18.9984C10.5952 18.9986 10.6764 18.9987 10.7567 18.9988L11.2252 18.9994C11.301 18.9995 11.3756 18.9996 11.4488 18.9997L13.2142 18.9996C13.3297 18.9992 13.4023 18.9986 13.4241 18.9978C14.1591 18.9678 14.8411 18.6558 15.3321 18.1208C15.7911 17.6218 16.0271 16.9818 15.9981 16.3208L15.9972 16.3043L15.997 11.4681C15.997 11.3896 15.997 11.3121 15.9969 11.2357L15.9962 10.3798C15.9961 10.3142 15.996 10.2501 15.9959 10.1877L15.9951 9.6743C15.9947 9.52025 15.9944 9.38425 15.994 9.26929L15.9931 9.06831C15.9925 8.9542 15.9919 8.88102 15.9911 8.85583C15.8781 7.46383 14.5741 6.39183 13.0801 6.50883ZM20.5183 8.61553L17.4967 11.0808C17.4968 11.2037 17.4969 11.3314 17.497 11.464L17.4977 13.9716L20.5063 16.7345C20.7273 16.9145 20.9493 16.8405 21.0353 16.7985C21.1213 16.7585 21.3203 16.6335 21.3203 16.3495L21.3323 9.00053C21.3333 8.71653 21.1333 8.59153 21.0473 8.55053C20.9623 8.51053 20.7373 8.43553 20.5183 8.61553Z" fill="#111111"/>
</svg>
