<svg width="30" height="30" viewBox="0 0 30 30" fill="none" xmlns="http://www.w3.org/2000/svg">
<path fill-rule="evenodd" clip-rule="evenodd" d="M24.6875 12.2511C25.2062 12.2511 25.625 12.6711 25.625 13.1886C25.625 18.9289 21.2192 23.6544 15.6254 24.1336L15.625 27.1875C15.625 27.705 15.205 28.125 14.6875 28.125C14.17 28.125 13.75 27.705 13.75 27.1875L13.7509 24.1337C8.15642 23.6551 3.75 18.9293 3.75 13.1886C3.75 12.6711 4.17 12.2511 4.6875 12.2511C5.20625 12.2511 5.625 12.6711 5.625 13.1886C5.625 18.2111 9.69 22.2986 14.6875 22.2986C19.685 22.2986 23.75 18.2111 23.75 13.1886C23.75 12.6711 24.17 12.2511 24.6875 12.2511ZM14.6875 1.25C18.0037 1.25 20.7025 3.95875 20.7025 7.28875V13.1488C20.7025 16.4775 18.0037 19.1863 14.6875 19.1863C11.3712 19.1863 8.6725 16.4775 8.6725 13.1488V7.28875C8.6725 3.95875 11.3712 1.25 14.6875 1.25ZM14.6875 3.125C12.405 3.125 10.5475 4.9925 10.5475 7.28875V13.1488C10.5475 15.4425 12.405 17.3113 14.6875 17.3113C16.97 17.3113 18.8275 15.4425 18.8275 13.1488V7.28875C18.8275 4.9925 16.97 3.125 14.6875 3.125Z" fill="#111111"/>
</svg>
