<svg width="18" height="18" viewBox="0 0 18 18" fill="none" xmlns="http://www.w3.org/2000/svg">
<path fill-rule="evenodd" clip-rule="evenodd" d="M3.26938 3.79549C3.27088 3.79549 3.23338 3.83449 3.18613 3.88099C3.00463 4.05724 2.62888 4.42399 2.62509 5.19124C2.61913 6.26449 3.32488 8.25724 6.72313 11.6547C10.1056 15.0357 12.0954 15.7497 13.1709 15.7497H13.1866C13.9539 15.746 14.3199 15.3695 14.4969 15.1887C14.5509 15.1332 14.5944 15.0927 14.6251 15.0672C15.3721 14.3157 15.7546 13.7562 15.7509 13.3977C15.7456 13.0317 15.2904 12.599 14.6611 12.0005C14.4609 11.81 14.2434 11.603 14.0139 11.3735C13.4191 10.7802 13.1244 10.8815 12.4764 11.1095C11.5801 11.4237 10.3501 11.8512 8.43913 9.93949C6.52513 8.02699 6.95338 6.79849 7.26688 5.90224C7.49338 5.25424 7.59688 4.95874 7.00138 4.36324C6.76813 4.13074 6.55888 3.91024 6.36613 3.70774C5.77138 3.08224 5.34238 2.62999 4.97863 2.62474H4.97263C4.61338 2.62474 4.05538 3.00874 3.26563 3.79849C3.26788 3.79624 3.26863 3.79549 3.26938 3.79549ZM13.1716 16.8747C11.3026 16.8747 8.86588 15.3867 5.92813 12.4505C2.97913 9.50224 1.48888 7.05799 1.50006 5.18524C1.50688 3.94774 2.15563 3.31399 2.39938 3.07624C2.41213 3.06049 2.45563 3.01774 2.47063 3.00274C3.54613 1.92649 4.27138 1.49149 4.99288 1.49962C5.83063 1.51099 6.42688 2.13799 7.18138 2.93224C7.36813 3.12874 7.57063 3.34249 7.79638 3.56749C8.89138 4.66249 8.57938 5.55574 8.32888 6.27274C8.05588 7.05499 7.81963 7.72999 9.23413 9.14449C10.6501 10.559 11.3251 10.3227 12.1044 10.0475C12.8221 9.79699 13.7131 9.48349 14.8096 10.5785C15.0316 10.8005 15.2424 11.0007 15.4366 11.186C16.2346 11.9442 16.8646 12.5435 16.8753 13.3835C16.8841 14.0997 16.4491 14.8295 15.3751 15.9042L14.8996 15.5817L15.3016 15.9747C15.0639 16.2185 14.4309 16.868 13.1926 16.8747H13.1716Z" fill="#111111"/>
</svg>
