<svg width="24" height="24" viewBox="0 0 24 24" fill="none" xmlns="http://www.w3.org/2000/svg">
<path fill-rule="evenodd" clip-rule="evenodd" d="M12.4739 4.33537C12.5049 4.35437 12.5359 4.37437 12.5639 4.39737C13.9156 5.45919 14.0149 7.43311 14.0197 11.375L14.0199 11.7504C14.0199 15.9444 13.9579 18.0094 12.5639 19.1054C12.5359 19.1274 12.5049 19.1484 12.4729 19.1664C12.0589 19.4024 11.6379 19.5024 11.2179 19.5024C9.82689 19.5024 8.44789 18.4074 7.37389 17.5554C6.88889 17.1704 6.15589 16.5884 5.90289 16.5624C5.61589 16.5404 5.36789 16.5314 5.14889 16.5254C4.35089 16.4964 3.71989 16.4754 2.97789 15.8634C2.08509 15.1281 2.0031 13.6711 2 12.3868L2.00089 11.9664L2.00189 11.7504L2.00089 11.5344L2 11.1139C2.0031 9.82987 2.08509 8.37367 2.97789 7.63837C3.72089 7.02637 4.35289 7.00437 5.15289 6.97737C5.37089 6.96937 5.61789 6.96137 5.90489 6.94037C6.15589 6.91337 6.88889 6.33137 7.37389 5.94637C8.77289 4.83537 10.6889 3.31837 12.4739 4.33537ZM20.4494 5.22717C23.1624 9.13117 23.1624 14.3742 20.4494 18.2752C20.3034 18.4842 20.0704 18.5962 19.8334 18.5962C19.6854 18.5962 19.5364 18.5522 19.4054 18.4612C19.0654 18.2252 18.9814 17.7582 19.2184 17.4172C21.6114 13.9772 21.6114 9.52817 19.2184 6.08217C18.9814 5.74217 19.0654 5.27517 19.4064 5.03817C19.7464 4.80117 20.2124 4.88617 20.4494 5.22717ZM11.2079 5.50637C10.3399 5.50637 9.22989 6.38737 8.30589 7.12137C7.41689 7.82637 6.71489 8.38437 6.01489 8.43637C5.70489 8.45837 5.43889 8.46837 5.20489 8.47637C4.45789 8.50137 4.26889 8.51837 3.93189 8.79637C3.54514 9.114 3.50215 10.2891 3.50013 11.1708L3.50089 11.5274L3.50189 11.7484V11.7524L3.50089 11.9734L3.50013 12.3303C3.50215 13.2126 3.54514 14.3877 3.93189 14.7054C4.26789 14.9834 4.45689 14.9994 5.20189 15.0264C5.43689 15.0334 5.70389 15.0434 6.01489 15.0664C6.71489 15.1174 7.41689 15.6754 8.30589 16.3804C9.40889 17.2554 10.7749 18.3404 11.6809 17.8894C12.4144 17.2536 12.514 15.6016 12.5196 12.1061L12.5199 11.7504C12.5199 8.01037 12.4389 6.26937 11.6809 5.61137C11.5339 5.53837 11.3749 5.50637 11.2079 5.50637ZM17.9814 7.69207C19.4164 10.2001 19.4164 13.3101 17.9814 15.8101C17.8424 16.0521 17.5904 16.1871 17.3304 16.1871C17.2034 16.1871 17.0754 16.1551 16.9574 16.0871C16.5984 15.8811 16.4744 15.4221 16.6804 15.0641C17.8514 13.0231 17.8514 10.4851 16.6804 8.43807C16.4744 8.07807 16.5994 7.62007 16.9584 7.41407C17.3184 7.21207 17.7754 7.33307 17.9814 7.69207Z" fill="#111111"/>
</svg>
