<svg width="160" height="47" viewBox="0 0 160 47" fill="none" xmlns="http://www.w3.org/2000/svg">
<path d="M9.6 36V6.72H0.528V0.239997H25.968V6.72H17.04V36H9.6ZM26.505 36V9.792H33.225V16.08L32.745 15.168C33.321 12.96 34.265 11.472 35.577 10.704C36.921 9.904 38.505 9.504 40.329 9.504H41.865V15.744H39.609C37.849 15.744 36.425 16.288 35.337 17.376C34.249 18.432 33.705 19.936 33.705 21.888V36H26.505ZM53.3726 36.576C51.4846 36.576 49.8526 36.272 48.4766 35.664C47.1006 35.056 46.0446 34.192 45.3086 33.072C44.5726 31.92 44.2046 30.56 44.2046 28.992C44.2046 27.52 44.5406 26.224 45.2126 25.104C45.8846 23.952 46.9086 22.992 48.2846 22.224C49.6926 21.456 51.4366 20.912 53.5166 20.592L61.5326 19.296V24.576L54.8126 25.776C53.7886 25.968 53.0046 26.304 52.4606 26.784C51.9166 27.232 51.6446 27.888 51.6446 28.752C51.6446 29.552 51.9486 30.176 52.5566 30.624C53.1646 31.072 53.9166 31.296 54.8126 31.296C55.9966 31.296 57.0366 31.04 57.9326 30.528C58.8286 30.016 59.5166 29.328 59.9966 28.464C60.5086 27.568 60.7646 26.592 60.7646 25.536V18.72C60.7646 17.728 60.3646 16.896 59.5646 16.224C58.7966 15.552 57.7406 15.216 56.3966 15.216C55.1166 15.216 53.9806 15.568 52.9886 16.272C52.0286 16.976 51.3246 17.904 50.8766 19.056L45.1166 16.32C45.6286 14.848 46.4446 13.584 47.5646 12.528C48.6846 11.472 50.0286 10.656 51.5966 10.08C53.1646 9.504 54.8766 9.216 56.7326 9.216C58.9406 9.216 60.8926 9.616 62.5886 10.416C64.2846 11.216 65.5966 12.336 66.5246 13.776C67.4846 15.184 67.9646 16.832 67.9646 18.72V36H61.2446V31.776L62.8766 31.488C62.1086 32.64 61.2606 33.6 60.3326 34.368C59.4046 35.104 58.3646 35.648 57.2126 36C56.0606 36.384 54.7806 36.576 53.3726 36.576ZM81.2243 36L70.9043 9.792H78.6803L85.8323 29.616H82.8563L90.0083 9.792H97.7843L87.4643 36H81.2243ZM113.589 46.56C111.573 46.56 109.701 46.224 107.973 45.552C106.245 44.88 104.757 43.936 103.509 42.72C102.293 41.536 101.413 40.128 100.869 38.496L107.541 36.144C107.893 37.36 108.613 38.32 109.701 39.024C110.789 39.728 112.085 40.08 113.589 40.08C114.773 40.08 115.797 39.856 116.661 39.408C117.525 38.992 118.181 38.368 118.629 37.536C119.109 36.704 119.349 35.728 119.349 34.608V28.608L120.741 30.336C119.845 31.808 118.693 32.912 117.285 33.648C115.877 34.352 114.229 34.704 112.341 34.704C109.909 34.704 107.733 34.16 105.813 33.072C103.893 31.952 102.389 30.432 101.301 28.512C100.213 26.56 99.669 24.352 99.669 21.888C99.669 19.424 100.213 17.248 101.301 15.36C102.389 13.44 103.877 11.936 105.765 10.848C107.653 9.76 109.797 9.216 112.197 9.216C114.085 9.216 115.733 9.6 117.141 10.368C118.549 11.104 119.749 12.24 120.741 13.776L119.829 15.504V9.792H126.549V34.608C126.549 36.912 125.989 38.96 124.869 40.752C123.749 42.576 122.213 44 120.261 45.024C118.341 46.048 116.117 46.56 113.589 46.56ZM113.349 28.176C114.565 28.176 115.621 27.92 116.517 27.408C117.413 26.896 118.101 26.176 118.581 25.248C119.093 24.32 119.349 23.232 119.349 21.984C119.349 20.736 119.093 19.648 118.581 18.72C118.069 17.76 117.365 17.024 116.469 16.512C115.573 15.968 114.533 15.696 113.349 15.696C112.133 15.696 111.045 15.968 110.085 16.512C109.157 17.024 108.421 17.76 107.877 18.72C107.365 19.648 107.109 20.736 107.109 21.984C107.109 23.2 107.365 24.272 107.877 25.2C108.421 26.128 109.157 26.864 110.085 27.408C111.045 27.92 112.133 28.176 113.349 28.176ZM145.098 36.576C142.506 36.576 140.138 35.984 137.994 34.8C135.882 33.616 134.186 32 132.906 29.952C131.658 27.872 131.034 25.52 131.034 22.896C131.034 20.24 131.658 17.888 132.906 15.84C134.186 13.792 135.882 12.176 137.994 10.992C140.138 9.808 142.506 9.216 145.098 9.216C147.69 9.216 150.042 9.808 152.154 10.992C154.266 12.176 155.946 13.792 157.194 15.84C158.474 17.888 159.114 20.24 159.114 22.896C159.114 25.52 158.474 27.872 157.194 29.952C155.946 32 154.266 33.616 152.154 34.8C150.042 35.984 147.69 36.576 145.098 36.576ZM145.098 30.096C146.41 30.096 147.546 29.792 148.506 29.184C149.498 28.576 150.266 27.728 150.81 26.64C151.386 25.552 151.674 24.304 151.674 22.896C151.674 21.488 151.386 20.256 150.81 19.2C150.266 18.112 149.498 17.264 148.506 16.656C147.546 16.016 146.41 15.696 145.098 15.696C143.786 15.696 142.634 16.016 141.642 16.656C140.65 17.264 139.866 18.112 139.29 19.2C138.746 20.256 138.474 21.488 138.474 22.896C138.474 24.304 138.746 25.552 139.29 26.64C139.866 27.728 140.65 28.576 141.642 29.184C142.634 29.792 143.786 30.096 145.098 30.096Z" fill="#2196F3"/>
</svg>
