<svg width="24" height="24" viewBox="0 0 24 24" fill="none" xmlns="http://www.w3.org/2000/svg">
<path d="M13.65 6.6L12.9 3H11.1L10.35 6.6L9.3 7.05L6.3 5.1L4.95 6.3L6.9 9.3L6.6 10.35L3 11.1V12.9L6.6 13.65L7.05 14.85L5.1 17.85L6.3 19.05L9.3 17.1L10.5 17.55L11.1 21H12.9L13.65 17.4L14.85 16.95L17.85 18.9L19.05 17.7L17.1 14.7L17.55 13.5L21 12.9V11.1L17.4 10.35L16.95 9.15L18.9 6.15L17.7 4.95L14.7 6.9L13.65 6.6ZM14.1 1.5L14.85 5.1L18 3.15L21 6.15L18.9 9.3L22.5 9.9V14.1L18.9 14.85L21 18L18 21L14.85 18.9L14.1 22.5H9.9L9.15 18.9L6 20.85L3 17.85L5.1 14.7L1.5 14.1V9.9L5.1 9.15L3.15 6L6.15 3L9.3 5.1L9.9 1.5H14.1ZM15 12C15 13.65 13.65 15 12 15C10.35 15 9 13.65 9 12C9 10.35 10.35 9 12 9C13.65 9 15 10.35 15 12ZM12 13.5C12.9 13.5 13.5 12.9 13.5 12C13.5 11.1 12.9 10.5 12 10.5C11.1 10.5 10.5 11.1 10.5 12C10.5 12.9 11.1 13.5 12 13.5Z" fill="white"/>
</svg>
