<svg width="24" height="24" viewBox="0 0 24 24" fill="none" xmlns="http://www.w3.org/2000/svg">
<path d="M10.25 4.25C10.4489 4.25 10.6397 4.32902 10.7803 4.46967C10.921 4.61032 11 4.80109 11 5V13H19C19.1812 13 19.3563 13.0656 19.4929 13.1848C19.6295 13.3039 19.7184 13.4684 19.743 13.648L19.75 13.75C19.75 18.72 15.72 22.25 10.75 22.25C8.36305 22.25 6.07387 21.3018 4.38604 19.614C2.69821 17.9261 1.75 15.6369 1.75 13.25C1.75 8.28 5.28 4.25 10.25 4.25ZM9.5 5.787L9.291 5.811C5.601 6.281 3.25 9.433 3.25 13.25C3.25 15.2391 4.04018 17.1468 5.4467 18.5533C6.85322 19.9598 8.76088 20.75 10.75 20.75C14.567 20.75 17.718 18.398 18.19 14.709L18.212 14.5H10.25C10.0688 14.5 9.89366 14.4344 9.75707 14.3152C9.62048 14.1961 9.53165 14.0316 9.507 13.852L9.5 13.75V5.787ZM13.25 1.75C15.6369 1.75 17.9261 2.69821 19.614 4.38604C21.3018 6.07387 22.25 8.36305 22.25 10.75C22.25 10.9489 22.171 11.1397 22.0303 11.2803C21.8897 11.421 21.6989 11.5 21.5 11.5H13.25C13.0511 11.5 12.8603 11.421 12.7197 11.2803C12.579 11.1397 12.5 10.9489 12.5 10.75V2.5C12.5 2.30109 12.579 2.11032 12.7197 1.96967C12.8603 1.82902 13.0511 1.75 13.25 1.75ZM14 3.287V10H20.712L20.689 9.791C20.4764 8.14679 19.7254 6.61925 18.5531 5.44694C17.3807 4.27463 15.8532 3.52356 14.209 3.311L14 3.287Z" fill="white"/>
</svg>
