<?xml version="1.0" standalone="no"?>
<!DOCTYPE svg PUBLIC "-//W3C//DTD SVG 20010904//EN"
 "http://www.w3.org/TR/2001/REC-SVG-20010904/DTD/svg10.dtd">
<svg version="1.0" xmlns="http://www.w3.org/2000/svg"
 width="642.000000pt" height="804.000000pt" viewBox="0 0 642.000000 804.000000"
 preserveAspectRatio="xMidYMid meet">
<metadata>
Created by potrace 1.16, written by Peter Selinger 2001-2019
</metadata>
<g transform="translate(0.000000,804.000000) scale(0.100000,-0.100000)"
fill="#000000" stroke="none">
<path d="M5409 6632 c12 -18 35 -39 50 -47 17 -8 39 -36 56 -70 34 -66 51 -83
67 -67 14 14 38 15 57 3 11 -7 11 -15 2 -44 -13 -39 0 -85 39 -134 16 -21 20
-41 20 -102 0 -51 -5 -84 -14 -97 -13 -17 -12 -22 12 -47 24 -25 25 -30 15
-75 -6 -26 -12 -56 -12 -67 -5 -90 -11 -129 -24 -143 -8 -9 -22 -34 -30 -54
-11 -26 -26 -42 -51 -52 -19 -8 -42 -26 -51 -40 -9 -14 -27 -28 -38 -32 -43
-13 -75 -54 -42 -54 21 0 19 -18 -5 -32 -11 -7 -20 -23 -20 -36 0 -16 -10 -27
-35 -39 -35 -17 -65 -70 -65 -114 0 -11 -13 -34 -29 -50 -34 -33 -79 -39 -104
-11 -24 27 -65 122 -77 178 -12 57 -28 75 -79 93 -59 20 -79 14 -135 -39 -29
-27 -60 -50 -69 -50 -9 0 -28 18 -42 40 -14 22 -62 68 -108 101 -45 33 -92 68
-105 77 l-23 17 21 40 c25 49 25 56 0 105 -24 48 -25 51 -2 44 16 -5 16 -5 -1
6 -30 19 -39 1 -17 -34 24 -40 26 -93 4 -124 -8 -12 -39 -38 -67 -57 -58 -39
-56 -47 3 -13 46 27 46 27 173 -68 74 -54 127 -111 127 -135 0 -21 -295 -290
-325 -297 -8 -2 -32 6 -54 17 -22 12 -47 21 -54 21 -8 0 -36 -17 -63 -39 -27
-21 -65 -46 -84 -56 -19 -9 -54 -36 -77 -58 l-43 -41 -25 24 c-31 29 -61 92
-70 147 -6 38 -4 44 24 69 17 14 52 41 78 58 30 20 47 39 47 50 -2 16 -1 16
17 0 10 -9 25 -14 34 -10 12 4 14 0 9 -18 -5 -22 -2 -24 41 -30 26 -4 49 -5
52 -2 3 2 -6 24 -19 48 -19 36 -29 44 -61 49 -44 7 -53 14 -62 51 -6 24 0 34
42 75 27 27 55 58 61 70 10 17 24 23 79 28 38 4 75 12 83 17 11 6 6 7 -15 4
-16 -3 -56 -8 -88 -11 -44 -5 -60 -11 -68 -28 -7 -11 -34 -43 -60 -70 -54 -55
-60 -80 -28 -121 15 -19 30 -26 54 -26 28 0 36 -6 49 -32 20 -40 21 -38 -14
-38 -26 0 -30 4 -30 26 0 23 -3 25 -24 20 -16 -4 -26 -1 -30 9 -3 8 -17 15
-32 15 -26 0 -26 -1 -10 -19 17 -19 17 -20 -6 -32 -13 -6 -49 -31 -80 -54 -39
-29 -71 -45 -103 -49 -25 -4 -71 -16 -102 -27 -65 -22 -85 -23 -129 -7 -31 11
-35 10 -58 -15 -29 -31 -22 -31 -111 -8 -69 17 -70 18 -76 54 -7 43 -29 70
-69 87 -16 7 -31 18 -34 26 -4 12 -2 12 14 4 15 -8 21 -8 24 2 39 137 52 163
98 198 35 25 44 37 37 47 -6 6 -53 33 -105 59 -68 34 -100 45 -119 40 -18 -5
-25 -2 -25 8 0 8 5 18 10 21 6 3 10 10 10 15 0 11 -73 50 -92 49 -7 0 6 -9 30
-19 46 -21 47 -22 32 -50 -12 -23 2 -34 45 -36 30 -1 205 -81 205 -94 0 -4
-18 -19 -40 -34 -44 -29 -48 -37 -77 -133 -16 -56 -20 -61 -40 -56 -26 6 -32
-14 -11 -35 22 -22 -16 -47 -75 -49 -92 -3 -89 -7 -85 120 l3 112 -50 8 c-85
14 -97 20 -137 77 -31 44 -40 68 -45 113 l-6 57 79 1 c108 1 154 17 54 18 -41
0 -91 -2 -110 -5 l-36 -6 7 -64 c6 -64 23 -98 81 -167 19 -22 34 -28 86 -34
l62 -6 0 -98 c0 -111 -7 -125 -80 -149 -34 -11 -47 -11 -91 3 -94 31 -106 26
-192 -62 -58 -59 -75 -83 -70 -97 4 -12 3 -15 -5 -10 -7 4 -12 18 -12 32 0 14
-7 41 -16 62 -20 43 -34 113 -41 198 -5 71 9 94 59 94 l30 0 -7 48 c-7 53 -46
127 -75 142 -24 13 -30 13 -30 0 0 -5 7 -10 14 -10 20 0 63 -58 71 -95 17 -78
17 -75 -10 -75 -14 0 -34 -9 -46 -21 -18 -18 -20 -29 -16 -87 7 -96 21 -162
40 -199 9 -18 17 -42 17 -55 0 -35 11 -45 74 -68 l58 -22 25 26 c31 34 53 33
88 -4 15 -16 48 -36 74 -45 25 -8 59 -29 77 -46 17 -16 57 -41 90 -54 112 -45
98 -114 -59 -295 -35 -41 -38 -43 -51 -25 -13 18 -15 17 -59 -8 -54 -32 -73
-34 -87 -7 -12 23 -30 27 -30 6 0 -21 -40 -66 -67 -77 -13 -5 -30 -24 -38 -43
-16 -39 -30 -51 -40 -36 -10 16 -57 11 -100 -10 -43 -22 -34 -21 28 1 32 11
41 11 59 0 20 -12 24 -11 42 11 12 14 26 32 31 41 6 9 21 18 35 19 22 3 27 -4
48 -62 22 -62 22 -65 5 -78 -10 -7 -45 -21 -77 -30 -55 -15 -60 -19 -79 -62
-11 -25 -21 -47 -23 -49 -3 -3 -22 6 -45 18 -48 27 -63 23 -90 -24 -25 -42
-57 -52 -110 -35 -37 13 -42 11 -141 -35 -119 -56 -157 -80 -167 -108 -5 -12
-18 -21 -37 -22 -37 -3 -226 -117 -276 -167 -37 -37 -39 -38 -67 -24 -57 30
-119 40 -162 26 -35 -12 -42 -11 -57 3 -24 25 -7 46 66 83 34 17 73 41 87 54
l24 23 46 -41 c24 -23 50 -42 56 -42 7 0 10 1 8 3 -2 2 -27 25 -56 51 l-52 48
-27 -27 c-15 -15 -48 -36 -73 -47 -25 -11 -60 -30 -78 -44 -17 -13 -38 -24
-47 -24 -18 0 -49 42 -71 98 -14 35 -21 42 -44 41 -21 -1 -22 -3 -5 -6 14 -3
30 -24 50 -64 17 -36 39 -66 54 -74 14 -7 38 -27 54 -44 27 -28 31 -29 50 -16
27 19 97 19 143 0 39 -16 73 -43 73 -56 0 -4 -24 -36 -54 -71 -33 -40 -60 -83
-71 -117 -25 -76 -48 -95 -139 -117 -66 -15 -78 -16 -90 -3 -19 19 -92 223
-107 298 -10 48 -10 78 0 156 8 56 10 100 5 105 -10 10 -18 -83 -18 -210 0
-79 4 -96 57 -235 31 -82 64 -178 72 -213 16 -61 16 -64 -4 -106 -12 -23 -21
-49 -21 -58 0 -24 39 -68 60 -68 25 0 33 -29 25 -98 -9 -71 -26 -99 -73 -119
-20 -8 -45 -24 -56 -35 -10 -11 -25 -17 -33 -14 -20 8 -43 -11 -43 -34 0 -25
-54 -44 -71 -24 -19 23 -82 18 -111 -9 -14 -13 -29 -30 -34 -38 -13 -21 -60
-49 -82 -49 -29 0 -41 -19 -35 -56 7 -43 -8 -44 -44 -4 -32 37 -68 41 -60 8 3
-13 9 -40 13 -61 4 -27 11 -37 21 -33 8 4 17 -4 23 -20 19 -49 13 -58 -42 -72
-69 -16 -77 -25 -55 -63 l17 -31 -32 20 c-18 10 -48 28 -65 38 l-33 18 -30
-29 c-16 -16 -30 -35 -30 -44 0 -8 -9 -24 -20 -36 -19 -20 -19 -24 -5 -65 8
-23 15 -53 15 -67 0 -13 7 -26 16 -30 10 -4 14 -16 12 -38 -1 -18 3 -39 9 -46
6 -8 14 -24 17 -36 4 -13 11 -23 16 -23 12 0 60 -52 60 -65 0 -6 -25 -19 -57
-30 -64 -23 -79 -40 -69 -79 6 -23 11 -27 29 -23 31 8 71 -26 62 -53 -4 -12
-1 -27 5 -35 9 -11 3 -26 -28 -72 -62 -91 -83 -202 -44 -235 24 -21 63 -41 69
-35 3 3 -13 15 -36 27 -39 19 -41 23 -41 64 0 57 20 111 66 181 33 49 36 59
25 77 -10 17 -10 23 5 39 16 18 15 19 -9 28 -14 5 -28 15 -32 21 -4 6 -17 9
-30 6 -18 -5 -24 -1 -29 17 -3 12 0 27 7 34 16 16 180 73 210 73 13 0 32 9 42
20 19 21 95 29 95 10 0 -6 -10 -29 -21 -52 l-21 -42 22 -18 c12 -10 28 -18 36
-18 17 0 18 -35 3 -79 -16 -46 13 -146 64 -223 l40 -59 -29 -30 c-27 -29 -31
-30 -94 -24 -47 4 -73 1 -95 -10 l-30 -15 30 7 c40 9 94 10 127 0 23 -6 35 1
90 47 35 30 82 83 106 118 34 50 36 55 10 24 -18 -21 -47 -54 -64 -74 l-31
-36 -31 35 c-63 68 -82 146 -70 289 3 32 0 36 -30 45 -38 11 -38 14 -4 102 19
50 76 133 91 133 4 0 23 -21 43 -48 32 -41 36 -53 35 -100 -2 -49 1 -56 30
-80 17 -15 39 -43 48 -62 10 -19 33 -59 52 -88 29 -43 33 -55 23 -67 -7 -8
-20 -15 -29 -16 -11 0 -12 -2 -3 -6 7 -3 23 2 36 10 13 9 45 17 72 19 44 3 49
5 47 25 -3 27 5 28 54 8 19 -8 37 -15 40 -15 2 0 34 28 71 63 37 35 90 76 117
92 94 54 115 73 115 108 0 18 -9 43 -20 57 -11 14 -20 21 -19 15 0 -5 6 -19
14 -29 33 -44 4 -92 -82 -135 -22 -11 -78 -52 -123 -91 -81 -69 -81 -70 -110
-55 -16 8 -38 15 -49 15 -23 0 -36 -16 -21 -25 23 -14 7 -25 -34 -25 -40 0
-47 4 -75 42 -17 23 -45 70 -62 103 -17 33 -40 65 -52 70 -38 17 -34 79 16
218 11 30 70 87 92 87 7 0 34 -16 59 -35 29 -22 57 -35 76 -35 37 0 50 -23 50
-88 0 -47 1 -49 37 -60 41 -13 53 -5 53 34 0 43 69 74 164 74 47 0 48 0 42
-28 l-6 -27 14 25 c8 14 12 29 9 34 -9 14 -155 1 -190 -17 -24 -13 -35 -28
-44 -60 -6 -23 -14 -36 -16 -29 -3 6 -16 12 -29 12 -22 0 -24 4 -24 44 0 65
-17 103 -58 127 -81 48 -82 76 -4 120 72 41 156 112 182 154 11 18 20 47 20
64 0 43 47 137 84 168 17 14 45 32 63 41 40 19 69 82 52 113 -15 28 -8 40 30
53 30 10 59 46 74 91 2 5 30 10 63 10 51 0 59 2 59 19 0 12 -13 25 -32 35 -18
9 -33 21 -33 28 0 15 39 43 61 43 9 0 24 9 35 21 10 12 35 29 55 40 35 17 37
17 52 1 9 -10 24 -36 33 -57 25 -63 143 -234 172 -252 15 -9 43 -32 63 -51 22
-20 44 -32 55 -30 17 3 19 13 17 85 -1 82 -15 126 -49 154 -11 9 -9 2 6 -18
23 -32 38 -98 39 -175 1 -42 -16 -50 -40 -21 -8 9 -38 33 -66 55 -57 42 -128
138 -186 255 -20 39 -41 74 -47 78 -6 3 -36 -7 -67 -24 -54 -30 -57 -30 -76
-13 -30 27 -76 98 -92 141 -11 33 -11 41 1 52 18 18 84 129 84 141 0 5 -7 22
-15 38 -11 21 -23 30 -41 30 -16 0 -36 12 -55 32 -26 29 -31 31 -50 20 -12 -8
-25 -10 -29 -5 -4 4 -25 50 -46 102 l-38 94 34 29 c50 42 230 148 253 148 13
0 27 -19 48 -65 16 -35 29 -67 29 -71 0 -4 -20 -4 -45 -2 -32 4 -45 2 -45 -7
0 -7 -7 -15 -15 -19 -24 -9 -18 -31 20 -76 19 -23 35 -46 35 -50 0 -5 50 -58
110 -118 61 -60 110 -112 110 -115 0 -3 -9 -24 -20 -48 -11 -24 -20 -53 -20
-63 0 -32 81 -199 114 -234 17 -18 41 -35 53 -38 15 -4 20 -11 16 -22 -5 -12
-2 -14 11 -9 10 4 26 7 37 7 36 0 19 17 -23 24 -60 10 -101 53 -153 164 -40
85 -44 98 -36 134 5 22 14 45 20 51 23 23 8 46 -104 159 -63 64 -115 122 -115
128 0 7 -14 28 -30 47 -31 34 -32 53 -4 53 9 0 12 5 8 11 -5 9 3 10 28 5 41
-7 65 12 60 50 -2 13 2 24 8 24 6 0 20 15 31 34 13 23 34 40 62 50 42 16 42
16 7 11 -26 -3 -46 -17 -75 -50 -22 -25 -43 -45 -46 -45 -11 0 -33 63 -31 89
3 38 23 53 143 111 l111 54 55 -12 c65 -13 82 -7 112 43 23 40 47 44 84 15 14
-11 30 -20 37 -20 6 0 22 25 36 56 37 84 49 74 111 -96 54 -151 62 -193 39
-207 -21 -13 -38 -52 -30 -75 6 -20 4 -21 -41 -16 -27 3 -59 15 -74 27 -36 30
-122 71 -147 71 -12 0 -33 9 -47 20 -37 29 -150 62 -178 52 -18 -7 -11 -10 36
-15 34 -3 80 -17 109 -33 28 -14 72 -32 97 -40 25 -8 72 -31 105 -52 47 -31
73 -40 117 -44 53 -4 71 2 47 17 -21 13 -11 64 16 81 19 13 24 23 20 39 -6 22
16 79 35 90 5 3 30 -3 56 -15 42 -18 54 -20 98 -10 27 6 60 13 71 15 12 3 24
14 27 25 3 13 13 20 29 20 13 0 29 5 36 12 19 19 14 77 -8 105 -24 30 -27 18
-4 -15 8 -12 14 -37 12 -55 -3 -28 -7 -32 -35 -35 -20 -2 -37 -12 -47 -28 -11
-16 -26 -24 -46 -24 -16 0 -40 -4 -54 -10 -20 -7 -37 -5 -72 10 -59 26 -72 25
-86 -5 -6 -14 -14 -25 -18 -25 -7 0 -100 246 -100 265 0 13 102 52 154 59 21
3 55 17 75 31 21 14 44 25 52 25 8 0 25 7 37 16 19 13 23 13 28 1 3 -8 25 -29
49 -46 48 -34 63 -64 45 -86 -6 -8 -10 -22 -7 -32 4 -13 5 -12 6 6 1 19 5 22
21 17 11 -3 29 -9 40 -12 16 -5 20 -2 20 16 0 19 4 21 28 16 15 -4 52 -10 84
-13 55 -5 57 -5 72 25 13 24 24 32 53 35 33 4 32 4 -7 3 -37 -1 -47 -5 -55
-24 -5 -12 -18 -25 -28 -28 -23 -7 -95 5 -103 17 -11 19 -44 9 -50 -15 -8 -33
-30 -23 -55 25 -11 22 -37 50 -59 64 -25 16 -40 33 -40 45 0 25 -7 25 -45 0
-16 -11 -38 -20 -47 -20 -9 0 -29 -11 -45 -24 -15 -13 -49 -26 -74 -30 l-46
-7 -11 38 c-5 21 -18 60 -28 86 -18 46 -18 49 -1 58 9 6 17 20 17 32 l0 21 16
-22 c20 -29 46 -28 92 3 33 23 38 24 49 9 12 -16 53 -12 53 6 0 4 20 30 44 56
131 147 142 253 28 279 -15 3 -56 28 -91 55 -36 28 -73 50 -83 50 -10 0 -35
16 -57 35 -46 42 -69 44 -110 9 -31 -26 -31 -26 -62 -7 -62 36 -61 46 16 123
66 67 72 70 116 70 26 0 64 -6 85 -13 40 -14 71 -10 115 14 16 9 51 12 106 10
70 -2 87 0 108 17 15 12 34 18 46 15 22 -6 50 -58 43 -78 -8 -19 33 -48 79
-56 23 -4 54 -11 68 -14 19 -5 33 0 58 21 28 23 35 25 57 15 34 -15 73 -14
125 5 69 24 127 33 138 20 4 -6 14 -34 21 -63 6 -29 29 -76 50 -106 29 -41 36
-57 28 -70 -14 -27 -3 -48 61 -115 51 -54 64 -62 95 -62 45 0 71 -25 79 -77 4
-22 16 -52 27 -66 26 -33 25 -35 -7 -39 -22 -2 -29 -10 -36 -39 l-8 -36 -94
-11 c-102 -12 -142 -26 -159 -57 -6 -11 -15 -23 -20 -26 -4 -4 -3 -10 3 -14 7
-4 16 5 22 24 13 37 48 50 165 61 47 4 89 11 94 16 5 5 10 23 12 39 3 26 8 30
36 33 17 2 32 6 32 8 0 3 -11 20 -24 37 -13 18 -27 49 -31 70 -4 21 -23 56
-41 78 -28 33 -44 70 -31 69 1 0 35 -9 76 -19 40 -11 79 -17 86 -15 7 3 19 18
25 34 10 24 8 40 -10 96 -19 55 -21 71 -11 87 10 15 10 18 -1 15 -21 -7 -20
-48 1 -111 36 -102 10 -125 -105 -91 -66 19 -90 14 -74 -16 11 -21 6 -40 -12
-40 -19 0 -69 42 -109 92 -37 47 -38 51 -25 76 20 37 94 106 136 127 19 9 56
35 82 56 l46 39 44 -20 c23 -11 53 -20 66 -20 24 0 198 144 292 243 37 38 63
57 79 57 15 0 44 18 77 50 29 28 61 50 71 50 10 0 39 -10 63 -22 42 -22 45
-27 60 -88 16 -66 35 -107 76 -170 24 -36 24 -80 -1 -80 -20 0 -65 -40 -65
-59 0 -9 -23 -39 -50 -66 l-51 -50 -97 -12 -97 -11 91 1 91 2 56 48 c37 31 60
60 65 80 6 24 16 35 41 43 22 7 38 21 46 42 9 21 27 36 58 50 47 21 67 45 67
81 0 36 33 91 67 111 20 12 33 27 33 39 0 11 9 25 20 31 20 11 28 50 10 50
-23 0 -7 21 20 26 19 4 37 18 50 40 13 20 32 35 50 39 34 8 44 18 59 68 7 20
16 37 19 37 4 0 16 7 26 15 16 12 17 17 6 30 -8 10 -10 26 -4 52 5 21 9 54 11
73 1 19 5 50 9 68 5 26 2 40 -16 64 -16 22 -19 33 -11 41 6 6 11 48 11 98 0
66 -4 90 -16 100 -33 27 -47 71 -40 131 5 56 5 58 -21 64 -15 4 -34 2 -45 -5
-11 -7 -21 -11 -22 -9 -1 2 -13 21 -28 43 -14 22 -29 50 -33 63 -3 12 -11 22
-16 22 -5 0 -30 19 -56 43 -44 39 -45 40 -24 9z m-3431 -3102 c5 0 15 7 22 15
12 14 17 12 44 -13 17 -16 43 -32 57 -35 14 -4 31 -18 38 -33 10 -23 8 -32
-26 -83 -20 -31 -43 -60 -50 -64 -31 -19 1 -105 71 -190 37 -46 43 -57 27 -57
-18 0 -71 -45 -71 -61 0 -4 16 -16 37 -26 48 -24 40 -38 -21 -38 -48 0 -50 -1
-75 -44 -28 -47 -55 -70 -68 -58 -4 4 -12 51 -18 105 -12 114 -16 117 -115 83
-33 -12 -64 -21 -68 -21 -5 0 -16 32 -25 71 -19 77 -16 87 32 133 30 29 31 32
31 121 0 76 5 105 29 171 16 43 35 108 42 144 l12 64 43 -92 c24 -51 47 -92
52 -92z m-118 107 c0 -2 -18 -54 -40 -116 -34 -96 -40 -124 -40 -193 0 -102
-11 -118 -84 -118 -53 1 -133 13 -142 23 -3 3 -11 33 -18 67 -9 44 -10 63 -2
65 6 2 35 8 64 14 111 23 134 42 163 139 12 41 71 122 90 122 5 0 9 -1 9 -3z
m-200 -437 l60 0 -6 -29 c-3 -16 1 -61 10 -101 15 -66 15 -76 0 -131 -19 -66
-32 -75 -99 -65 l-43 7 9 37 c10 43 12 114 3 136 -3 9 -14 16 -24 16 -49 0
-70 61 -40 113 19 32 24 35 46 26 14 -5 52 -9 84 -9z m273 -240 c8 -87 1 -171
-16 -182 -19 -12 -59 -9 -114 7 -39 12 -54 22 -68 49 -18 34 -18 37 -2 90 20
63 21 63 102 93 87 31 89 30 98 -57z m-210 -129 c23 -39 21 -74 -4 -97 -12
-10 -44 -50 -71 -89 -27 -38 -57 -73 -66 -77 -35 -14 -76 -7 -109 18 -33 25
-35 25 -60 9 -25 -17 -27 -17 -44 6 -23 31 -22 103 3 125 10 10 18 25 18 36 0
13 7 18 29 18 16 0 35 7 42 16 30 36 102 62 174 63 68 1 71 0 88 -28z m111
-67 c39 -13 52 -14 77 -4 16 7 31 11 34 9 8 -8 -34 -89 -46 -89 -29 0 -90 -56
-120 -109 -19 -32 -36 -79 -40 -110 -4 -30 -14 -61 -22 -69 -33 -33 -156 88
-129 127 6 9 20 34 31 56 11 22 47 74 81 115 33 41 60 78 60 83 0 11 22 9 74
-9z m-524 -46 c24 -17 30 -29 30 -58 0 -27 11 -50 40 -90 45 -60 47 -66 23
-92 -13 -15 -32 -18 -107 -18 -87 0 -94 2 -155 38 -53 30 -66 43 -74 71 -11
44 -3 61 28 61 18 0 42 17 80 55 62 62 88 68 135 33z m171 -152 c23 -20 36
-23 71 -19 35 5 41 3 31 -8 -31 -32 -3 -95 64 -140 l47 -32 -40 -35 c-21 -19
-56 -46 -77 -60 l-38 -26 -68 22 c-93 30 -104 44 -91 113 6 29 22 70 36 90 25
36 25 38 9 63 -34 52 5 75 56 32z m-443 -30 c26 -13 72 -37 102 -54 48 -28 65
-32 130 -32 97 0 104 -5 96 -65 -6 -39 -13 -50 -40 -66 -19 -11 -41 -36 -51
-60 -20 -44 -64 -86 -98 -94 -12 -3 -40 3 -62 15 -56 29 -96 26 -157 -13 -56
-35 -148 -77 -169 -77 -22 0 -59 42 -59 67 0 13 -6 39 -14 58 -13 30 -13 35 4
50 10 9 20 29 24 46 3 18 15 34 31 41 27 12 44 7 117 -40 49 -32 69 -19 32 19
-34 35 -28 43 46 62 30 8 55 18 54 23 -5 42 -29 104 -40 104 -8 0 -14 9 -14
20 0 26 10 25 68 -4z m340 -238 c7 -7 12 -23 12 -37 0 -14 10 -35 22 -49 l23
-24 -30 -21 c-77 -56 -94 -77 -105 -132 -13 -64 -22 -63 -72 3 -47 62 -67 104
-51 109 35 12 80 54 106 98 39 66 66 82 95 53z m-271 -129 c12 -5 34 -26 49
-48 l26 -40 -47 -61 c-45 -56 -50 -60 -90 -60 -28 0 -47 -6 -59 -19 -10 -11
-37 -21 -66 -25 -47 -6 -50 -5 -92 36 -43 43 -73 92 -63 107 2 5 30 18 62 30
32 11 90 38 128 60 71 39 92 42 152 20z"/>
<path d="M1923 6088 c-37 -58 -42 -137 -10 -173 24 -28 97 -45 198 -45 31 0
73 -7 92 -15 22 -9 68 -15 116 -15 71 0 82 2 95 22 28 39 20 91 -20 140 -43
52 -74 77 -94 78 -8 0 -1 -9 15 -19 17 -10 47 -37 68 -60 41 -46 49 -90 21
-129 -13 -19 -24 -22 -89 -22 -42 0 -89 6 -107 14 -18 8 -85 19 -148 24 -107
10 -116 12 -138 38 -25 28 -25 42 -5 124 11 45 34 48 163 20 91 -20 101 -20
142 -6 30 10 36 15 20 16 -13 0 -32 -5 -43 -10 -14 -8 -42 -5 -105 10 -98 23
-159 26 -171 8z"/>
<path d="M3534 5456 c-60 -28 -84 -58 -84 -104 0 -28 5 -35 34 -47 19 -8 37
-19 41 -25 9 -15 25 -12 25 4 0 26 15 25 61 -4 24 -15 54 -31 67 -35 20 -6 22
-3 22 28 0 23 -10 47 -30 72 -30 37 -37 54 -42 105 -4 34 -31 36 -94 6z m87
-30 c3 -20 20 -56 37 -80 32 -44 42 -86 21 -86 -6 0 -36 14 -67 32 -52 30 -56
30 -68 13 -12 -17 -15 -17 -31 -3 -10 8 -26 18 -35 21 -23 8 -23 45 -2 76 17
24 111 73 129 68 5 -2 13 -20 16 -41z"/>
<path d="M2537 5398 c-14 -11 -15 -25 -10 -90 3 -43 9 -78 12 -78 3 0 30 22
59 49 54 51 68 91 40 119 -16 16 -80 15 -101 0z"/>
</g>
</svg>
