<?xml version="1.0" standalone="no"?>
<!DOCTYPE svg PUBLIC "-//W3C//DTD SVG 20010904//EN"
 "http://www.w3.org/TR/2001/REC-SVG-20010904/DTD/svg10.dtd">
<svg version="1.0" xmlns="http://www.w3.org/2000/svg"
 width="998.000000pt" height="998.000000pt" viewBox="0 0 998.000000 998.000000"
 preserveAspectRatio="xMidYMid meet">
<metadata>
Created by potrace 1.16, written by Peter Selinger 2001-2019
</metadata>
<g transform="translate(0.000000,998.000000) scale(0.100000,-0.100000)"
fill="#000000" stroke="none">
<path d="M8130 9135 c-13 -14 -31 -25 -39 -25 -41 -1 -81 -60 -81 -121 0 -40
5 -50 39 -82 38 -35 39 -37 30 -78 -6 -23 -22 -58 -37 -78 -16 -20 -47 -67
-71 -106 -23 -38 -57 -91 -76 -117 -18 -26 -45 -79 -60 -118 -16 -42 -36 -77
-50 -86 -13 -8 -30 -33 -39 -55 -9 -21 -21 -39 -28 -39 -6 0 -24 -11 -38 -25
-15 -14 -56 -45 -90 -68 -66 -44 -75 -54 -85 -99 -4 -22 -14 -29 -48 -39 -62
-16 -90 -34 -106 -66 -8 -15 -27 -44 -43 -65 -25 -33 -34 -37 -86 -41 -31 -3
-85 -13 -119 -22 -59 -17 -64 -17 -89 0 -23 15 -28 15 -40 3 -13 -12 -10 -20
18 -59 30 -39 33 -51 33 -111 0 -80 -10 -94 -130 -174 -74 -49 -87 -54 -170
-65 -176 -22 -167 -19 -183 -68 -11 -33 -22 -46 -48 -57 -19 -8 -34 -19 -34
-24 0 -6 -18 -30 -41 -54 -39 -43 -40 -46 -29 -84 17 -66 40 -86 105 -92 l58
-5 28 -54 c16 -30 29 -55 29 -56 0 -1 -27 3 -61 8 -42 7 -57 13 -50 20 16 16
13 43 -4 57 -12 10 -18 8 -34 -11 l-20 -24 -7 32 c-5 26 -11 32 -39 35 -62 7
-74 -12 -24 -38 l32 -16 -50 -27 c-28 -15 -82 -55 -121 -89 -72 -62 -76 -63
-210 -86 -18 -3 -65 -20 -105 -38 -79 -34 -124 -39 -162 -14 -26 17 -85 22
-85 7 0 -4 -11 -20 -25 -35 -28 -31 -70 -34 -118 -9 -18 9 -52 15 -79 14 -57
-2 -92 25 -82 63 4 16 -4 39 -26 75 -26 42 -37 51 -60 51 -17 0 -40 11 -60 30
-39 36 -34 48 9 26 41 -22 41 -22 41 24 0 23 9 58 20 80 11 22 20 51 20 66 0
48 44 108 110 148 59 37 61 39 44 57 -9 10 -22 19 -27 19 -6 0 -31 13 -56 29
-25 15 -90 45 -144 66 -85 33 -102 37 -119 26 -34 -21 -46 2 -24 44 11 19 16
38 13 41 -4 4 -33 18 -64 32 -65 29 -54 28 -353 13 -113 -6 -218 -11 -234 -11
-40 -1 -172 63 -186 90 -22 42 -48 14 -77 -85 -3 -11 -19 -35 -35 -53 -26 -30
-32 -51 -31 -107 1 -32 2 -33 21 -28 22 5 85 -60 106 -110 16 -37 36 -139 29
-149 -2 -5 -24 -8 -48 -8 -61 0 -77 -26 -83 -134 -4 -70 -1 -89 17 -124 12
-23 21 -60 21 -84 0 -24 6 -53 13 -64 41 -72 49 -90 54 -137 7 -61 17 -77 50
-77 13 0 50 -13 83 -30 l59 -30 35 43 c27 33 42 43 70 44 31 3 42 -3 83 -46
40 -41 56 -50 97 -57 37 -5 60 -16 90 -43 85 -76 109 -91 179 -112 40 -12 77
-27 84 -33 7 -6 13 -40 14 -76 1 -50 -3 -75 -20 -108 -28 -55 -99 -151 -142
-194 -19 -18 -42 -48 -51 -66 -21 -39 -48 -43 -48 -7 0 38 -36 32 -99 -15 -69
-52 -101 -53 -124 -4 -20 41 -42 40 -43 -2 0 -39 -83 -127 -115 -122 -18 3
-24 -5 -39 -51 -25 -75 -39 -87 -72 -61 -34 26 -37 25 -137 -14 -69 -27 -86
-39 -96 -63 -12 -28 -38 -43 -77 -43 -9 0 -40 25 -69 55 -28 30 -60 55 -71 55
-11 0 -26 -13 -36 -30 -19 -34 -25 -36 -42 -15 -21 25 -39 17 -46 -20 -7 -39
-19 -45 -29 -15 -6 18 -14 21 -58 18 -49 -3 -53 -5 -62 -35 -6 -17 -19 -40
-28 -51 -17 -18 -17 -23 -4 -49 9 -16 18 -48 22 -70 7 -47 -9 -63 -63 -63 -34
0 -45 -11 -61 -63 -14 -42 -28 -52 -86 -62 -45 -8 -97 -36 -138 -74 -15 -14
-47 -35 -70 -46 l-42 -20 3 -67 2 -67 -37 -19 c-23 -11 -59 -18 -88 -18 -48 1
-53 4 -111 63 l-61 62 -31 -19 c-16 -10 -33 -27 -36 -38 -6 -18 -30 -31 -114
-63 -19 -6 -59 -32 -90 -56 -30 -23 -60 -43 -66 -43 -35 1 -64 35 -106 122
l-45 93 -57 3 c-62 3 -71 -5 -44 -41 12 -15 12 -27 -1 -80 -9 -36 -16 -111
-16 -177 -1 -129 -2 -125 129 -457 64 -160 104 -293 104 -345 0 -35 -17 -78
-41 -104 -20 -21 -20 -21 1 -78 23 -60 47 -81 87 -73 36 7 46 -29 39 -133 -9
-141 -30 -177 -114 -201 -29 -8 -52 -23 -70 -46 -24 -32 -29 -34 -64 -29 -34
6 -39 4 -53 -23 -8 -16 -12 -37 -9 -45 6 -16 -15 -28 -71 -42 -19 -5 -25 -2
-25 10 0 23 -48 40 -76 27 -12 -5 -31 -7 -42 -4 -23 6 -95 -60 -107 -97 -4
-12 -21 -28 -39 -35 -18 -8 -38 -20 -44 -28 -7 -8 -23 -12 -40 -9 -19 2 -33
-3 -47 -18 -18 -20 -18 -22 -1 -51 11 -19 16 -39 12 -55 -6 -24 -7 -24 -36 -9
-17 9 -41 33 -55 55 -19 29 -32 40 -50 40 -32 0 -39 -18 -24 -56 7 -16 15 -53
18 -83 6 -58 26 -77 39 -40 11 28 16 20 36 -59 20 -78 20 -75 -2 -68 -10 4
-50 -5 -88 -19 -38 -14 -70 -25 -71 -25 -1 0 -7 -9 -13 -21 -10 -17 -6 -25 32
-60 53 -48 40 -50 -32 -4 -30 19 -62 35 -71 35 -9 0 -24 9 -34 20 -25 28 -62
16 -107 -34 -28 -32 -35 -47 -31 -67 4 -22 -1 -30 -26 -45 -37 -22 -37 -23 -9
-77 11 -23 24 -67 27 -97 5 -47 10 -57 34 -68 30 -15 32 -24 15 -72 -10 -31
-9 -35 15 -55 15 -11 27 -30 27 -42 0 -24 24 -53 45 -53 17 0 75 -69 75 -90 0
-10 -29 -24 -90 -44 -99 -31 -116 -47 -106 -100 9 -47 31 -74 47 -58 20 19 53
14 64 -11 7 -15 18 -22 38 -22 27 1 27 0 8 -15 -11 -8 -23 -28 -27 -43 -5 -23
-3 -29 15 -34 11 -3 21 -11 21 -18 0 -7 -25 -49 -55 -95 -30 -45 -59 -99 -65
-119 -15 -51 -30 -184 -24 -208 5 -18 93 -70 147 -87 9 -3 17 -12 17 -20 0
-13 20 -26 41 -26 5 0 26 16 48 35 41 38 79 56 179 87 62 19 67 19 128 2 76
-20 101 -13 136 39 12 19 41 44 65 57 33 18 56 43 105 119 34 53 66 99 72 103
6 4 29 8 52 8 30 0 48 7 68 25 24 22 36 25 100 25 83 0 102 15 64 50 l-22 20
35 0 c19 0 51 -9 72 -20 58 -31 47 -37 167 82 81 81 148 132 195 152 17 7 56
32 88 56 57 43 63 54 59 118 0 13 -15 39 -31 58 -35 39 -37 53 -16 94 14 27
14 30 -2 39 -11 5 -61 6 -119 2 -83 -6 -112 -13 -158 -36 -46 -23 -58 -34 -66
-64 -5 -20 -10 -46 -10 -58 0 -27 -15 -30 -28 -7 -7 12 -16 14 -33 9 -31 -10
-34 -7 -36 35 -6 154 -27 195 -118 236 -61 26 -62 28 -70 80 l-6 39 65 37 c35
21 69 38 75 38 6 0 23 14 38 30 15 17 41 39 58 50 17 10 57 49 90 86 59 67 59
68 61 133 1 38 9 81 19 101 51 107 98 180 116 180 6 0 24 11 41 25 16 14 37
25 47 25 26 0 46 28 66 94 15 46 16 62 7 75 -33 44 -26 71 16 71 44 0 104 57
117 111 13 51 50 78 84 59 28 -14 94 -13 116 4 23 17 14 43 -20 56 -14 5 -28
17 -31 25 -4 9 -18 15 -35 15 -27 0 -28 1 -17 25 15 33 67 65 106 65 23 0 31
5 36 23 4 14 29 35 75 59 l70 38 31 -38 c17 -20 35 -55 41 -77 6 -22 58 -108
117 -194 100 -144 111 -156 172 -190 37 -21 74 -51 85 -69 23 -36 72 -56 93
-37 16 15 17 55 3 174 -14 109 -38 164 -87 193 -46 27 -43 38 12 38 72 0 50
23 -33 35 -65 9 -75 14 -123 59 -30 29 -58 65 -66 88 -8 22 -37 80 -65 129
-50 87 -52 91 -45 146 6 51 13 68 51 119 13 18 -11 60 -58 104 -55 50 -100 95
-113 111 -6 8 -45 42 -87 76 -60 51 -79 73 -97 118 -12 30 -28 55 -35 55 -17
0 -55 52 -55 75 0 13 6 16 25 11 28 -7 34 10 13 33 -11 11 -9 13 12 7 69 -19
97 -19 119 3 17 17 19 25 11 46 -15 38 -13 43 20 60 20 11 33 26 37 46 6 33
43 67 82 75 14 3 54 15 88 26 47 14 67 17 82 9 11 -6 28 -11 39 -11 37 0 122
-31 147 -54 14 -13 45 -29 70 -35 25 -6 65 -16 90 -22 27 -7 80 -37 127 -70
77 -56 83 -59 137 -57 31 1 74 -2 96 -7 l40 -8 -27 30 c-48 50 -33 109 37 149
17 10 18 15 8 48 -9 30 -9 39 4 52 9 8 19 30 22 47 10 46 54 49 128 7 56 -32
57 -32 91 -15 20 9 61 19 91 22 71 7 91 17 91 48 0 22 4 25 39 25 61 0 86 27
85 90 0 45 -5 56 -33 82 -28 27 -32 35 -29 76 3 46 4 47 33 44 17 -2 37 -10
46 -18 29 -26 49 -17 49 21 0 45 15 51 65 25 29 -15 59 -20 112 -20 63 0 74 3
87 22 9 12 16 33 16 45 0 22 3 23 100 23 63 0 100 4 100 11 0 5 -11 27 -25 47
-16 24 -25 51 -25 77 0 46 -28 113 -60 145 -11 11 -25 32 -30 45 -8 22 -7 25
15 25 13 0 27 5 31 11 9 15 24 -9 24 -38 0 -12 5 -25 12 -29 23 -14 92 -3 115
18 17 16 31 20 62 15 48 -6 88 -35 202 -143 47 -45 95 -87 107 -93 26 -14 37
1 22 28 -5 11 -10 27 -10 36 0 14 3 14 26 -1 29 -20 41 -12 46 30 2 17 13 37
28 47 34 25 168 51 270 52 47 1 88 7 92 12 4 6 8 30 8 55 0 61 8 70 63 68 26
0 51 2 54 6 4 3 -12 23 -34 44 -39 36 -54 69 -77 174 -3 14 -24 40 -45 57 -33
27 -72 95 -59 105 1 2 53 -9 113 -25 61 -15 117 -28 127 -28 9 -1 27 19 43 47
24 41 26 51 15 77 -69 179 -73 219 -23 231 31 8 56 2 223 -61 l125 -47 120 5
c122 6 351 25 393 33 12 3 61 43 108 90 77 77 86 89 80 114 -4 25 0 32 31 51
28 18 39 20 54 11 22 -14 26 -8 35 47 7 45 26 71 50 71 8 0 37 12 65 26 52 28
69 53 69 102 0 35 24 102 39 112 7 4 11 15 9 24 -2 13 8 21 35 31 54 19 67 33
67 75 0 32 4 39 25 44 46 12 59 76 15 76 -11 0 -20 3 -20 8 0 12 43 37 75 42
24 4 36 16 58 57 25 47 33 54 67 59 57 9 68 21 88 94 15 58 21 67 55 83 41 20
48 42 17 52 -25 8 -26 35 0 105 17 45 18 59 8 86 -9 27 -9 37 5 58 32 48 19
111 -31 154 l-27 22 22 18 c20 16 22 24 19 143 -2 112 -5 129 -25 157 -12 18
-27 32 -32 32 -5 0 -20 25 -33 55 -24 53 -24 55 -8 121 15 64 15 67 -3 80 -30
22 -91 18 -108 -7 -15 -20 -16 -20 -41 24 -14 24 -35 52 -46 62 -11 10 -20 27
-20 37 0 33 -18 55 -57 71 -35 14 -123 103 -123 125 0 5 10 21 21 36 12 15 20
28 18 30 -2 2 -24 6 -49 10 -41 6 -49 4 -70 -19z m88 -12 c-31 -37 -29 -51 22
-111 30 -38 63 -65 88 -75 33 -13 41 -22 46 -50 4 -19 16 -43 27 -53 12 -11
32 -40 45 -67 22 -42 27 -46 44 -37 11 6 20 15 20 19 0 16 33 22 67 10 38 -12
37 -9 18 -56 -8 -19 -15 -48 -15 -64 0 -37 45 -138 65 -145 36 -14 41 -44 46
-253 0 -22 -8 -42 -22 -57 l-23 -24 37 -36 c48 -47 53 -69 28 -132 -17 -42
-18 -57 -9 -76 8 -19 7 -34 -6 -66 -21 -54 -21 -109 2 -126 16 -12 15 -13 -8
-22 -37 -14 -51 -35 -69 -104 -16 -60 -18 -62 -54 -70 -58 -12 -75 -25 -98
-73 -14 -31 -27 -45 -41 -45 -28 0 -76 -27 -88 -49 -14 -28 -13 -31 15 -31 40
0 33 -36 -11 -55 -34 -14 -36 -17 -31 -51 6 -35 5 -36 -49 -61 -29 -13 -54
-30 -54 -37 0 -7 -9 -31 -20 -54 -11 -22 -20 -51 -20 -64 0 -13 -5 -39 -10
-58 -11 -39 -60 -74 -122 -85 -33 -6 -40 -3 -67 27 -49 54 -118 204 -124 269
-6 64 -19 90 -56 112 -38 22 -135 45 -166 40 -30 -6 -124 -88 -144 -127 -12
-21 -22 -26 -52 -26 -34 0 -40 4 -69 53 -40 65 -80 98 -307 250 -59 39 -76 57
-53 57 5 0 19 18 30 40 30 60 25 121 -17 183 -36 53 -37 65 -5 48 29 -16 74
-14 129 5 26 9 70 17 97 18 43 2 53 7 78 37 16 18 37 48 45 64 21 40 39 52 96
65 51 13 57 18 72 70 10 33 31 51 198 165 23 16 37 33 37 46 0 12 16 36 35 53
21 19 42 53 52 82 20 60 58 131 88 164 12 14 40 54 61 90 21 36 51 81 66 100
15 21 29 55 33 83 7 47 6 49 -34 86 -30 28 -41 46 -41 67 0 44 34 92 79 110
22 8 42 22 45 30 3 9 20 14 47 14 39 0 41 -1 27 -17z m-3851 -1542 c76 -33
106 -37 148 -21 15 6 37 7 51 4 21 -5 23 -10 18 -43 -15 -92 22 -179 119 -287
l45 -49 98 -10 99 -10 -2 -30 c-1 -16 -2 -78 -2 -137 0 -151 -1 -153 -82 -193
-79 -40 -91 -42 -150 -16 -26 12 -72 21 -115 22 l-71 3 -62 -54 c-79 -69 -171
-176 -171 -199 0 -9 6 -23 13 -30 10 -10 8 -12 -8 -9 -16 3 -21 13 -25 58 -3
35 -15 72 -33 103 -20 33 -30 65 -32 103 -2 30 -11 66 -20 80 -23 35 -29 114
-15 175 14 58 19 62 85 69 56 6 53 -1 36 102 -6 35 -21 73 -39 100 -42 61 -88
102 -103 93 -26 -17 -1 86 31 121 16 19 30 40 30 46 0 6 8 29 17 50 l17 38 25
-24 c14 -13 58 -38 98 -55z m639 -17 c38 -14 73 -29 77 -33 4 -4 0 -22 -10
-39 -17 -30 -17 -32 -1 -49 14 -13 23 -15 45 -7 23 8 39 5 90 -18 35 -15 68
-28 74 -28 6 0 49 -21 96 -46 l85 -47 -53 -34 c-66 -41 -109 -95 -109 -138 0
-17 -9 -49 -21 -70 -11 -22 -21 -56 -22 -77 l-2 -36 -28 14 c-47 25 -63 -3
-27 -48 l19 -25 -28 -33 c-27 -33 -29 -33 -60 -20 -25 10 -40 10 -71 1 -31 -9
-46 -9 -71 2 l-33 13 2 123 c1 67 4 137 8 155 8 43 -15 65 -69 68 -23 1 -58 2
-77 3 -60 2 -77 14 -133 88 -74 97 -78 108 -84 197 l-6 77 140 5 c77 3 148 10
159 16 27 16 33 15 110 -14z m2099 -159 c176 -121 217 -156 242 -204 l23 -43
-64 -82 c-39 -49 -93 -104 -135 -135 -39 -28 -115 -97 -170 -151 -56 -55 -106
-100 -113 -100 -7 0 -49 16 -93 35 -77 34 -81 35 -102 18 -12 -10 -53 -44 -93
-76 -39 -32 -91 -65 -115 -74 -32 -11 -62 -33 -106 -81 l-61 -67 -30 35 c-58
69 -85 116 -101 180 -29 119 -31 109 37 167 33 29 89 70 124 90 34 20 62 43
62 49 0 6 -10 19 -22 27 l-23 16 22 0 c15 1 24 -8 32 -29 11 -33 31 -39 51
-15 20 24 33 6 14 -22 -20 -32 -11 -39 61 -49 27 -3 60 -10 73 -15 28 -11 30
8 3 42 -10 14 -26 41 -34 61 -18 43 -42 58 -89 56 -48 -2 -76 17 -88 60 -14
53 -14 54 25 92 19 19 35 39 35 44 0 6 17 20 37 31 24 13 40 31 47 52 16 47
23 51 106 58 117 10 159 23 234 71 38 24 74 44 78 44 5 0 65 -38 133 -85z
m625 -126 c19 -5 48 -19 63 -31 24 -20 30 -34 37 -91 10 -80 59 -188 120 -266
38 -48 41 -55 34 -97 -5 -38 -9 -44 -26 -38 -12 4 -33 -4 -59 -22 -34 -23 -39
-32 -37 -61 2 -28 -4 -39 -32 -61 -19 -15 -44 -38 -55 -52 -63 -77 -64 -77
-171 -84 -54 -4 -118 -11 -141 -16 -71 -17 -292 -12 -349 6 -27 9 -53 20 -59
24 -5 4 -26 11 -45 15 -19 4 -49 16 -66 26 -21 13 -50 19 -87 19 -53 0 -57 -2
-73 -31 -15 -30 -14 -35 21 -136 36 -104 36 -105 18 -144 -21 -48 -28 -48
-161 -13 -53 14 -99 26 -102 26 -34 2 -39 -16 -15 -63 15 -28 15 -30 -10 -39
-33 -13 -44 -5 -152 101 -50 49 -83 90 -83 102 0 51 139 211 194 223 30 6 129
78 186 136 l29 29 38 -19 c71 -37 131 -52 158 -42 13 5 55 42 92 81 37 40 110
105 161 146 51 41 122 110 158 154 65 78 66 79 113 79 41 0 49 3 64 30 22 37
73 88 112 112 30 18 45 18 125 -3z m-2440 -419 c21 0 65 -83 57 -104 -16 -42
53 -92 110 -80 20 4 43 -2 72 -17 38 -19 47 -20 83 -10 26 8 45 22 56 42 20
35 32 36 89 8 53 -25 82 -22 178 18 73 31 195 58 206 45 3 -4 14 -43 23 -87
17 -82 39 -124 109 -207 37 -45 38 -48 23 -70 -9 -12 -16 -32 -16 -44 0 -26
127 -165 190 -209 37 -26 45 -28 73 -17 27 10 34 9 63 -13 23 -18 35 -36 39
-63 11 -65 37 -126 70 -159 l31 -31 -41 0 c-23 1 -47 -2 -53 -6 -6 -4 -14 -34
-18 -67 -6 -57 -8 -60 -30 -55 -25 7 -210 -17 -278 -35 -50 -13 -96 -54 -96
-86 0 -26 -3 -28 -30 -11 -28 18 -44 0 -31 -35 6 -16 7 -27 1 -27 -5 0 -49 37
-97 83 -123 116 -161 143 -211 152 -36 6 -47 4 -65 -13 -29 -26 -83 -38 -102
-22 -8 7 -15 25 -15 41 0 35 -16 46 -38 25 -11 -9 -27 -13 -40 -9 -37 9 -30
-48 11 -94 39 -44 67 -109 67 -156 0 -17 9 -45 20 -62 11 -16 20 -34 20 -38 0
-4 -36 -5 -79 -2 -95 7 -118 -2 -123 -48 l-3 -32 -75 -3 c-63 -3 -82 0 -118
20 l-43 23 -20 -24 c-11 -14 -17 -31 -14 -42 4 -13 1 -19 -9 -19 -9 0 -16 5
-16 10 0 6 -7 10 -15 10 -8 0 -23 20 -33 43 -23 52 -60 89 -113 113 -26 11
-40 24 -41 38 0 12 -2 27 -2 35 -2 25 -22 22 -61 -9 -21 -16 -49 -30 -62 -30
-33 0 -77 -24 -96 -54 -11 -16 -29 -26 -57 -30 -132 -19 -117 -22 -125 22 -3
21 -22 74 -41 118 -19 43 -34 85 -34 92 0 7 12 18 26 24 22 10 25 17 21 45 -7
41 6 43 23 3 9 -22 19 -30 39 -31 45 -2 55 2 108 43 53 40 73 42 73 8 0 -49
57 -25 89 38 11 20 28 42 39 49 23 14 128 162 148 209 17 41 18 130 1 164 -9
19 -32 31 -95 52 -69 23 -95 38 -158 93 -47 41 -83 65 -99 65 -42 0 -79 20
-121 65 -38 41 -44 44 -80 39 -29 -5 -48 -16 -74 -45 l-35 -39 -50 25 c-50 26
-84 59 -85 82 0 7 46 60 103 118 l103 105 77 0 c58 0 86 -5 117 -21 50 -26 87
-21 176 26 64 34 65 34 99 18 30 -14 40 -15 75 -3 31 10 46 11 65 2 37 -17 41
-16 77 24 23 25 38 34 53 30 11 -3 27 -6 35 -6z m-741 -1260 c21 -49 62 -173
58 -175 -1 0 -25 -13 -53 -28 -28 -14 -75 -32 -105 -38 -66 -14 -86 -30 -100
-83 -11 -47 -30 -96 -35 -96 -2 0 -24 16 -50 35 -58 44 -103 47 -133 9 -12
-15 -21 -33 -21 -41 0 -23 -56 -73 -82 -73 -13 0 -50 10 -83 21 l-60 22 -55
-33 c-30 -18 -109 -59 -176 -90 -123 -59 -157 -87 -169 -139 -6 -27 -8 -28
-35 -18 -26 10 -38 5 -137 -55 -199 -121 -305 -199 -323 -240 l-16 -37 -45 26
c-46 26 -150 53 -207 53 -19 0 -47 -10 -64 -22 -34 -24 -49 -19 -81 24 -18 25
-19 26 0 47 25 30 101 78 138 87 42 10 93 42 99 62 3 9 14 22 25 29 17 11 25
7 59 -25 22 -20 45 -47 51 -59 10 -20 19 -22 84 -22 60 0 78 4 110 25 39 26
43 39 28 92 -13 44 -7 56 39 77 22 10 47 26 57 37 25 27 117 78 142 78 41 0
78 28 97 74 16 39 23 45 57 49 21 3 44 11 52 17 19 16 19 73 0 125 -8 23 -10
42 -5 45 5 3 16 22 24 42 12 28 22 37 48 40 26 4 38 0 56 -19 18 -20 26 -23
37 -13 8 7 15 23 15 36 0 28 7 30 32 8 20 -19 42 -8 53 27 10 32 36 22 92 -37
49 -51 57 -56 85 -50 45 9 78 33 78 57 0 11 8 22 18 25 24 8 91 34 129 50 28
12 34 11 57 -7 39 -30 58 -21 91 46 21 43 35 60 47 57 9 -2 22 4 30 12 20 23
24 20 47 -34z m511 -125 c76 -43 123 -117 81 -128 -14 -3 -20 -16 -23 -46 -4
-50 3 -71 36 -104 20 -20 26 -36 26 -70 0 -53 -11 -65 -70 -69 -41 -3 -46 -6
-54 -35 -10 -33 -33 -43 -103 -43 -19 0 -48 -8 -64 -17 -28 -17 -30 -16 -99
17 -83 40 -118 36 -135 -17 -6 -18 -14 -35 -17 -39 -8 -8 -5 -15 -101 228
l-74 186 46 18 c25 9 56 25 69 35 14 10 58 22 112 30 83 11 93 15 127 49 26
25 51 39 79 43 23 4 52 16 65 26 l24 20 11 -27 c7 -16 33 -39 64 -57z m-595
-188 c52 -119 155 -395 161 -433 6 -38 4 -42 -19 -48 -25 -6 -57 -58 -57 -93
0 -10 8 -29 17 -43 16 -23 16 -23 -3 -15 -10 5 -45 8 -77 6 -54 -2 -60 0 -115
42 -76 59 -126 83 -197 96 -32 6 -59 11 -60 11 -1 0 -19 13 -39 29 -23 19 -62
35 -109 46 -39 9 -80 20 -89 25 -11 6 -34 3 -70 -9 -29 -10 -69 -21 -89 -25
-48 -9 -87 -40 -105 -85 -8 -20 -27 -43 -43 -52 l-28 -16 -27 57 c-25 52 -26
61 -16 96 6 22 17 46 23 55 7 9 94 58 193 108 177 90 183 92 210 78 16 -8 52
-18 79 -21 59 -8 94 11 115 66 31 78 70 87 139 33 24 -19 49 -35 56 -35 12 0
28 33 60 122 14 41 26 52 58 57 4 0 19 -23 32 -52z m-2119 -427 c16 0 28 -16
54 -72 43 -97 65 -125 99 -133 18 -4 45 -26 70 -56 23 -27 46 -49 51 -49 5 0
22 11 38 25 47 40 155 29 265 -26 80 -41 76 -67 -32 -183 -45 -49 -72 -87 -76
-108 -6 -30 -23 -84 -47 -150 -11 -31 -70 -59 -186 -88 -106 -27 -126 -26
-141 6 -22 49 -113 288 -142 373 -35 102 -39 220 -12 344 13 62 14 83 5 98
-17 27 -15 32 11 25 12 -3 31 -6 43 -6z m1154 -94 c21 -45 42 -95 46 -110 l7
-29 -49 6 c-27 3 -60 9 -73 13 -22 6 -23 5 -19 -19 4 -22 1 -27 -14 -27 -43 0
-24 -70 30 -109 16 -11 34 -38 42 -61 10 -30 33 -58 87 -105 40 -35 79 -68 85
-72 7 -4 19 -20 27 -35 8 -16 31 -38 52 -50 42 -26 99 -92 99 -116 0 -9 -8
-25 -19 -36 -25 -29 -44 -107 -36 -147 4 -19 17 -50 30 -70 31 -48 81 -148 89
-179 3 -14 33 -49 65 -77 55 -49 65 -54 128 -62 l68 -8 -57 -2 -57 -1 35 -32
c19 -18 46 -43 59 -54 27 -25 42 -74 50 -164 3 -36 8 -73 11 -83 3 -9 3 -31
-1 -48 -6 -25 -10 -29 -28 -23 -12 4 -37 24 -56 46 -18 21 -54 49 -80 62 -25
13 -58 37 -72 53 -52 55 -193 268 -211 318 -24 62 -66 125 -85 125 -21 0 -130
-57 -151 -80 -19 -21 -19 -20 -85 50 -65 69 -102 128 -126 202 -12 37 -12 39
23 72 20 18 36 43 36 54 0 11 18 43 40 71 22 28 40 59 40 69 0 10 -13 39 -30
65 -28 44 -32 47 -72 45 -34 -1 -45 3 -57 22 -9 14 -26 36 -38 50 l-21 25 -32
-30 c-34 -33 -38 -31 -66 35 -9 19 -24 53 -34 75 -46 99 -70 159 -70 175 0 41
396 299 435 283 9 -3 33 -42 55 -87z m-434 -383 c39 -90 66 -139 77 -141 9 -2
29 9 44 24 25 25 28 26 38 9 30 -53 62 -78 100 -79 33 -1 43 -7 62 -35 30 -44
29 -72 -3 -102 -14 -13 -36 -47 -49 -74 -12 -28 -34 -59 -49 -68 -34 -23 -31
-50 18 -151 24 -49 57 -95 101 -139 36 -36 65 -69 65 -72 0 -3 -12 -5 -27 -5
-33 0 -66 -24 -93 -65 -21 -32 -12 -55 21 -55 20 0 88 -41 89 -53 1 -17 -55
-29 -86 -18 -67 24 -110 5 -120 -53 -8 -49 -60 -106 -96 -106 -24 0 -25 2 -37
138 -16 174 -18 182 -46 182 -12 0 -71 -18 -130 -40 -107 -40 -125 -42 -125
-15 0 8 -11 52 -24 98 -13 45 -22 94 -19 109 3 14 27 47 54 74 l49 48 0 131
c0 122 8 183 30 230 34 70 80 246 80 302 0 35 4 63 8 63 5 0 35 -62 68 -137z
m-151 -159 l-56 -168 2 -128 c3 -122 2 -129 -21 -153 -22 -24 -29 -25 -134
-25 -142 0 -206 20 -206 63 0 22 -22 115 -35 148 -5 13 3 18 37 23 136 21 249
62 272 99 8 12 24 54 36 92 12 39 28 85 36 104 17 39 117 142 122 125 2 -7
-22 -88 -53 -180z m-359 -480 c30 -13 59 -15 119 -11 93 6 111 2 94 -19 -18
-22 -14 -91 11 -164 28 -84 28 -138 -1 -232 -23 -73 -26 -78 -54 -80 -34 -2
-149 3 -153 7 -1 1 5 35 13 76 10 48 13 93 9 129 -9 78 -18 90 -63 90 -37 0
-40 2 -60 49 -11 27 -21 52 -21 55 0 3 11 22 25 42 14 20 25 45 25 55 0 23 7
23 56 3z m537 -303 c17 -163 20 -251 7 -266 -7 -8 -10 -25 -6 -40 6 -21 1 -28
-28 -42 -32 -15 -40 -15 -98 0 -35 9 -77 19 -95 22 -24 5 -40 19 -63 53 -27
40 -31 54 -27 93 2 25 14 70 26 100 l23 55 107 41 c145 57 147 57 154 -16z
m-304 -273 c17 -27 31 -57 31 -66 0 -24 -40 -86 -75 -115 -16 -14 -52 -63 -80
-110 -27 -47 -59 -90 -71 -95 -12 -6 -45 -13 -75 -17 -53 -7 -55 -6 -102 35
l-48 42 -39 -26 c-22 -14 -42 -26 -45 -26 -3 0 -18 19 -35 41 -23 32 -27 45
-20 60 7 11 7 33 1 59 -9 39 -8 41 20 56 21 10 29 22 29 42 0 43 13 54 52 47
32 -6 38 -3 64 29 17 20 48 42 72 50 24 9 53 22 65 31 17 12 46 15 124 14
l101 -1 31 -50z m182 -93 c65 -17 66 -17 108 5 24 12 44 20 46 18 5 -5 -35
-121 -47 -135 -6 -7 -20 -13 -33 -13 -12 0 -34 -10 -48 -22 -14 -13 -38 -31
-52 -42 -15 -10 -36 -39 -48 -65 -11 -25 -31 -60 -44 -78 -20 -26 -26 -48 -30
-114 -5 -65 -11 -87 -29 -108 l-23 -26 -44 23 c-71 37 -114 79 -133 127 -16
44 -16 46 3 68 12 12 24 33 28 47 13 45 88 164 141 222 28 31 58 71 65 88 16
36 23 36 140 5z m-820 -72 c7 -19 15 -24 30 -20 27 7 42 -32 34 -88 -7 -40 -5
-44 63 -122 78 -90 81 -105 30 -148 -25 -21 -40 -25 -101 -26 -195 -3 -178 -7
-295 59 -104 58 -107 61 -107 94 0 19 -6 42 -14 52 -20 24 9 55 45 48 15 -3
29 1 33 7 4 7 23 20 41 29 19 9 41 29 49 44 9 14 29 41 46 60 26 29 37 33 83
35 48 2 54 0 63 -24z m265 -224 c46 -40 50 -41 98 -35 28 3 62 9 76 12 l25 7
-27 -30 c-34 -35 -34 -37 -4 -105 20 -46 35 -63 85 -96 33 -22 66 -42 73 -44
13 -5 -26 -68 -42 -68 -4 0 -30 -20 -56 -44 -27 -24 -67 -52 -89 -63 l-40 -21
-90 27 c-50 14 -106 37 -124 50 l-33 24 7 71 c8 80 20 113 66 173 31 40 31 43
15 65 -55 77 -53 68 -22 94 15 13 29 24 31 24 2 0 25 -19 51 -41z m-681 -55
c11 -8 29 -14 42 -14 12 0 24 -4 27 -9 7 -11 122 -77 181 -104 33 -15 60 -18
162 -15 141 3 131 14 110 -106 -12 -69 -13 -70 -53 -83 -37 -12 -44 -21 -82
-97 -45 -91 -69 -116 -138 -142 l-45 -17 -28 27 c-19 19 -45 29 -87 36 -84 14
-86 14 -135 -24 -56 -43 -163 -100 -247 -132 -70 -26 -86 -29 -77 -14 6 10
-24 45 -45 52 -7 2 -14 26 -16 53 -3 27 -14 68 -26 93 l-22 43 33 26 c27 21
32 31 27 54 -4 23 1 33 34 63 43 38 64 44 77 22 4 -7 26 -19 48 -26 22 -7 49
-21 60 -31 27 -24 71 -40 91 -32 12 4 5 16 -32 54 -30 31 -45 52 -39 58 19 18
135 51 159 45 13 -3 27 -1 30 5 11 18 -43 191 -60 191 -2 0 -9 -10 -14 -22 -8
-21 -9 -20 -9 9 -1 17 -4 39 -8 48 -5 15 -1 16 28 10 19 -4 43 -14 54 -21z
m541 -359 c29 -22 32 -29 24 -51 -14 -35 -15 -33 30 -74 l41 -37 -83 -66 c-46
-36 -89 -75 -96 -86 -6 -12 -16 -50 -21 -85 -15 -108 -18 -108 -94 -19 -58 68
-125 171 -115 176 1 1 30 16 63 32 57 29 62 34 105 117 32 63 53 91 75 102 39
19 33 20 71 -9z m159 -69 c57 -11 60 -16 25 -38 -29 -17 -31 -22 -25 -56 11
-57 21 -70 85 -102 33 -17 60 -32 60 -35 0 -3 -18 -5 -39 -5 -32 0 -49 8 -87
40 -25 23 -59 44 -75 47 -35 7 -35 10 -7 40 l21 23 -43 38 c-39 34 -42 40 -31
60 11 20 14 21 44 9 18 -8 50 -17 72 -21z m-547 -138 c18 -11 49 -45 68 -75
l35 -55 -68 -89 -68 -89 -57 0 c-71 0 -85 -6 -103 -40 -10 -19 -22 -27 -42
-28 -15 0 -48 -5 -73 -11 -64 -15 -65 -15 -83 24 -11 23 -30 41 -54 53 -44 20
-53 29 -53 59 0 12 -9 28 -21 37 -34 24 -19 46 48 71 127 48 289 135 308 165
10 15 126 0 163 -22z m488 -28 c14 -6 47 -28 72 -50 40 -36 50 -40 98 -40 67
0 74 -11 77 -128 l3 -87 36 0 c21 0 43 -6 49 -12 29 -29 48 -5 49 62 0 35 6
45 40 66 46 29 94 40 187 45 84 5 121 -4 93 -21 -21 -13 -10 -72 20 -110 35
-44 40 -96 13 -120 -60 -52 -93 -75 -127 -89 -49 -20 -112 -70 -192 -150 -34
-33 -74 -71 -90 -83 l-30 -21 -39 24 c-41 25 -89 31 -115 14 -12 -8 -11 -13 9
-33 28 -31 19 -37 -58 -36 l-62 1 -51 61 c-28 34 -70 102 -93 153 -38 81 -46
92 -73 97 -18 4 -36 16 -43 29 -19 35 -13 114 10 152 12 18 21 44 21 57 0 13
7 49 15 79 12 45 23 63 67 102 55 50 69 55 114 38z m-308 -199 l60 -74 -4 -71
c-6 -85 8 -119 51 -126 26 -4 35 -16 76 -100 26 -53 67 -118 93 -147 42 -47
46 -54 34 -72 -12 -20 -35 -27 -102 -33 -25 -3 -37 -14 -72 -73 -23 -38 -59
-88 -78 -110 l-36 -40 -54 58 c-43 46 -62 79 -90 150 -51 131 -52 145 -26 236
27 93 23 105 -41 114 -64 9 -67 18 -30 95 18 37 31 78 29 90 -2 14 18 47 61
102 35 44 65 79 66 78 2 -2 30 -36 63 -77z m-205 -107 c3 -3 -11 -39 -31 -80
-35 -71 -35 -74 -18 -93 10 -11 37 -24 60 -29 40 -8 41 -9 38 -47 -2 -21 -10
-52 -19 -68 -21 -41 -12 -99 32 -212 23 -60 52 -111 85 -152 l50 -62 -20 -23
c-11 -13 -31 -35 -45 -50 -27 -32 -51 -34 -119 -14 -42 13 -54 13 -99 -1 -29
-8 -67 -21 -85 -29 -18 -8 -38 -14 -45 -14 -7 0 -34 -18 -61 -40 -52 -43 -70
-49 -83 -26 -5 8 -42 32 -83 53 l-75 38 -3 50 c-7 96 32 207 108 310 17 22 33
55 36 73 6 28 4 32 -15 32 -31 0 -28 38 4 50 38 14 32 40 -8 40 -27 0 -36 6
-45 26 -8 17 -18 24 -30 20 -9 -2 -27 -7 -39 -11 -19 -5 -23 -1 -28 29 -12 60
-7 65 95 99 52 18 98 35 101 40 8 11 119 38 130 31 17 -10 44 6 62 36 17 28
22 30 81 30 34 0 65 -3 69 -6z"/>
<path d="M3010 8111 c-20 -5 -26 -15 -31 -46 -3 -22 -13 -54 -22 -72 -30 -57
-18 -132 29 -175 32 -28 104 -40 249 -42 130 -2 144 -4 199 -29 54 -25 66 -27
130 -20 39 3 90 6 113 5 40 -2 44 0 61 35 31 62 34 100 13 148 -11 24 -31 51
-45 60 -14 9 -28 25 -31 35 -3 10 -31 35 -62 56 -53 35 -58 36 -121 31 -39 -4
-72 -13 -83 -23 -18 -16 -25 -16 -107 1 -48 10 -112 24 -142 31 -58 15 -109
16 -150 5z m238 -41 c142 -30 143 -30 170 -11 15 10 51 22 80 25 49 5 58 2
107 -31 30 -19 57 -44 60 -54 4 -11 15 -24 26 -30 29 -15 59 -69 59 -106 0
-18 -8 -51 -17 -73 -18 -40 -18 -40 -73 -41 -30 0 -77 -4 -105 -9 -45 -7 -57
-5 -113 22 -57 27 -72 29 -165 29 -56 0 -138 5 -181 11 -68 9 -84 15 -107 41
-35 38 -43 106 -17 145 10 15 18 43 18 64 0 33 3 37 38 46 20 5 46 8 57 6 11
-3 84 -18 163 -34z"/>
<path d="M5527 7590 c-24 -19 -27 -28 -27 -77 0 -51 3 -58 39 -94 74 -75 138
-34 156 99 l7 52 -35 15 c-66 27 -109 29 -140 5z m123 -13 c29 -10 35 -17 33
-37 -8 -78 -45 -150 -77 -150 -23 0 -68 42 -82 76 -18 43 -18 74 2 102 17 25
66 29 124 9z"/>
<path d="M5515 7221 c-16 -4 -62 -24 -100 -43 -65 -33 -72 -40 -88 -85 -28
-77 -7 -133 49 -133 9 0 30 -14 46 -31 35 -37 54 -33 50 9 -4 41 12 41 65 3
43 -31 127 -71 150 -71 10 0 13 13 10 56 -4 49 -9 60 -44 97 -55 56 -66 82
-67 147 -1 61 -9 66 -71 51z m55 -49 c0 -62 17 -102 65 -153 40 -43 45 -53 45
-94 l0 -45 -52 26 c-29 15 -66 37 -83 50 -16 12 -43 24 -60 26 -28 3 -30 1
-28 -30 1 -35 -3 -34 -49 11 -10 9 -26 17 -36 17 -44 0 -56 59 -24 119 12 25
36 44 92 72 41 21 87 39 103 39 25 0 27 -3 27 -38z"/>
<path d="M3952 7083 c-41 -21 -49 -51 -29 -114 11 -31 14 -66 10 -97 -4 -39
-2 -50 11 -55 11 -4 25 7 46 38 16 24 38 46 48 50 57 17 89 118 54 164 -25 31
-94 38 -140 14z m136 -38 c17 -36 -5 -92 -47 -121 -20 -13 -48 -40 -63 -60
-29 -40 -42 -33 -28 15 7 25 4 45 -11 87 -19 51 -20 57 -5 79 9 14 29 27 44
31 15 3 32 7 37 8 21 6 63 -16 73 -39z"/>
<path d="M4998 4105 c-42 -33 -45 -39 -43 -76 3 -46 52 -106 78 -96 8 3 23 32
32 64 9 31 25 74 36 95 10 20 19 40 19 43 0 3 -17 5 -38 5 -29 0 -50 -9 -84
-35z"/>
<path d="M4896 3961 c-16 -11 -44 -22 -62 -26 -25 -4 -42 -17 -64 -50 -16 -24
-30 -54 -30 -67 0 -13 -3 -33 -6 -46 -6 -21 -8 -22 -25 -6 -17 15 -20 14 -55
-14 -35 -29 -40 -30 -103 -25 -55 5 -69 3 -80 -11 -13 -15 -12 -21 2 -46 9
-15 17 -44 17 -64 0 -34 -4 -38 -77 -81 -74 -44 -81 -46 -145 -43 -93 4 -87
-15 9 -26 l77 -10 70 37 c73 38 121 46 155 26 10 -7 30 -9 45 -5 31 8 138 101
149 130 8 23 95 63 162 75 59 10 65 17 65 67 0 64 -27 110 -57 99 -19 -7 -16
12 3 23 13 7 15 18 10 46 -8 41 -19 44 -60 17z m47 -18 c2 -10 -5 -28 -16 -40
-21 -24 -16 -43 12 -43 26 0 42 -23 48 -70 7 -48 -13 -69 -62 -68 -17 1 -42
-6 -55 -14 -14 -9 -41 -21 -61 -27 -26 -8 -41 -21 -49 -41 -7 -17 -16 -30 -20
-30 -5 0 -23 -16 -42 -36 -18 -19 -45 -42 -60 -50 -25 -13 -32 -13 -58 1 -45
23 -83 18 -149 -21 -33 -20 -65 -34 -70 -32 -6 1 23 21 64 43 66 35 76 44 81
73 4 22 0 47 -11 73 -10 21 -15 42 -11 46 6 6 46 7 114 2 12 0 38 11 58 26 33
26 36 26 54 10 26 -24 40 -11 40 38 0 55 50 137 83 137 12 0 38 9 57 19 44 25
48 25 53 4z"/>
<path d="M4520 3371 c-15 -30 -12 -91 9 -136 33 -74 71 -84 71 -19 0 31 4 37
35 50 59 24 43 79 -32 110 -45 19 -70 17 -83 -5z"/>
<path d="M4304 2644 c5 -39 2 -50 -19 -78 -30 -40 -32 -62 -5 -69 11 -3 20
-14 20 -25 0 -11 6 -25 14 -31 17 -14 28 -2 49 59 8 25 21 59 28 76 22 56 -18
114 -78 114 -13 0 -15 -8 -9 -46z"/>
<path d="M3902 1704 c-12 -8 -46 -22 -74 -30 -102 -30 -145 -54 -164 -90 -17
-31 -17 -35 -3 -50 15 -14 20 -14 57 5 23 12 49 21 58 21 9 0 41 26 72 58 32
33 65 62 75 65 9 4 17 11 17 16 0 18 -17 20 -38 5z"/>
</g>
</svg>
