<svg width="77px"  height="77px"  xmlns="http://www.w3.org/2000/svg" viewBox="0 0 100 100" preserveAspectRatio="xMidYMid" class="lds-zigzag" style="background: none;"><defs><clipPath id="zigzag-clip-21dad1399e1f9"><rect x="20" y="0" width="60" height="100"></rect></clipPath></defs><path fill="none" stroke="#1cb9c8" stroke-width="5" stroke-linecap="round" stroke-linejoin="round" stroke-miterlimit="10" clip-path="url(#zigzag-clip-21dad1399e1f9)" d="M90,76.7V28.3c0-2.7-2.2-5-5-5h-3.4c-2.7,0-5,2.2-5,5v43.4c0,2.7-2.2,5-5,5h-3.4c-2.7,0-5-2.2-5-5V28.3c0-2.7-2.2-5-5-5H55 c-2.7,0-5,2.2-5,5v43.4c0,2.7-2.2,5-5,5h-3.4c-2.7,0-5-2.2-5-5V28.3c0-2.7-2.2-5-5-5h-3.4c-2.7,0-5,2.2-5,5v43.4c0,2.7-2.2,5-5,5H15 c-2.7,0-5-2.2-5-5V23.3" transform="translate(0.240551 0)"><animateTransform attributeName="transform" type="translate" calcMode="linear" values="-20 0;7 0" keyTimes="0;1" dur="1s" begin="0s" repeatCount="indefinite"></animateTransform><animate attributeName="stroke-dasharray" calcMode="linear" values="0 72 125 232;0 197 125 233" keyTimes="0;1" dur="1" begin="0s" repeatCount="indefinite"></animate></path></svg>