<svg width="24" height="25" viewBox="0 0 24 25" fill="none" xmlns="http://www.w3.org/2000/svg">
<path d="M8.28002 3.44889C8.91002 3.46804 9.52002 3.57804 10.111 3.77904H10.17C10.21 3.79804 10.24 3.81904 10.26 3.83804C10.481 3.90904 10.69 3.98904 10.89 4.09904L11.27 4.26904C11.42 4.34904 11.6 4.49804 11.7 4.55904C11.8 4.61804 11.91 4.67904 12 4.74804C13.111 3.89904 14.46 3.43904 15.85 3.44889C16.481 3.44889 17.111 3.53804 17.71 3.73904C21.401 4.93904 22.731 8.98905 21.62 12.529C20.99 14.338 19.96 15.989 18.611 17.338C16.68 19.208 14.561 20.868 12.28 22.298L12.03 22.449L11.77 22.288C9.48102 20.868 7.35002 19.208 5.40102 17.328C4.06102 15.979 3.03002 14.338 2.39002 12.529C1.26002 8.98905 2.59002 4.93904 6.32102 3.71804C6.61102 3.61804 6.91002 3.54804 7.21002 3.50904H7.33002C7.61102 3.46804 7.89002 3.44889 8.17002 3.44889H8.28002ZM17.19 6.60904C16.78 6.46804 16.33 6.68904 16.18 7.10904C16.04 7.52904 16.26 7.98904 16.68 8.13804C17.321 8.37804 17.75 9.00904 17.75 9.70804V9.73904C17.731 9.96804 17.8 10.189 17.94 10.359C18.08 10.529 18.29 10.628 18.51 10.649C18.92 10.638 19.27 10.309 19.3 9.88804V9.76904C19.33 8.36804 18.481 7.09904 17.19 6.60904Z" fill="#2196F3"/>
</svg>
