<svg width="24" height="24" viewBox="0 0 24 24" fill="none" xmlns="http://www.w3.org/2000/svg">
<path fill-rule="evenodd" clip-rule="evenodd" d="M12.235 4.03912C13.861 3.01112 16.021 2.72712 17.887 3.32512C21.946 4.63412 23.206 9.05912 22.079 12.5801C20.34 18.1101 12.913 22.2351 12.598 22.4081C12.486 22.4701 12.362 22.5011 12.238 22.5011C12.114 22.5011 11.991 22.4711 11.879 22.4101C11.566 22.2391 4.19296 18.1751 2.39596 12.5811C2.39496 12.5811 2.39496 12.5801 2.39496 12.5801C1.26696 9.05812 2.52296 4.63212 6.57796 3.32512C8.48196 2.70912 10.557 2.98012 12.235 4.03912ZM7.03796 4.75312C3.75696 5.81112 2.93296 9.34012 3.82396 12.1231C5.22596 16.4851 10.765 20.0121 12.237 20.8851C13.714 20.0031 19.293 16.4371 20.65 12.1271C21.541 9.34112 20.714 5.81212 17.428 4.75312C15.836 4.24212 13.979 4.55312 12.697 5.54512C12.429 5.75112 12.057 5.75512 11.787 5.55112C10.429 4.53012 8.65496 4.23112 7.03796 4.75312ZM16.468 6.73902C17.831 7.18002 18.786 8.38702 18.903 9.81402C18.936 10.227 18.629 10.589 18.216 10.622C18.195 10.624 18.175 10.625 18.154 10.625C17.767 10.625 17.439 10.328 17.407 9.93602C17.341 9.11402 16.791 8.42002 16.008 8.16702C15.613 8.03902 15.397 7.61602 15.524 7.22302C15.653 6.82902 16.072 6.61502 16.468 6.73902Z" fill="#9CA4AB"/>
</svg>
