<svg width="24" height="24" viewBox="0 0 24 24" fill="none" xmlns="http://www.w3.org/2000/svg">
<path fill-rule="evenodd" clip-rule="evenodd" d="M4 5.549C4 3.317 5.798 1.501 8.007 1.501L10.601 1.5C10.799 1.5 10.991 1.579 11.131 1.72C11.272 1.86 11.351 2.051 11.351 2.25C11.351 3.037 11.979 3.677 12.751 3.677C13.523 3.677 14.151 3.037 14.151 2.25C14.151 1.836 14.487 1.5 14.901 1.5L17.493 1.5C19.702 1.5 21.5 3.316 21.5 5.548L21.5 18.952C21.5 21.184 19.702 23 17.493 23L14.901 23C14.487 23 14.151 22.664 14.151 22.25C14.151 21.463 13.523 20.823 12.751 20.823C12.001 20.823 11.435 21.437 11.435 22.25C11.435 22.449 11.356 22.64 11.215 22.78C11.075 22.921 10.883 23 10.685 23L8.007 22.999C5.798 22.999 4 21.183 4 18.951L4 5.549ZM5.5 5.549L5.5 9.651L7.4212 9.6504C7.8352 9.6504 8.1712 9.9864 8.1712 10.4004C8.1712 10.8144 7.8352 11.1504 7.4212 11.1504L5.5 11.151L5.5 18.951C5.5 20.356 6.625 21.499 8.007 21.499L10.025 21.5C10.336 20.233 11.422 19.323 12.751 19.323C14.093 19.323 15.225 20.249 15.554 21.5L17.493 21.5C18.875 21.5 20 20.357 20 18.952L20 11.151L18.5115 11.1504C18.0965 11.1504 17.7615 10.8144 17.7615 10.4004C17.7615 9.9864 18.0965 9.6504 18.5115 9.6504L20 9.651L20 5.548C20 4.143 18.875 3 17.493 3L15.554 3C15.225 4.251 14.093 5.177 12.751 5.177C11.408 5.177 10.277 4.252 9.948 3L8.007 3.001C6.625 3.001 5.5 4.144 5.5 5.549ZM9.5045 10.4004C9.5045 9.9864 9.8405 9.6504 10.2545 9.6504L15.0755 9.6504C15.4895 9.6504 15.8255 9.9864 15.8255 10.4004C15.8255 10.8144 15.4895 11.1504 15.0755 11.1504L10.2545 11.1504C9.8405 11.1504 9.5045 10.8144 9.5045 10.4004Z" fill="#9CA4AB"/>
</svg>
