<svg width="24" height="25" viewBox="0 0 24 25" fill="none" xmlns="http://www.w3.org/2000/svg">
<path d="M4 12.3363C4 12.0113 4.25649 11.7473 4.57311 11.7473L6.97827 11.7473C7.36348 11.7473 7.68291 11.4185 7.68291 11.022C7.68291 10.6158 7.36348 10.2966 6.97827 10.2966L4.57311 10.2966C4.25649 10.2966 4 10.0326 4 9.7067L4 6.55389C4 4.46492 5.64416 2.77246 7.67352 2.77246L10.0411 2.77246C10.229 2.77246 10.4075 2.84983 10.539 2.98523C10.6706 3.12062 10.7457 3.30438 10.7457 3.4978C10.7457 4.21347 11.3095 4.79374 11.9953 4.79374C12.6858 4.79374 13.2467 4.22024 13.2543 3.51134C13.258 3.11192 13.5286 2.77246 13.9166 2.77246L16.3265 2.77246C18.3549 2.77246 20 4.46492 20 6.55389L20 9.7067C20 10.0326 19.7435 10.2966 19.4269 10.2966L17.3975 10.2966C17.0029 10.2966 16.6929 10.6158 16.6929 11.022C16.6929 11.4185 17.0029 11.7473 17.3975 11.7473L19.4269 11.7473C19.7435 11.7473 20 12.0113 20 12.3363L20 18.991C20 21.0703 18.3558 22.7725 16.3265 22.7725L13.9166 22.7725C13.5286 22.7725 13.258 22.433 13.2543 22.0336C13.2467 21.3237 12.6858 20.7512 11.9953 20.7512C11.3282 20.7512 10.8209 21.3121 10.8209 22.0471C10.8209 22.2405 10.7457 22.4243 10.6142 22.5597C10.4827 22.6951 10.3042 22.7725 10.1163 22.7725L7.68291 22.7725C5.65731 22.7725 4 21.0665 4 18.9814L4 12.3363ZM9.70288 11.022C9.70288 11.4185 10.0223 11.7473 10.4075 11.7473L14.1656 11.7473C14.5508 11.7473 14.8702 11.4185 14.8702 11.022C14.8702 10.6158 14.5508 10.2966 14.1656 10.2966L10.4075 10.2966C10.0223 10.2966 9.70288 10.6158 9.70288 11.022Z" fill="#2196F3"/>
</svg>
